<?xml version="1.0" encoding="utf-8"?>
<!-- Generator: Adobe Illustrator 16.0.0, SVG Export Plug-In . SVG Version: 6.00 Build 0)  -->
<!DOCTYPE svg PUBLIC "-//W3C//DTD SVG 1.1//EN" "http://www.w3.org/Graphics/SVG/1.1/DTD/svg11.dtd">
<svg version="1.1" id="Calque_1" xmlns="http://www.w3.org/2000/svg" xmlns:xlink="http://www.w3.org/1999/xlink" x="0px" y="0px"
	 width="182.334px" height="119px" viewBox="0 0 182.334 119" enable-background="new 0 0 182.334 119" xml:space="preserve">
<path fill="#FFFFFF" d="M-987.002-43.667c-55.227,0-99.998,44.772-99.998,99.996c0,55.234,44.771,100,99.998,100
	c55.229,0,100.002-44.766,100.002-100C-887,1.105-931.773-43.667-987.002-43.667z M-964.921,39.4l-1.152,14.957h-15.337v51.974
	h-19.377V54.357h-10.338V39.4h10.338V29.35c0-4.424,0.111-11.258,3.33-15.498c3.391-4.477,8.044-7.522,16.047-7.522
	c13.044,0,18.536,1.864,18.536,1.864l-2.584,15.311c0,0-4.31-1.245-8.329-1.245c-4.022,0-7.623,1.442-7.623,5.461V39.4H-964.921z"/>
<g>
	<path fill="#FFFFFF" d="M-723.073,43.636c-0.1-3.791-0.245-7.59-0.63-11.362c-0.856-8.453-5.887-14.28-14.22-15.858
		c-4.445-0.84-9.062-0.957-13.609-1.041c-8.322-0.156-16.653-0.136-24.978-0.007c-4.299,0.065-8.637,0.218-12.87,0.877
		c-7.229,1.122-12.169,5.268-14.166,12.438c-0.638,2.297-1.015,4.732-1.07,7.118c-0.215,9.051-0.348,18.106-0.316,27.162
		c0.02,5.759,0.151,11.538,0.653,17.274c0.739,8.483,5.814,14.293,14.143,15.893c4.48,0.86,9.136,0.969,13.72,1.057
		c8.288,0.157,16.582,0.107,24.87,0.018c3.864-0.043,7.737-0.255,11.581-0.637c3.563-0.347,6.896-1.516,9.761-3.79
		c4.645-3.693,6.437-8.783,6.709-14.429c0.37-7.616,0.446-15.25,0.648-22.875c-0.067-0.002-0.136-0.004-0.204-0.004
		C-723.052,51.524-722.97,47.58-723.073,43.636z M-764.078,81.958c-14.26-0.004-25.604-11.468-25.597-25.865
		c0.004-14.185,11.538-25.501,25.97-25.486c14.089,0.016,25.396,11.584,25.378,25.972C-738.344,70.588-749.884,81.96-764.078,81.958
		z M-737.363,35.641c-3.34-0.06-6.059-2.841-5.994-6.125c0.063-3.347,2.766-5.95,6.152-5.918c3.372,0.027,5.93,2.688,5.889,6.125
		C-731.353,32.999-734.111,35.696-737.363,35.641z"/>
	<path fill="#FFFFFF" d="M-764.023,39.625c-9.153,0.027-16.65,7.543-16.635,16.679c0.016,9.14,7.552,16.657,16.679,16.638
		c9.143-0.02,16.653-7.55,16.636-16.682C-747.361,47.118-754.903,39.595-764.023,39.625z"/>
	<path fill="#FFFFFF" d="M-764-43.667c-55.229,0-100,44.77-100,99.996c0,55.231,44.771,100,100,100c55.227,0,100-44.769,100-100
		C-664,1.103-708.773-43.667-764-43.667z M-714.1,72.037c-0.059,5.253-0.232,10.521-1.982,15.566
		c-3.352,9.676-10.16,15.551-20.11,17.463c-4.516,0.866-9.206,0.958-13.826,1.143c-4.666,0.183-9.346,0.038-14.021,0.038
		c0,0.048,0,0.095,0,0.141c-6.754-0.119-13.509-0.181-20.258-0.374c-5.828-0.167-11.479-1.222-16.535-4.328
		c-6.631-4.07-10.677-10.05-11.969-17.648c-0.771-4.542-1.043-9.21-1.116-13.828c-0.15-9.892-0.09-19.792,0.018-29.686
		c0.057-5.248,0.23-10.52,1.982-15.566c3.35-9.675,10.16-15.547,20.108-17.46c4.517-0.867,9.208-1.06,13.824-1.13
		c9.931-0.152,19.865-0.094,29.796,0.016c5.214,0.055,10.446,0.231,15.459,1.961c9.719,3.357,15.621,10.18,17.521,20.181
		c0.855,4.521,1.053,9.208,1.123,13.827C-713.935,52.245-713.993,62.145-714.1,72.037z"/>
</g>
<path fill="#D0A84F" d="M-522.26,148.084h-119.203V-47.083h119.203V148.084z M-636.463,143.084h109.203V-42.083h-109.203V143.084z"
	/>
<rect x="-638.963" y="125.943" fill="#D0A84F" width="114.203" height="5"/>
<path fill="#D0A84F" d="M-581.861,145.026c-4.406,0-7.991-3.585-7.991-7.991s3.585-7.99,7.991-7.99s7.991,3.584,7.991,7.99
	S-577.455,145.026-581.861,145.026z M-581.861,134.045c-1.649,0-2.991,1.342-2.991,2.99c0,1.649,1.342,2.991,2.991,2.991
	s2.991-1.342,2.991-2.991C-578.87,135.387-580.212,134.045-581.861,134.045z"/>
<polygon fill="#D0A84F" points="-529.085,115.397 -534.085,115.397 -534.085,-34.417 -612.199,-34.417 -612.199,-39.417 
	-529.085,-39.417 "/>
<polygon fill="#D0A84F" points="-599.021,124.873 -634.853,124.873 -634.853,45.247 -629.853,45.247 -629.853,119.873 
	-599.021,119.873 "/>
<rect x="-594.158" y="-20.824" transform="matrix(0.7071 0.7071 -0.7071 0.7071 -171.1583 419.2496)" fill="#D0A94F" width="4.999" height="47.686"/>
<rect x="-587.524" y="-14.191" transform="matrix(0.7071 0.7071 -0.7071 0.7071 -150.7209 422.2195)" fill="#D0A94F" width="4.999" height="86.729"/>
<rect x="-577.299" y="41.467" transform="matrix(0.7071 0.7071 -0.7071 0.7071 -117.4261 427.5395)" fill="#D0A84F" width="4.999" height="61.113"/>
<rect x="-467" y="2" fill="none" stroke="#D0A84F" stroke-width="4" stroke-miterlimit="10" width="191" height="115"/>
<polyline fill="none" stroke="#D0A84F" stroke-width="4" stroke-miterlimit="10" points="-465.083,2.686 -384.333,87 -376,87 "/>
<rect x="-367" y="72" fill="none" stroke="#D0A84F" stroke-width="4" stroke-miterlimit="10" width="14" height="14"/>
<rect x="-345" y="53" fill="none" stroke="#D0A84F" stroke-width="4" stroke-miterlimit="10" width="14" height="14"/>
<rect x="-323" y="31" fill="none" stroke="#D0A84F" stroke-width="4" stroke-miterlimit="10" width="14" height="14"/>
<rect x="-298" y="11" fill="none" stroke="#D0A84F" stroke-width="4" stroke-miterlimit="10" width="14" height="14"/>
<path fill="#D0A94F" d="M-10,118h-193V0h193V118z M-199,114h185V4h-185V114z"/>
<path fill="#D0A94F" d="M-150,21h-13V0h13V21z M-159,17h5V4h-5V17z"/>
<path fill="#D0A94F" d="M-118,21h-13V0h13V21z M-127,17h5V4h-5V17z"/>
<path fill="#D0A94F" d="M-87,21h-13V0h13V21z M-96,17h5V4h-5V17z"/>
<path fill="#D0A94F" d="M-55,21h-13V0h13V21z M-64,17h5V4h-5V17z"/>
<rect x="-172" y="40" fill="#D0A94F" width="131" height="4"/>
<rect x="-172" y="60" fill="#D0A94F" width="131" height="4"/>
<rect x="-172" y="81" fill="#D0A94F" width="131" height="4"/>
<g>
	<path fill="#D0A94E" d="M149,23.489V28H40V15H12v-5H0v5h-1v17h1v5h12v-5h11v64h37.49l11.075,18H122V96h27v3.1l33,19.079V-0.647
		L149,23.489z M4,14h4v1H4V14z M4,19h4v9H4V19z M8,33H4v-1h4V33z M12,28v-9h24v9H23.604H12z M118,110H73.788l-8.586-14H118V110z
		 M123.41,92H58.001H27V32h14.172H149v60H123.41z M178,111.173l-25-14.356v-1.846V26.729v-1.235l25-18.161V111.173z"/>
	<rect x="38" y="85" fill="#D0A94E" width="52" height="4"/>
	<rect x="32" y="75" fill="#D0A94E" width="32" height="4"/>
	<rect x="170" y="21" fill="#D0A94E" width="4" height="82"/>
</g>
</svg>
