<svg xmlns="http://www.w3.org/2000/svg" width="220" height="150" viewBox="0 0 220.2 150.1"><style>.a{fill:#D0A94F;}.b{fill:none;stroke-width:4;stroke:#D0A94F;}.c{fill:#D0A94E;}.d{fill:none;stroke-linejoin:round;stroke-width:8;stroke:#D0A94F;}</style><path d="M-44-402.7c-55.2 0-100 44.8-100 100 0 55.2 44.8 100 100 100 55.2 0 100-44.8 100-100C56-357.9 11.2-402.7-44-402.7zM-21.9-319.6l-1.2 15H-38.4v52h-19.4v-52h-10.3V-319.6h10.3v-10c0-4.4 0.1-11.3 3.3-15.5 3.4-4.5 8-7.5 16-7.5 13 0 18.5 1.9 18.5 1.9l-2.6 15.3c0 0-4.3-1.2-8.3-1.2 -4 0-7.6 1.4-7.6 5.5v11.7H-21.9z" class="a"/><path d="M219.9-315.4c-0.1-3.8-0.2-7.6-0.6-11.4 -0.9-8.5-5.9-14.3-14.2-15.9 -4.4-0.8-9.1-1-13.6-1 -8.3-0.2-16.7-0.1-25 0 -4.3 0.1-8.6 0.2-12.9 0.9 -7.2 1.1-12.2 5.3-14.2 12.4 -0.6 2.3-1 4.7-1.1 7.1 -0.2 9.1-0.3 18.1-0.3 27.2 0 5.8 0.2 11.5 0.7 17.3 0.7 8.5 5.8 14.3 14.1 15.9 4.5 0.9 9.1 1 13.7 1.1 8.3 0.2 16.6 0.1 24.9 0 3.9 0 7.7-0.3 11.6-0.6 3.6-0.3 6.9-1.5 9.8-3.8 4.6-3.7 6.4-8.8 6.7-14.4 0.4-7.6 0.4-15.2 0.6-22.9 -0.1 0-0.1 0-0.2 0C219.9-307.5 220-311.4 219.9-315.4zM178.9-277c-14.3 0-25.6-11.5-25.6-25.9 0-14.2 11.5-25.5 26-25.5 14.1 0 25.4 11.6 25.4 26C204.7-288.4 193.1-277 178.9-277zM205.6-323.4c-3.3-0.1-6.1-2.8-6-6.1 0.1-3.3 2.8-5.9 6.2-5.9 3.4 0 5.9 2.7 5.9 6.1C211.6-326 208.9-323.3 205.6-323.4z" class="a"/><path d="M179-319.4c-9.2 0-16.6 7.5-16.6 16.7 0 9.1 7.6 16.7 16.7 16.6 9.1 0 16.7-7.5 16.6-16.7C195.6-311.9 188.1-319.4 179-319.4z" class="a"/><path d="M179-402.7c-55.2 0-100 44.8-100 100 0 55.2 44.8 100 100 100 55.2 0 100-44.8 100-100C279-357.9 234.2-402.7 179-402.7zM228.9-287c-0.1 5.3-0.2 10.5-2 15.6 -3.4 9.7-10.2 15.6-20.1 17.5 -4.5 0.9-9.2 1-13.8 1.1 -4.7 0.2-9.3 0-14 0 0 0 0 0.1 0 0.1 -6.8-0.1-13.5-0.2-20.3-0.4 -5.8-0.2-11.5-1.2-16.5-4.3 -6.6-4.1-10.7-10-12-17.6 -0.8-4.5-1-9.2-1.1-13.8 -0.1-9.9-0.1-19.8 0-29.7 0.1-5.2 0.2-10.5 2-15.6 3.4-9.7 10.2-15.5 20.1-17.5 4.5-0.9 9.2-1.1 13.8-1.1 9.9-0.2 19.9-0.1 29.8 0 5.2 0.1 10.4 0.2 15.5 2 9.7 3.4 15.6 10.2 17.5 20.2 0.9 4.5 1.1 9.2 1.1 13.8C229.1-306.8 229-296.9 228.9-287z" class="a"/><path d="M420.7-210.9H301.5v-195.2H420.7V-210.9zM306.5-215.9H415.7v-185.2H306.5V-215.9z" class="a"/><rect x="304" y="-233.1" width="114.2" height="5" class="a"/><path d="M361.1-214c-4.4 0-8-3.6-8-8s3.6-8 8-8 8 3.6 8 8S365.5-214 361.1-214zM361.1-225c-1.6 0-3 1.3-3 3 0 1.6 1.3 3 3 3s3-1.3 3-3C364.1-223.6 362.8-225 361.1-225z" class="a"/><polygon points="413.9 -243.6 408.9 -243.6 408.9 -393.4 330.8 -393.4 330.8 -398.4 413.9 -398.4 " class="a"/><polygon points="344 -234.1 308.1 -234.1 308.1 -313.8 313.1 -313.8 313.1 -239.1 344 -239.1 " class="a"/><rect x="348.8" y="-379.8" transform="matrix(0.7071 0.7071 -0.7071 0.7071 -148.8112 -352.7007)" width="5" height="47.7" class="a"/><rect x="355.5" y="-373.2" transform="matrix(0.7071 0.7071 -0.7071 0.7071 -128.3738 -349.7309)" width="5" height="86.7" class="a"/><rect x="365.7" y="-317.5" transform="matrix(0.7071 0.7071 -0.7071 0.7071 -95.0791 -344.4109)" width="5" height="61.1" class="a"/><rect x="476" y="-357" width="191" height="115" class="b"/><polyline points="477.9 -356.3 558.7 -272 567 -272 " class="b"/><rect x="576" y="-287" width="14" height="14" class="b"/><rect x="598" y="-306" width="14" height="14" class="b"/><rect x="620" y="-328" width="14" height="14" class="b"/><rect x="645" y="-348" width="14" height="14" class="b"/><path d="M933-241H740v-118h193V-241zM744-245h185v-110H744V-245z" class="a"/><path d="M793-338h-13v-21h13V-338zM784-342h5v-13h-5V-342z" class="a"/><path d="M825-338h-13v-21h13V-338zM816-342h5v-13h-5V-342z" class="a"/><path d="M856-338h-13v-21h13V-338zM847-342h5v-13h-5V-342z" class="a"/><path d="M888-338h-13v-21h13V-338zM879-342h5v-13h-5V-342z" class="a"/><rect x="771" y="-319" width="131" height="4" class="a"/><rect x="771" y="-299" width="131" height="4" class="a"/><rect x="771" y="-278" width="131" height="4" class="a"/><path d="M1092-335.5V-331H983v-13h-28v-5h-12v5h-1v17h1v5h12v-5h11v64h37.5l11.1 18H1065v-18h27v3.1l33 19.1v-118.8L1092-335.5zM947-345h4v1h-4V-345zM947-340h4v9h-4V-340zM951-326h-4v-1h4V-326zM955-331v-9h24v9h-12.4H955zM1061-249h-44.2l-8.6-14H1061V-249zM1066.4-267h-65.4H970v-60h14.2H1092v60H1066.4zM1121-247.8l-25-14.4v-1.8 -68.2 -1.2l25-18.2V-247.8z" class="c"/><rect x="981" y="-274" width="52" height="4" class="c"/><rect x="975" y="-284" width="32" height="4" class="c"/><rect x="1113" y="-338" width="4" height="82" class="c"/><path d="M329.3 49.8h11.6v37.6c0 0 0 5.2 5.2 5.2 4.6 0 5.2-3.6 5.2-5.2s0-38.9 0-38.9h10.9v103.8h-75.2V48.5h31.8l-0.1 15.7v12.6c0 0 0 5.2 5.3 5.2 4.6 0 5.2-3.6 5.2-5.2s0-13.9 0-13.9V49.8z" class="d"/><line x1="362.3" y1="51.4" x2="354.8" y2="51.4" class="d"/><line x1="288.7" y1="141.1" x2="362" y2="141.1" class="d"/><path d="M362.9 50.1c0 0 5.2-2.3 5.2-11.2s-9.2-9.2-9.2-9.2c-2-3.1-4.4-7.6-9.3-7.6 -9.7 0-11 6.7-11 6.7 0-7.1-2.7-15.2-14-15.2 -9.6 0-13.3 12.1-13.3 12.1 -3.2-20.6-29.2-11.2-22.7 3.1 0 0-11.3-1.5-13.6 8.4 -3.5 14.7 7.7 17.7 13.7 12.9" class="d"/><line x1="301.6" y1="70.4" x2="301.6" y2="137.1" class="d"/><line x1="329.3" y1="102.9" x2="329.3" y2="136.5" class="d"/><line x1="352.8" y1="114.5" x2="352.8" y2="136.5" class="d"/><polygon points=" 213.1 137.6 180.5 118.3 180.5 33.5 213.1 9.2 " class="d"/><rect x="34.3" y="38.4" width="146.2" height="74.1" class="d"/><polygon points=" 144.8 133 88.6 133 75.8 112.5 144.8 112.5 " class="d"/><rect x="7.5" y="23.2" width="42.5" height="15.2" class="d"/><rect x="6" y="17.1" width="9" height="26.2" class="d"/><line x1="53.9" y1="99.5" x2="113.9" y2="99.5" class="d"/><line x1="46.8" y1="87.8" x2="83.9" y2="87.8" class="d"/><line x1="200.1" y1="35.9" x2="200.1" y2="109.9" class="d"/><rect x="440.7" y="-16.3" width="117.4" height="195.4" class="d"/><line x1="440.7" y1="161.6" x2="558" y2="161.6" class="d"/><circle cx="499.4" cy="170.8" r="2.1" style="fill:#EBB44A;stroke:#D0A94F"/><polyline points=" 463.6 -5.4 546.4 -5.4 546.4 151.1 " class="d"/><polyline points=" 454 70.9 454 150.1 488.3 150.1 " class="d"/><line x1="481.6" y1="50.1" x2="506.6" y2="25" class="d"/><line x1="473.6" y1="88.2" x2="525.2" y2="36.6" class="d"/><line x1="488.5" y1="109.8" x2="524.8" y2="73.4" class="d"/><path d="M722-80.7v-68.8c0-3.4-2.7-6.1-6.1-6.1 -3.4 0-6.1 2.7-6.1 6.1v67.8h-9.5v-67.8c0-3.4-2.7-6.1-6.1-6.1 -3.4 0-6.1 2.7-6.1 6.1v67.8h-9.5v-67.8c0-3.4-2.7-6.1-6.1-6.1 -3.4 0-6.1 2.7-6.1 6.1v67.8h-9.5v-67.8c0-3.4-2.7-6.1-6.1-6.1 -3.3 0-6.1 2.7-6.1 6.1v69c-3.3 1.7-5.6 5-5.6 8.8v57.4c0 5.5 4.7 9.9 10.6 9.9h20v161.8c0 7.4 6 13.4 13.4 13.4 7.4 0 13.4-6 13.4-13.4V-4.4h20.8c5.9 0 10.6-4.4 10.6-9.9v-57.4C728.1-75.7 725.6-79.1 722-80.7z" class="d"/><path d="M845.7-78.9c0-42.3-21.8-76.6-48.7-76.6s-48.7 34.3-48.7 76.6c0 34.8 14.7 64.1 34.9 73.5v162.4c0 7.6 6.2 13.8 13.8 13.8s13.8-6.2 13.8-13.8V-5.4C830.9-14.7 845.7-44.1 845.7-78.9z" class="d"/></svg>