<?xml version="1.0" encoding="utf-8"?>
<!-- Generator: Adobe Illustrator 16.0.0, SVG Export Plug-In . SVG Version: 6.00 Build 0)  -->
<!DOCTYPE svg PUBLIC "-//W3C//DTD SVG 1.1//EN" "http://www.w3.org/Graphics/SVG/1.1/DTD/svg11.dtd">
<svg version="1.1" id="Calque_1" xmlns="http://www.w3.org/2000/svg" xmlns:xlink="http://www.w3.org/1999/xlink" x="0px" y="0px"
	 width="220.152px" height="150.133px" viewBox="0 0 220.152 150.133" enable-background="new 0 0 220.152 150.133"
	 xml:space="preserve">
<path fill="#D0A94F" d="M-44.002-402.667c-55.227,0-99.998,44.772-99.998,99.996c0,55.234,44.771,100,99.998,100
	c55.229,0,100.002-44.766,100.002-100C56-357.895,11.227-402.667-44.002-402.667z M-21.921-319.6l-1.152,14.957H-38.41v51.974
	h-19.377v-51.974h-10.338V-319.6h10.338v-10.05c0-4.424,0.111-11.258,3.33-15.498c3.391-4.477,8.044-7.522,16.047-7.522
	c13.044,0,18.536,1.864,18.536,1.864l-2.584,15.311c0,0-4.31-1.245-8.329-1.245c-4.022,0-7.623,1.442-7.623,5.461v11.678H-21.921z"
	/>
<g>
	<path fill="#D0A94F" d="M219.927-315.364c-0.1-3.791-0.245-7.59-0.63-11.362c-0.856-8.453-5.887-14.28-14.22-15.858
		c-4.445-0.84-9.062-0.957-13.609-1.041c-8.322-0.156-16.653-0.136-24.978-0.007c-4.299,0.065-8.637,0.218-12.87,0.877
		c-7.229,1.122-12.169,5.268-14.166,12.438c-0.638,2.297-1.015,4.732-1.07,7.118c-0.215,9.051-0.348,18.106-0.316,27.162
		c0.02,5.759,0.151,11.538,0.653,17.274c0.739,8.483,5.814,14.293,14.143,15.893c4.48,0.86,9.136,0.969,13.72,1.057
		c8.288,0.157,16.582,0.107,24.87,0.018c3.864-0.043,7.737-0.255,11.581-0.637c3.563-0.347,6.896-1.516,9.761-3.79
		c4.645-3.693,6.437-8.783,6.709-14.429c0.37-7.616,0.446-15.25,0.648-22.875c-0.067-0.002-0.136-0.004-0.204-0.004
		C219.948-307.476,220.03-311.42,219.927-315.364z M178.922-277.042c-14.26-0.004-25.604-11.468-25.597-25.865
		c0.004-14.185,11.538-25.501,25.97-25.486c14.089,0.016,25.396,11.584,25.378,25.972
		C204.656-288.412,193.116-277.04,178.922-277.042z M205.637-323.359c-3.34-0.06-6.059-2.841-5.994-6.125
		c0.063-3.347,2.766-5.95,6.152-5.918c3.372,0.027,5.93,2.688,5.889,6.125C211.647-326.001,208.889-323.304,205.637-323.359z"/>
	<path fill="#D0A94F" d="M178.977-319.375c-9.153,0.027-16.65,7.543-16.635,16.679c0.016,9.14,7.552,16.657,16.679,16.638
		c9.143-0.02,16.653-7.55,16.636-16.682C195.639-311.882,188.097-319.405,178.977-319.375z"/>
	<path fill="#D0A94F" d="M179-402.667c-55.229,0-100,44.77-100,99.996c0,55.231,44.771,100,100,100c55.227,0,100-44.769,100-100
		C279-357.897,234.227-402.667,179-402.667z M228.9-286.963c-0.059,5.253-0.232,10.521-1.982,15.566
		c-3.352,9.676-10.16,15.551-20.11,17.463c-4.516,0.866-9.206,0.958-13.826,1.143c-4.666,0.183-9.346,0.038-14.021,0.038
		c0,0.048,0,0.095,0,0.141c-6.754-0.119-13.509-0.181-20.258-0.374c-5.828-0.167-11.479-1.222-16.535-4.328
		c-6.631-4.07-10.677-10.05-11.969-17.648c-0.771-4.542-1.043-9.21-1.116-13.828c-0.15-9.892-0.09-19.792,0.018-29.686
		c0.057-5.248,0.23-10.52,1.982-15.566c3.35-9.675,10.16-15.547,20.108-17.46c4.517-0.867,9.208-1.06,13.824-1.13
		c9.931-0.152,19.865-0.094,29.796,0.016c5.214,0.055,10.446,0.231,15.459,1.961c9.719,3.357,15.621,10.18,17.521,20.181
		c0.855,4.521,1.053,9.208,1.123,13.827C229.065-306.755,229.007-296.855,228.9-286.963z"/>
</g>
<path fill="#D0A94F" d="M420.74-210.916H301.537v-195.167H420.74V-210.916z M306.537-215.916H415.74v-185.167H306.537V-215.916z"/>
<rect x="304.037" y="-233.057" fill="#D0A94F" width="114.203" height="5"/>
<path fill="#D0A94F" d="M361.139-213.974c-4.406,0-7.991-3.585-7.991-7.991s3.585-7.99,7.991-7.99s7.991,3.584,7.991,7.99
	S365.545-213.974,361.139-213.974z M361.139-224.955c-1.649,0-2.991,1.342-2.991,2.99c0,1.649,1.342,2.991,2.991,2.991
	s2.991-1.342,2.991-2.991C364.13-223.613,362.788-224.955,361.139-224.955z"/>
<polygon fill="#D0A94F" points="413.915,-243.603 408.915,-243.603 408.915,-393.417 330.801,-393.417 330.801,-398.417 
	413.915,-398.417 "/>
<polygon fill="#D0A94F" points="343.979,-234.127 308.147,-234.127 308.147,-313.753 313.147,-313.753 313.147,-239.127 
	343.979,-239.127 "/>
<rect x="348.842" y="-379.824" transform="matrix(0.7071 0.7071 -0.7071 0.7071 -148.8112 -352.7007)" fill="#D0A94F" width="4.999" height="47.686"/>
<rect x="355.476" y="-373.191" transform="matrix(0.7071 0.7071 -0.7071 0.7071 -128.3738 -349.7309)" fill="#D0A94F" width="4.999" height="86.729"/>
<rect x="365.701" y="-317.533" transform="matrix(0.7071 0.7071 -0.7071 0.7071 -95.0791 -344.4109)" fill="#D0A94F" width="4.999" height="61.113"/>
<rect x="476" y="-357" fill="none" stroke="#D0A94F" stroke-width="4" stroke-miterlimit="10" width="191" height="115"/>
<polyline fill="none" stroke="#D0A94F" stroke-width="4" stroke-miterlimit="10" points="477.917,-356.314 558.667,-272 567,-272 
	"/>
<rect x="576" y="-287" fill="none" stroke="#D0A94F" stroke-width="4" stroke-miterlimit="10" width="14" height="14"/>
<rect x="598" y="-306" fill="none" stroke="#D0A94F" stroke-width="4" stroke-miterlimit="10" width="14" height="14"/>
<rect x="620" y="-328" fill="none" stroke="#D0A94F" stroke-width="4" stroke-miterlimit="10" width="14" height="14"/>
<rect x="645" y="-348" fill="none" stroke="#D0A94F" stroke-width="4" stroke-miterlimit="10" width="14" height="14"/>
<path fill="#D0A94F" d="M933-241H740v-118h193V-241z M744-245h185v-110H744V-245z"/>
<path fill="#D0A94F" d="M793-338h-13v-21h13V-338z M784-342h5v-13h-5V-342z"/>
<path fill="#D0A94F" d="M825-338h-13v-21h13V-338z M816-342h5v-13h-5V-342z"/>
<path fill="#D0A94F" d="M856-338h-13v-21h13V-338z M847-342h5v-13h-5V-342z"/>
<path fill="#D0A94F" d="M888-338h-13v-21h13V-338z M879-342h5v-13h-5V-342z"/>
<rect x="771" y="-319" fill="#D0A94F" width="131" height="4"/>
<rect x="771" y="-299" fill="#D0A94F" width="131" height="4"/>
<rect x="771" y="-278" fill="#D0A94F" width="131" height="4"/>
<g>
	<path fill="#D0A94E" d="M1092-335.511V-331H983v-13h-28v-5h-12v5h-1v17h1v5h12v-5h11v64h37.49l11.075,18H1065v-18h27v3.1l33,19.079
		v-118.826L1092-335.511z M947-345h4v1h-4V-345z M947-340h4v9h-4V-340z M951-326h-4v-1h4V-326z M955-331v-9h24v9h-12.396H955z
		 M1061-249h-44.212l-8.586-14H1061V-249z M1066.41-267h-65.409H970v-60h14.172H1092v60H1066.41z M1121-247.827l-25-14.356v-1.846
		v-68.242v-1.235l25-18.161V-247.827z"/>
	<rect x="981" y="-274" fill="#D0A94E" width="52" height="4"/>
	<rect x="975" y="-284" fill="#D0A94E" width="32" height="4"/>
	<rect x="1113" y="-338" fill="#D0A94E" width="4" height="82"/>
</g>
<g>
	<path fill="none" stroke="#D0A94F" stroke-width="8" stroke-linecap="round" stroke-linejoin="round" stroke-miterlimit="10" d="
		M329.336,49.819h11.578v37.588c0,0,0,5.249,5.249,5.249c4.571,0,5.249-3.556,5.249-5.249s0-38.942,0-38.942h10.884v103.801h-75.177
		V48.465h31.83l-0.111,15.698v12.588c0,0,0,5.249,5.25,5.249c4.57,0,5.248-3.556,5.248-5.249s0-13.942,0-13.942V49.819z"/>
	
		<line fill="none" stroke="#D0A94F" stroke-width="8" stroke-linecap="round" stroke-linejoin="round" stroke-miterlimit="10" x1="362.296" y1="51.399" x2="354.846" y2="51.399"/>
	
		<line fill="none" stroke="#D0A94F" stroke-width="8" stroke-linecap="round" stroke-linejoin="round" stroke-miterlimit="10" x1="288.7" y1="141.131" x2="362.042" y2="141.131"/>
	<path fill="none" stroke="#D0A94F" stroke-width="8" stroke-linecap="round" stroke-linejoin="round" stroke-miterlimit="10" d="
		M290.957,146.896"/>
	<path fill="none" stroke="#D0A94F" stroke-width="8" stroke-linecap="round" stroke-linejoin="round" stroke-miterlimit="10" d="
		M358.909,146.896"/>
	<path fill="none" stroke="#D0A94F" stroke-width="8" stroke-linecap="round" stroke-linejoin="round" stroke-miterlimit="10" d="
		M287.362,48.465"/>
	<path fill="none" stroke="#D0A94F" stroke-width="8" stroke-linecap="round" stroke-linejoin="round" stroke-miterlimit="10" d="
		M287.119,48.465"/>
	<path fill="none" stroke="#D0A94F" stroke-width="8" stroke-linecap="round" stroke-linejoin="round" stroke-miterlimit="10" d="
		M287.119,48.465"/>
	<path fill="none" stroke="#D0A94F" stroke-width="8" stroke-linecap="round" stroke-linejoin="round" stroke-miterlimit="10" d="
		M310.146,30.009"/>
	<path fill="none" stroke="#D0A94F" stroke-width="8" stroke-linecap="round" stroke-linejoin="round" stroke-miterlimit="10" d="
		M338.592,28.176"/>
	<path fill="none" stroke="#D0A94F" stroke-width="8" stroke-linecap="round" stroke-linejoin="round" stroke-miterlimit="10" d="
		M362.042,48.809"/>
	<path fill="none" stroke="#D0A94F" stroke-width="8" stroke-linecap="round" stroke-linejoin="round" stroke-miterlimit="10" d="
		M362.949,50.119c0,0,5.221-2.319,5.221-11.206s-9.184-9.184-9.184-9.184c-2.002-3.113-4.392-7.597-9.287-7.597
		c-9.666,0-11,6.721-11,6.721c0-7.138-2.709-15.229-13.992-15.221c-9.626,0.007-13.336,12.115-13.336,12.115
		c-3.172-20.615-29.172-11.201-22.671,3.105c0,0-11.251-1.471-13.585,8.396c-3.469,14.668,7.668,17.689,13.668,12.87"/>
	
		<line fill="none" stroke="#D0A94F" stroke-width="8" stroke-linecap="round" stroke-linejoin="round" stroke-miterlimit="10" x1="301.567" y1="70.396" x2="301.567" y2="137.131"/>
	
		<line fill="none" stroke="#D0A94F" stroke-width="8" stroke-linecap="round" stroke-linejoin="round" stroke-miterlimit="10" x1="329.336" y1="102.901" x2="329.336" y2="136.454"/>
	
		<line fill="none" stroke="#D0A94F" stroke-width="8" stroke-linecap="round" stroke-linejoin="round" stroke-miterlimit="10" x1="352.814" y1="114.471" x2="352.814" y2="136.454"/>
</g>
<polygon fill="none" stroke="#D0A94F" stroke-width="8" stroke-linecap="round" stroke-linejoin="round" stroke-miterlimit="10" points="
	213.127,137.556 180.47,118.274 180.47,33.542 213.127,9.15 "/>
<rect x="34.285" y="38.43" fill="none" stroke="#D0A94F" stroke-width="8" stroke-linecap="round" stroke-linejoin="round" stroke-miterlimit="10" width="146.185" height="74.092"/>
<polygon fill="none" stroke="#D0A94F" stroke-width="8" stroke-linecap="round" stroke-linejoin="round" stroke-miterlimit="10" points="
	144.783,133.049 88.576,133.049 75.803,112.521 144.783,112.521 "/>
<rect x="7.459" y="23.189" fill="none" stroke="#D0A94F" stroke-width="8" stroke-linecap="round" stroke-linejoin="round" stroke-miterlimit="10" width="42.475" height="15.24"/>
<rect x="5.996" y="17.08" fill="none" stroke="#D0A94F" stroke-width="8" stroke-linecap="round" stroke-linejoin="round" stroke-miterlimit="10" width="8.979" height="26.187"/>
<line fill="none" stroke="#D0A94F" stroke-width="8" stroke-linecap="round" stroke-linejoin="round" stroke-miterlimit="10" x1="53.934" y1="99.45" x2="113.949" y2="99.45"/>
<line fill="none" stroke="#D0A94F" stroke-width="8" stroke-linecap="round" stroke-linejoin="round" stroke-miterlimit="10" x1="46.782" y1="87.816" x2="83.941" y2="87.816"/>
<line fill="none" stroke="#D0A94F" stroke-width="8" stroke-linecap="round" stroke-linejoin="round" stroke-miterlimit="10" x1="200.115" y1="35.854" x2="200.115" y2="109.901"/>
<rect x="440.692" y="-16.26" fill="none" stroke="#D0A94F" stroke-width="8" stroke-linecap="round" stroke-linejoin="round" stroke-miterlimit="10" width="117.354" height="195.413"/>
<line fill="none" stroke="#D0A94F" stroke-width="8" stroke-linecap="round" stroke-linejoin="round" stroke-miterlimit="10" x1="440.692" y1="161.627" x2="558.047" y2="161.627"/>
<circle fill="#EBB44A" stroke="#D0A94F" stroke-miterlimit="10" cx="499.37" cy="170.788" r="2.116"/>
<polyline fill="none" stroke="#D0A94F" stroke-width="8" stroke-linecap="round" stroke-linejoin="round" stroke-miterlimit="10" points="
	463.594,-5.436 546.432,-5.436 546.432,151.081 "/>
<polyline fill="none" stroke="#D0A94F" stroke-width="8" stroke-linecap="round" stroke-linejoin="round" stroke-miterlimit="10" points="
	454.025,70.879 454.025,150.133 488.275,150.133 "/>
<line fill="none" stroke="#D0A94F" stroke-width="8" stroke-linecap="round" stroke-linejoin="round" stroke-miterlimit="10" x1="481.565" y1="50.065" x2="506.628" y2="25.004"/>
<line fill="none" stroke="#D0A94F" stroke-width="8" stroke-linecap="round" stroke-linejoin="round" stroke-miterlimit="10" x1="473.579" y1="88.19" x2="525.161" y2="36.607"/>
<line fill="none" stroke="#D0A94F" stroke-width="8" stroke-linecap="round" stroke-linejoin="round" stroke-miterlimit="10" x1="488.454" y1="109.778" x2="524.801" y2="73.431"/>
<path fill="none" stroke="#D0A94F" stroke-width="8" stroke-linecap="round" stroke-linejoin="round" stroke-miterlimit="10" d="
	M377.074,37.249"/>
<path fill="none" stroke="#D0A94F" stroke-width="8" stroke-linecap="round" stroke-linejoin="round" stroke-miterlimit="10" d="
	M290.957,30.009"/>
<path fill="none" stroke="#D0A94F" stroke-width="8" stroke-linecap="round" stroke-linejoin="round" stroke-miterlimit="10" d="
	M721.976-80.684v-68.772c0-3.353-2.715-6.069-6.064-6.069c-3.351,0-6.067,2.717-6.067,6.069v67.84h-9.514v-67.84
	c0-3.353-2.715-6.069-6.068-6.069c-3.351,0-6.065,2.717-6.065,6.069v67.84h-9.515v-67.84c0-3.353-2.719-6.069-6.066-6.069
	c-3.352,0-6.068,2.717-6.068,6.069v67.84h-9.512v-67.84c0-3.353-2.717-6.069-6.068-6.069c-3.35,0-6.068,2.717-6.068,6.069v69.021
	c-3.322,1.676-5.583,4.963-5.583,8.75v57.363c0,5.483,4.742,9.93,10.594,9.93h20.03v161.798c0,7.392,5.991,13.383,13.383,13.383
	c7.391,0,13.38-5.991,13.38-13.383V-4.393h20.82c5.852,0,10.593-4.446,10.593-9.93v-57.363
	C728.115-75.674,725.602-79.107,721.976-80.684z"/>
<path fill="none" stroke="#D0A94F" stroke-width="8" stroke-linecap="round" stroke-linejoin="round" stroke-miterlimit="10" d="
	M845.656-78.882c0-42.329-21.786-76.644-48.663-76.644s-48.663,34.314-48.663,76.644c0,34.785,14.717,64.14,34.875,73.505v162.376
	c0,7.616,6.174,13.789,13.789,13.789s13.788-6.173,13.788-13.789V-5.377C830.939-14.744,845.656-44.097,845.656-78.882z"/>
</svg>
