<?xml version="1.0" encoding="utf-8"?>
<!-- Generator: Adobe Illustrator 16.0.0, SVG Export Plug-In . SVG Version: 6.00 Build 0)  -->
<!DOCTYPE svg PUBLIC "-//W3C//DTD SVG 1.1//EN" "http://www.w3.org/Graphics/SVG/1.1/DTD/svg11.dtd">
<svg version="1.1" id="Calque_1" xmlns="http://www.w3.org/2000/svg" xmlns:xlink="http://www.w3.org/1999/xlink" x="0px" y="0px"
	 width="195px" height="119px" viewBox="0 0 195 119" enable-background="new 0 0 195 119" xml:space="preserve">
<path fill="#D0A94F" d="M-518.002-43.667C-573.229-43.667-618,1.105-618,56.329c0,55.234,44.771,100,99.998,100
	c55.229,0,100.002-44.766,100.002-100C-418,1.105-462.773-43.667-518.002-43.667z M-495.921,39.4l-1.152,14.957h-15.337v51.974
	h-19.377V54.357h-10.338V39.4h10.338V29.35c0-4.424,0.111-11.258,3.33-15.498c3.391-4.477,8.044-7.522,16.047-7.522
	c13.044,0,18.536,1.864,18.536,1.864l-2.584,15.311c0,0-4.31-1.245-8.329-1.245c-4.022,0-7.623,1.442-7.623,5.461V39.4H-495.921z"/>
<g>
	<path fill="#D0A94F" d="M-254.073,43.636c-0.1-3.791-0.245-7.59-0.63-11.362c-0.856-8.453-5.887-14.28-14.22-15.858
		c-4.445-0.84-9.062-0.957-13.609-1.041c-8.322-0.156-16.653-0.136-24.978-0.007c-4.299,0.065-8.637,0.218-12.87,0.877
		c-7.229,1.122-12.169,5.268-14.166,12.438c-0.638,2.297-1.015,4.732-1.07,7.118c-0.215,9.051-0.348,18.106-0.316,27.162
		c0.02,5.759,0.151,11.538,0.653,17.274c0.739,8.483,5.814,14.293,14.143,15.893c4.48,0.86,9.136,0.969,13.72,1.057
		c8.288,0.157,16.582,0.107,24.87,0.018c3.864-0.043,7.737-0.255,11.581-0.637c3.563-0.347,6.896-1.516,9.761-3.79
		c4.645-3.693,6.437-8.783,6.709-14.429c0.37-7.616,0.446-15.25,0.648-22.875c-0.067-0.002-0.136-0.004-0.204-0.004
		C-254.052,51.524-253.97,47.58-254.073,43.636z M-295.078,81.958c-14.26-0.004-25.604-11.468-25.597-25.865
		c0.004-14.185,11.538-25.501,25.97-25.486c14.089,0.016,25.396,11.584,25.378,25.972C-269.344,70.588-280.884,81.96-295.078,81.958
		z M-268.363,35.641c-3.34-0.06-6.059-2.841-5.994-6.125c0.063-3.347,2.766-5.95,6.152-5.918c3.372,0.027,5.93,2.688,5.889,6.125
		C-262.353,32.999-265.111,35.696-268.363,35.641z"/>
	<path fill="#D0A94F" d="M-295.023,39.625c-9.153,0.027-16.65,7.543-16.635,16.679c0.016,9.14,7.552,16.657,16.679,16.638
		c9.143-0.02,16.653-7.55,16.636-16.682C-278.361,47.118-285.903,39.595-295.023,39.625z"/>
	<path fill="#D0A94F" d="M-295-43.667c-55.229,0-100,44.77-100,99.996c0,55.231,44.771,100,100,100c55.227,0,100-44.769,100-100
		C-195,1.103-239.773-43.667-295-43.667z M-245.1,72.037c-0.059,5.253-0.232,10.521-1.982,15.566
		c-3.352,9.676-10.16,15.551-20.11,17.463c-4.516,0.866-9.206,0.958-13.826,1.143c-4.666,0.183-9.346,0.038-14.021,0.038
		c0,0.048,0,0.095,0,0.141c-6.754-0.119-13.509-0.181-20.258-0.374c-5.828-0.167-11.479-1.222-16.535-4.328
		c-6.631-4.07-10.677-10.05-11.969-17.648c-0.771-4.542-1.043-9.21-1.116-13.828c-0.15-9.892-0.09-19.792,0.018-29.686
		c0.057-5.248,0.23-10.52,1.982-15.566c3.35-9.675,10.16-15.547,20.108-17.46c4.517-0.867,9.208-1.06,13.824-1.13
		c9.931-0.152,19.865-0.094,29.796,0.016c5.214,0.055,10.446,0.231,15.459,1.961c9.719,3.357,15.621,10.18,17.521,20.181
		c0.855,4.521,1.053,9.208,1.123,13.827C-244.935,52.245-244.993,62.145-245.1,72.037z"/>
</g>
<path fill="#D0A94F" d="M-53.26,148.084h-119.203V-47.083H-53.26V148.084z M-167.463,143.084H-58.26V-42.083h-109.203V143.084z"/>
<rect x="-169.963" y="125.943" fill="#D0A94F" width="114.203" height="5"/>
<path fill="#D0A94F" d="M-112.861,145.026c-4.406,0-7.991-3.585-7.991-7.991s3.585-7.99,7.991-7.99s7.991,3.584,7.991,7.99
	S-108.455,145.026-112.861,145.026z M-112.861,134.045c-1.649,0-2.991,1.342-2.991,2.99c0,1.649,1.342,2.991,2.991,2.991
	s2.991-1.342,2.991-2.991C-109.87,135.387-111.212,134.045-112.861,134.045z"/>
<polygon fill="#D0A94F" points="-60.085,115.397 -65.085,115.397 -65.085,-34.417 -143.199,-34.417 -143.199,-39.417 
	-60.085,-39.417 "/>
<polygon fill="#D0A94F" points="-130.021,124.873 -165.853,124.873 -165.853,45.247 -160.853,45.247 -160.853,119.873 
	-130.021,119.873 "/>
<rect x="-125.158" y="-20.824" transform="matrix(0.7071 0.7071 -0.7071 0.7071 -33.7913 87.6166)" fill="#D0A94F" width="4.999" height="47.686"/>
<rect x="-118.524" y="-14.191" transform="matrix(0.7071 0.7071 -0.7071 0.7071 -13.3539 90.5864)" fill="#D0A94F" width="4.999" height="86.729"/>
<rect x="-108.299" y="41.467" transform="matrix(0.7071 0.7071 -0.7071 0.7071 19.9408 95.9064)" fill="#D0A94F" width="4.999" height="61.113"/>
<rect x="6" y="4" fill="none" stroke="#D0A94F" stroke-width="8" stroke-linecap="round" stroke-linejoin="round" stroke-miterlimit="10" width="184" height="111"/>
<polyline fill="none" stroke="#D0A94F" stroke-width="8" stroke-linecap="round" stroke-linejoin="round" stroke-miterlimit="10" points="
	9.22,4.618 81.899,78 89,78 "/>
<rect x="106" y="70" fill="none" stroke="#D0A94F" stroke-width="8" stroke-linecap="round" stroke-linejoin="round" stroke-miterlimit="10" width="13" height="11"/>
<rect x="124" y="54" fill="none" stroke="#D0A94F" stroke-width="8" stroke-linecap="round" stroke-linejoin="round" stroke-miterlimit="10" width="12" height="12"/>
<rect x="137" y="39" fill="none" stroke="#D0A94F" stroke-width="8" stroke-linecap="round" stroke-linejoin="round" stroke-miterlimit="10" width="11" height="12"/>
<rect x="151" y="24" fill="none" stroke="#D0A94F" stroke-width="8" stroke-linecap="round" stroke-linejoin="round" stroke-miterlimit="10" width="11" height="11"/>
<path fill="#D0A94F" d="M454-12H261v-118h193V-12z M265-16h185v-110H265V-16z"/>
<path fill="#D0A94F" d="M314-109h-13v-21h13V-109z M305-113h5v-13h-5V-113z"/>
<path fill="#D0A94F" d="M346-109h-13v-21h13V-109z M337-113h5v-13h-5V-113z"/>
<path fill="#D0A94F" d="M377-109h-13v-21h13V-109z M368-113h5v-13h-5V-113z"/>
<path fill="#D0A94F" d="M409-109h-13v-21h13V-109z M400-113h5v-13h-5V-113z"/>
<rect x="292" y="-90" fill="#D0A94F" width="131" height="4"/>
<rect x="292" y="-70" fill="#D0A94F" width="131" height="4"/>
<rect x="292" y="-49" fill="#D0A94F" width="131" height="4"/>
<g>
	<path fill="#D0A94E" d="M618,23.489V28H509V15h-28v-5h-12v5h-1v17h1v5h12v-5h11v64h37.49l11.075,18H591V96h27v3.1l33,19.079V-0.647
		L618,23.489z M473,14h4v1h-4V14z M473,19h4v9h-4V19z M477,33h-4v-1h4V33z M481,28v-9h24v9h-12.396H481z M587,110h-44.212l-8.586-14
		H587V110z M592.41,92h-65.409H496V32h14.172H618v60H592.41z M647,111.173l-25-14.356v-1.846V26.729v-1.235l25-18.161V111.173z"/>
	<rect x="507" y="85" fill="#D0A94E" width="52" height="4"/>
	<rect x="501" y="75" fill="#D0A94E" width="32" height="4"/>
	<rect x="639" y="21" fill="#D0A94E" width="4" height="82"/>
</g>
<g>
	<path fill="none" stroke="#D0A94F" stroke-width="8" stroke-linecap="round" stroke-linejoin="round" stroke-miterlimit="10" d="
		M-144.664,408.819h11.578v37.588c0,0,0,5.249,5.249,5.249c4.571,0,5.249-3.556,5.249-5.249s0-38.942,0-38.942h10.884v103.801
		h-75.177V407.465h31.83l-0.111,15.698v12.588c0,0,0,5.249,5.25,5.249c4.57,0,5.248-3.556,5.248-5.249s0-13.942,0-13.942V408.819z"
		/>
	
		<line fill="none" stroke="#D0A94F" stroke-width="8" stroke-linecap="round" stroke-linejoin="round" stroke-miterlimit="10" x1="-111.704" y1="410.399" x2="-119.154" y2="410.399"/>
	
		<line fill="none" stroke="#D0A94F" stroke-width="8" stroke-linecap="round" stroke-linejoin="round" stroke-miterlimit="10" x1="-185.3" y1="500.131" x2="-111.958" y2="500.131"/>
	<path fill="none" stroke="#D0A94F" stroke-width="8" stroke-linecap="round" stroke-linejoin="round" stroke-miterlimit="10" d="
		M-183.043,505.896"/>
	<path fill="none" stroke="#D0A94F" stroke-width="8" stroke-linecap="round" stroke-linejoin="round" stroke-miterlimit="10" d="
		M-115.091,505.896"/>
	<path fill="none" stroke="#D0A94F" stroke-width="8" stroke-linecap="round" stroke-linejoin="round" stroke-miterlimit="10" d="
		M-186.638,407.465"/>
	<path fill="none" stroke="#D0A94F" stroke-width="8" stroke-linecap="round" stroke-linejoin="round" stroke-miterlimit="10" d="
		M-186.881,407.465"/>
	<path fill="none" stroke="#D0A94F" stroke-width="8" stroke-linecap="round" stroke-linejoin="round" stroke-miterlimit="10" d="
		M-186.881,407.465"/>
	<path fill="none" stroke="#D0A94F" stroke-width="8" stroke-linecap="round" stroke-linejoin="round" stroke-miterlimit="10" d="
		M-163.854,389.009"/>
	<path fill="none" stroke="#D0A94F" stroke-width="8" stroke-linecap="round" stroke-linejoin="round" stroke-miterlimit="10" d="
		M-135.408,387.176"/>
	<path fill="none" stroke="#D0A94F" stroke-width="8" stroke-linecap="round" stroke-linejoin="round" stroke-miterlimit="10" d="
		M-111.958,407.809"/>
	<path fill="none" stroke="#D0A94F" stroke-width="8" stroke-linecap="round" stroke-linejoin="round" stroke-miterlimit="10" d="
		M-111.051,409.119c0,0,5.221-2.319,5.221-11.206s-9.184-9.184-9.184-9.184c-2.002-3.113-4.392-7.597-9.287-7.597
		c-9.666,0-11,6.721-11,6.721c0-7.138-2.709-15.229-13.992-15.221c-9.626,0.007-13.336,12.115-13.336,12.115
		c-3.172-20.615-29.172-11.201-22.671,3.105c0,0-11.251-1.471-13.585,8.396c-3.469,14.668,7.668,17.689,13.668,12.87"/>
	
		<line fill="none" stroke="#D0A94F" stroke-width="8" stroke-linecap="round" stroke-linejoin="round" stroke-miterlimit="10" x1="-172.433" y1="429.396" x2="-172.433" y2="496.131"/>
	
		<line fill="none" stroke="#D0A94F" stroke-width="8" stroke-linecap="round" stroke-linejoin="round" stroke-miterlimit="10" x1="-144.664" y1="461.901" x2="-144.664" y2="495.454"/>
	
		<line fill="none" stroke="#D0A94F" stroke-width="8" stroke-linecap="round" stroke-linejoin="round" stroke-miterlimit="10" x1="-121.186" y1="473.471" x2="-121.186" y2="495.454"/>
</g>
<polygon fill="none" stroke="#D0A94F" stroke-width="8" stroke-linecap="round" stroke-linejoin="round" stroke-miterlimit="10" points="
	-260.873,496.556 -293.53,477.274 -293.53,392.542 -260.873,368.15 "/>
<rect x="-439.715" y="397.43" fill="none" stroke="#D0A94F" stroke-width="8" stroke-linecap="round" stroke-linejoin="round" stroke-miterlimit="10" width="146.185" height="74.092"/>
<polygon fill="none" stroke="#D0A94F" stroke-width="8" stroke-linecap="round" stroke-linejoin="round" stroke-miterlimit="10" points="
	-329.217,492.049 -385.424,492.049 -398.197,471.521 -329.217,471.521 "/>
<rect x="-466.541" y="382.189" fill="none" stroke="#D0A94F" stroke-width="8" stroke-linecap="round" stroke-linejoin="round" stroke-miterlimit="10" width="42.475" height="15.24"/>
<rect x="-468.004" y="376.08" fill="none" stroke="#D0A94F" stroke-width="8" stroke-linecap="round" stroke-linejoin="round" stroke-miterlimit="10" width="8.979" height="26.187"/>
<line fill="none" stroke="#D0A94F" stroke-width="8" stroke-linecap="round" stroke-linejoin="round" stroke-miterlimit="10" x1="-420.066" y1="458.45" x2="-360.051" y2="458.45"/>
<line fill="none" stroke="#D0A94F" stroke-width="8" stroke-linecap="round" stroke-linejoin="round" stroke-miterlimit="10" x1="-427.218" y1="446.816" x2="-390.059" y2="446.816"/>
<line fill="none" stroke="#D0A94F" stroke-width="8" stroke-linecap="round" stroke-linejoin="round" stroke-miterlimit="10" x1="-273.885" y1="394.854" x2="-273.885" y2="468.901"/>
<rect x="-33.308" y="342.74" fill="none" stroke="#D0A94F" stroke-width="8" stroke-linecap="round" stroke-linejoin="round" stroke-miterlimit="10" width="117.354" height="195.413"/>
<line fill="none" stroke="#D0A94F" stroke-width="8" stroke-linecap="round" stroke-linejoin="round" stroke-miterlimit="10" x1="-33.308" y1="520.627" x2="84.047" y2="520.627"/>
<circle fill="#EBB44A" stroke="#D0A94F" stroke-miterlimit="10" cx="25.37" cy="529.788" r="2.116"/>
<polyline fill="none" stroke="#D0A94F" stroke-width="8" stroke-linecap="round" stroke-linejoin="round" stroke-miterlimit="10" points="
	-10.406,353.564 72.432,353.564 72.432,510.081 "/>
<polyline fill="none" stroke="#D0A94F" stroke-width="8" stroke-linecap="round" stroke-linejoin="round" stroke-miterlimit="10" points="
	-19.975,429.879 -19.975,509.133 14.275,509.133 "/>
<line fill="none" stroke="#D0A94F" stroke-width="8" stroke-linecap="round" stroke-linejoin="round" stroke-miterlimit="10" x1="7.565" y1="409.065" x2="32.628" y2="384.004"/>
<line fill="none" stroke="#D0A94F" stroke-width="8" stroke-linecap="round" stroke-linejoin="round" stroke-miterlimit="10" x1="-0.421" y1="447.19" x2="51.161" y2="395.607"/>
<line fill="none" stroke="#D0A94F" stroke-width="8" stroke-linecap="round" stroke-linejoin="round" stroke-miterlimit="10" x1="14.454" y1="468.778" x2="50.801" y2="432.431"/>
<path fill="none" stroke="#D0A94F" stroke-width="8" stroke-linecap="round" stroke-linejoin="round" stroke-miterlimit="10" d="
	M-96.926,396.249"/>
<path fill="none" stroke="#D0A94F" stroke-width="8" stroke-linecap="round" stroke-linejoin="round" stroke-miterlimit="10" d="
	M-183.043,389.009"/>
<path fill="none" stroke="#D0A94F" stroke-width="8" stroke-linecap="round" stroke-linejoin="round" stroke-miterlimit="10" d="
	M247.976,278.316v-68.772c0-3.353-2.715-6.069-6.064-6.069c-3.351,0-6.067,2.717-6.067,6.069v67.84h-9.514v-67.84
	c0-3.353-2.715-6.069-6.068-6.069c-3.351,0-6.065,2.717-6.065,6.069v67.84h-9.515v-67.84c0-3.353-2.719-6.069-6.066-6.069
	c-3.352,0-6.068,2.717-6.068,6.069v67.84h-9.512v-67.84c0-3.353-2.717-6.069-6.068-6.069c-3.35,0-6.068,2.717-6.068,6.069v69.021
	c-3.322,1.676-5.583,4.963-5.583,8.75v57.363c0,5.483,4.742,9.93,10.594,9.93h20.03v161.798c0,7.392,5.991,13.383,13.383,13.383
	c7.391,0,13.38-5.991,13.38-13.383V354.607h20.82c5.852,0,10.593-4.446,10.593-9.93v-57.363
	C254.115,283.326,251.602,279.893,247.976,278.316z"/>
<path fill="none" stroke="#D0A94F" stroke-width="8" stroke-linecap="round" stroke-linejoin="round" stroke-miterlimit="10" d="
	M371.656,280.118c0-42.329-21.786-76.644-48.663-76.644s-48.663,34.314-48.663,76.644c0,34.785,14.717,64.14,34.875,73.505v162.376
	c0,7.616,6.174,13.789,13.789,13.789s13.788-6.173,13.788-13.789V353.623C356.939,344.256,371.656,314.903,371.656,280.118z"/>
<line fill="none" stroke="#D0A94F" stroke-width="8" stroke-linecap="round" stroke-linejoin="round" stroke-miterlimit="10" x1="301" y1="49" x2="431" y2="49"/>
<line fill="none" stroke="#D0A94F" stroke-width="8" stroke-linecap="round" stroke-linejoin="round" stroke-miterlimit="10" x1="301" y1="67" x2="431" y2="67"/>
<line fill="none" stroke="#D0A94F" stroke-width="8" stroke-linecap="round" stroke-linejoin="round" stroke-miterlimit="10" x1="301" y1="85" x2="431" y2="85"/>
<rect x="270" y="4" fill="none" stroke="#D0A94F" stroke-width="8" stroke-linecap="round" stroke-linejoin="round" stroke-miterlimit="10" width="185" height="111"/>
<line fill="none" stroke="#D0A94F" stroke-width="8" stroke-linecap="round" stroke-linejoin="round" stroke-miterlimit="10" x1="317" y1="6" x2="317" y2="23"/>
<line fill="none" stroke="#D0A94F" stroke-width="8" stroke-linecap="round" stroke-linejoin="round" stroke-miterlimit="10" x1="350" y1="6" x2="350" y2="23"/>
<line fill="none" stroke="#D0A94F" stroke-width="8" stroke-linecap="round" stroke-linejoin="round" stroke-miterlimit="10" x1="383" y1="6" x2="383" y2="23"/>
<line fill="none" stroke="#D0A94F" stroke-width="8" stroke-linecap="round" stroke-linejoin="round" stroke-miterlimit="10" x1="416" y1="6" x2="416" y2="23"/>
</svg>
