<svg xmlns="http://www.w3.org/2000/svg" width="195" height="119" viewBox="0 0 195 119"><style>.a{fill:#D0A94F;}.b{fill:none;stroke-linejoin:round;stroke-width:8;stroke:#D0A94F;}.c{fill:#D0A94E;}</style><path d="M-518-43.7C-573.2-43.7-618 1.1-618 56.3c0 55.2 44.8 100 100 100 55.2 0 100-44.8 100-100C-418 1.1-462.8-43.7-518-43.7zM-495.9 39.4l-1.2 15h-15.3v52h-19.4V54.4h-10.3V39.4h10.3V29.4c0-4.4 0.1-11.3 3.3-15.5 3.4-4.5 8-7.5 16-7.5 13 0 18.5 1.9 18.5 1.9l-2.6 15.3c0 0-4.3-1.2-8.3-1.2 -4 0-7.6 1.4-7.6 5.5V39.4H-495.9z" class="a"/><path d="M-254.1 43.6c-0.1-3.8-0.2-7.6-0.6-11.4 -0.9-8.5-5.9-14.3-14.2-15.9 -4.4-0.8-9.1-1-13.6-1 -8.3-0.2-16.7-0.1-25 0 -4.3 0.1-8.6 0.2-12.9 0.9 -7.2 1.1-12.2 5.3-14.2 12.4 -0.6 2.3-1 4.7-1.1 7.1 -0.2 9.1-0.3 18.1-0.3 27.2 0 5.8 0.2 11.5 0.7 17.3 0.7 8.5 5.8 14.3 14.1 15.9 4.5 0.9 9.1 1 13.7 1.1 8.3 0.2 16.6 0.1 24.9 0 3.9 0 7.7-0.3 11.6-0.6 3.6-0.3 6.9-1.5 9.8-3.8 4.6-3.7 6.4-8.8 6.7-14.4 0.4-7.6 0.4-15.2 0.6-22.9 -0.1 0-0.1 0-0.2 0C-254.1 51.5-254 47.6-254.1 43.6zM-295.1 82c-14.3 0-25.6-11.5-25.6-25.9 0-14.2 11.5-25.5 26-25.5 14.1 0 25.4 11.6 25.4 26C-269.3 70.6-280.9 82-295.1 82zM-268.4 35.6c-3.3-0.1-6.1-2.8-6-6.1 0.1-3.3 2.8-5.9 6.2-5.9 3.4 0 5.9 2.7 5.9 6.1C-262.4 33-265.1 35.7-268.4 35.6z" class="a"/><path d="M-295 39.6c-9.2 0-16.6 7.5-16.6 16.7 0 9.1 7.6 16.7 16.7 16.6 9.1 0 16.7-7.5 16.6-16.7C-278.4 47.1-285.9 39.6-295 39.6z" class="a"/><path d="M-295-43.7c-55.2 0-100 44.8-100 100 0 55.2 44.8 100 100 100 55.2 0 100-44.8 100-100C-195 1.1-239.8-43.7-295-43.7zM-245.1 72c-0.1 5.3-0.2 10.5-2 15.6 -3.4 9.7-10.2 15.6-20.1 17.5 -4.5 0.9-9.2 1-13.8 1.1 -4.7 0.2-9.3 0-14 0 0 0 0 0.1 0 0.1 -6.8-0.1-13.5-0.2-20.3-0.4 -5.8-0.2-11.5-1.2-16.5-4.3 -6.6-4.1-10.7-10-12-17.6 -0.8-4.5-1-9.2-1.1-13.8 -0.1-9.9-0.1-19.8 0-29.7 0.1-5.2 0.2-10.5 2-15.6 3.4-9.7 10.2-15.5 20.1-17.5 4.5-0.9 9.2-1.1 13.8-1.1 9.9-0.2 19.9-0.1 29.8 0 5.2 0.1 10.4 0.2 15.5 2 9.7 3.4 15.6 10.2 17.5 20.2 0.9 4.5 1.1 9.2 1.1 13.8C-244.9 52.2-245 62.1-245.1 72z" class="a"/><path d="M-53.3 148.1h-119.2V-47.1H-53.3V148.1zM-167.5 143.1H-58.3V-42.1h-109.2V143.1z" class="a"/><rect x="-170" y="125.9" width="114.2" height="5" class="a"/><path d="M-112.9 145c-4.4 0-8-3.6-8-8s3.6-8 8-8 8 3.6 8 8S-108.5 145-112.9 145zM-112.9 134c-1.6 0-3 1.3-3 3 0 1.6 1.3 3 3 3s3-1.3 3-3C-109.9 135.4-111.2 134-112.9 134z" class="a"/><polygon points="-60.1 115.4 -65.1 115.4 -65.1 -34.4 -143.2 -34.4 -143.2 -39.4 -60.1 -39.4 " class="a"/><polygon points="-130 124.9 -165.9 124.9 -165.9 45.2 -160.9 45.2 -160.9 119.9 -130 119.9 " class="a"/><rect x="-125.2" y="-20.8" transform="matrix(0.7071 0.7071 -0.7071 0.7071 -33.7913 87.6166)" width="5" height="47.7" class="a"/><rect x="-118.5" y="-14.2" transform="matrix(0.7071 0.7071 -0.7071 0.7071 -13.3539 90.5864)" width="5" height="86.7" class="a"/><rect x="-108.3" y="41.5" transform="matrix(0.7071 0.7071 -0.7071 0.7071 19.9408 95.9064)" width="5" height="61.1" class="a"/><rect x="6" y="4" width="184" height="111" class="b"/><polyline points=" 9.2 4.6 81.9 78 89 78 " class="b"/><rect x="106" y="70" width="13" height="11" class="b"/><rect x="124" y="54" width="12" height="12" class="b"/><rect x="137" y="39" width="11" height="12" class="b"/><rect x="151" y="24" width="11" height="11" class="b"/><path d="M454-12H261v-118h193V-12zM265-16h185v-110H265V-16z" class="a"/><path d="M314-109h-13v-21h13V-109zM305-113h5v-13h-5V-113z" class="a"/><path d="M346-109h-13v-21h13V-109zM337-113h5v-13h-5V-113z" class="a"/><path d="M377-109h-13v-21h13V-109zM368-113h5v-13h-5V-113z" class="a"/><path d="M409-109h-13v-21h13V-109zM400-113h5v-13h-5V-113z" class="a"/><rect x="292" y="-90" width="131" height="4" class="a"/><rect x="292" y="-70" width="131" height="4" class="a"/><rect x="292" y="-49" width="131" height="4" class="a"/><path d="M618 23.5V28H509V15h-28v-5h-12v5h-1v17h1v5h12v-5h11v64h37.5l11.1 18H591V96h27v3.1l33 19.1V-0.6L618 23.5zM473 14h4v1h-4V14zM473 19h4v9h-4V19zM477 33h-4v-1h4V33zM481 28v-9h24v9h-12.4H481zM587 110h-44.2l-8.6-14H587V110zM592.4 92h-65.4H496V32h14.2H618v60H592.4zM647 111.2l-25-14.4v-1.8V26.7v-1.2l25-18.2V111.2z" class="c"/><rect x="507" y="85" width="52" height="4" class="c"/><rect x="501" y="75" width="32" height="4" class="c"/><rect x="639" y="21" width="4" height="82" class="c"/><path d="M-144.7 408.8h11.6v37.6c0 0 0 5.2 5.2 5.2 4.6 0 5.2-3.6 5.2-5.2s0-38.9 0-38.9h10.9v103.8h-75.2V407.5h31.8l-0.1 15.7v12.6c0 0 0 5.2 5.3 5.2 4.6 0 5.2-3.6 5.2-5.2s0-13.9 0-13.9V408.8z" class="b"/><line x1="-111.7" y1="410.4" x2="-119.2" y2="410.4" class="b"/><line x1="-185.3" y1="500.1" x2="-112" y2="500.1" class="b"/><path d="M-111.1 409.1c0 0 5.2-2.3 5.2-11.2s-9.2-9.2-9.2-9.2c-2-3.1-4.4-7.6-9.3-7.6 -9.7 0-11 6.7-11 6.7 0-7.1-2.7-15.2-14-15.2 -9.6 0-13.3 12.1-13.3 12.1 -3.2-20.6-29.2-11.2-22.7 3.1 0 0-11.3-1.5-13.6 8.4 -3.5 14.7 7.7 17.7 13.7 12.9" class="b"/><line x1="-172.4" y1="429.4" x2="-172.4" y2="496.1" class="b"/><line x1="-144.7" y1="461.9" x2="-144.7" y2="495.5" class="b"/><line x1="-121.2" y1="473.5" x2="-121.2" y2="495.5" class="b"/><polygon points=" -260.9 496.6 -293.5 477.3 -293.5 392.5 -260.9 368.2 " class="b"/><rect x="-439.7" y="397.4" width="146.2" height="74.1" class="b"/><polygon points=" -329.2 492 -385.4 492 -398.2 471.5 -329.2 471.5 " class="b"/><rect x="-466.5" y="382.2" width="42.5" height="15.2" class="b"/><rect x="-468" y="376.1" width="9" height="26.2" class="b"/><line x1="-420.1" y1="458.5" x2="-360.1" y2="458.5" class="b"/><line x1="-427.2" y1="446.8" x2="-390.1" y2="446.8" class="b"/><line x1="-273.9" y1="394.9" x2="-273.9" y2="468.9" class="b"/><rect x="-33.3" y="342.7" width="117.4" height="195.4" class="b"/><line x1="-33.3" y1="520.6" x2="84" y2="520.6" class="b"/><circle cx="25.4" cy="529.8" r="2.1" style="fill:#EBB44A;stroke:#D0A94F"/><polyline points=" -10.4 353.6 72.4 353.6 72.4 510.1 " class="b"/><polyline points=" -20 429.9 -20 509.1 14.3 509.1 " class="b"/><line x1="7.6" y1="409.1" x2="32.6" y2="384" class="b"/><line x1="-0.4" y1="447.2" x2="51.2" y2="395.6" class="b"/><line x1="14.5" y1="468.8" x2="50.8" y2="432.4" class="b"/><path d="M248 278.3v-68.8c0-3.4-2.7-6.1-6.1-6.1 -3.4 0-6.1 2.7-6.1 6.1v67.8h-9.5v-67.8c0-3.4-2.7-6.1-6.1-6.1 -3.4 0-6.1 2.7-6.1 6.1v67.8h-9.5v-67.8c0-3.4-2.7-6.1-6.1-6.1 -3.4 0-6.1 2.7-6.1 6.1v67.8h-9.5v-67.8c0-3.4-2.7-6.1-6.1-6.1 -3.3 0-6.1 2.7-6.1 6.1v69c-3.3 1.7-5.6 5-5.6 8.8v57.4c0 5.5 4.7 9.9 10.6 9.9h20v161.8c0 7.4 6 13.4 13.4 13.4 7.4 0 13.4-6 13.4-13.4V354.6h20.8c5.9 0 10.6-4.4 10.6-9.9v-57.4C254.1 283.3 251.6 279.9 248 278.3z" class="b"/><path d="M371.7 280.1c0-42.3-21.8-76.6-48.7-76.6s-48.7 34.3-48.7 76.6c0 34.8 14.7 64.1 34.9 73.5v162.4c0 7.6 6.2 13.8 13.8 13.8s13.8-6.2 13.8-13.8V353.6C356.9 344.3 371.7 314.9 371.7 280.1z" class="b"/><line x1="301" y1="49" x2="431" y2="49" class="b"/><line x1="301" y1="67" x2="431" y2="67" class="b"/><line x1="301" y1="85" x2="431" y2="85" class="b"/><rect x="270" y="4" width="185" height="111" class="b"/><line x1="317" y1="6" x2="317" y2="23" class="b"/><line x1="350" y1="6" x2="350" y2="23" class="b"/><line x1="383" y1="6" x2="383" y2="23" class="b"/><line x1="416" y1="6" x2="416" y2="23" class="b"/></svg>