<svg xmlns="http://www.w3.org/2000/svg" width="125" height="204" viewBox="0 0 125 203.5"><style>.a{fill:#D0A94F;}.b{fill:none;stroke-linejoin:round;stroke-width:8;stroke:#D0A94F;}.c{fill:#D0A94E;}</style><path d="M-481-382.2c-55.2 0-100 44.8-100 100 0 55.2 44.8 100 100 100 55.2 0 100-44.8 100-100C-381-337.4-425.8-382.2-481-382.2zM-458.9-299.1l-1.2 15h-15.3v52h-19.4v-52h-10.3V-299.1h10.3v-10c0-4.4 0.1-11.3 3.3-15.5 3.4-4.5 8-7.5 16-7.5 13 0 18.5 1.9 18.5 1.9l-2.6 15.3c0 0-4.3-1.2-8.3-1.2 -4 0-7.6 1.4-7.6 5.5v11.7H-458.9z" class="a"/><path d="M-217.1-294.9c-0.1-3.8-0.2-7.6-0.6-11.4 -0.9-8.5-5.9-14.3-14.2-15.9 -4.4-0.8-9.1-1-13.6-1 -8.3-0.2-16.7-0.1-25 0 -4.3 0.1-8.6 0.2-12.9 0.9 -7.2 1.1-12.2 5.3-14.2 12.4 -0.6 2.3-1 4.7-1.1 7.1 -0.2 9.1-0.3 18.1-0.3 27.2 0 5.8 0.2 11.5 0.7 17.3 0.7 8.5 5.8 14.3 14.1 15.9 4.5 0.9 9.1 1 13.7 1.1 8.3 0.2 16.6 0.1 24.9 0 3.9 0 7.7-0.3 11.6-0.6 3.6-0.3 6.9-1.5 9.8-3.8 4.6-3.7 6.4-8.8 6.7-14.4 0.4-7.6 0.4-15.2 0.6-22.9 -0.1 0-0.1 0-0.2 0C-217.1-287-217-290.9-217.1-294.9zM-258.1-256.5c-14.3 0-25.6-11.5-25.6-25.9 0-14.2 11.5-25.5 26-25.5 14.1 0 25.4 11.6 25.4 26C-232.3-267.9-243.9-256.5-258.1-256.5zM-231.4-302.9c-3.3-0.1-6.1-2.8-6-6.1 0.1-3.3 2.8-5.9 6.2-5.9 3.4 0 5.9 2.7 5.9 6.1C-225.4-305.5-228.1-302.8-231.4-302.9z" class="a"/><path d="M-258-298.9c-9.2 0-16.6 7.5-16.6 16.7 0 9.1 7.6 16.7 16.7 16.6 9.1 0 16.7-7.5 16.6-16.7C-241.4-291.4-248.9-298.9-258-298.9z" class="a"/><path d="M-258-382.2c-55.2 0-100 44.8-100 100 0 55.2 44.8 100 100 100 55.2 0 100-44.8 100-100C-158-337.4-202.8-382.2-258-382.2zM-208.1-266.5c-0.1 5.3-0.2 10.5-2 15.6 -3.4 9.7-10.2 15.6-20.1 17.5 -4.5 0.9-9.2 1-13.8 1.1 -4.7 0.2-9.3 0-14 0 0 0 0 0.1 0 0.1 -6.8-0.1-13.5-0.2-20.3-0.4 -5.8-0.2-11.5-1.2-16.5-4.3 -6.6-4.1-10.7-10-12-17.6 -0.8-4.5-1-9.2-1.1-13.8 -0.1-9.9-0.1-19.8 0-29.7 0.1-5.2 0.2-10.5 2-15.6 3.4-9.7 10.2-15.5 20.1-17.5 4.5-0.9 9.2-1.1 13.8-1.1 9.9-0.2 19.9-0.1 29.8 0 5.2 0.1 10.4 0.2 15.5 2 9.7 3.4 15.6 10.2 17.5 20.2 0.9 4.5 1.1 9.2 1.1 13.8C-207.9-286.3-208-276.4-208.1-266.5z" class="a"/><path d="M-16.3-190.4h-119.2v-195.2H-16.3V-190.4zM-130.5-195.4H-21.3v-185.2h-109.2V-195.4z" class="a"/><rect x="-133" y="-212.6" width="114.2" height="5" class="a"/><path d="M-75.9-193.5c-4.4 0-8-3.6-8-8s3.6-8 8-8 8 3.6 8 8S-71.5-193.5-75.9-193.5zM-75.9-204.5c-1.6 0-3 1.3-3 3 0 1.6 1.3 3 3 3s3-1.3 3-3C-72.9-203.1-74.2-204.5-75.9-204.5z" class="a"/><polygon points="-23.1 -223.1 -28.1 -223.1 -28.1 -372.9 -106.2 -372.9 -106.2 -377.9 -23.1 -377.9 " class="a"/><polygon points="-93 -213.6 -128.9 -213.6 -128.9 -293.3 -123.9 -293.3 -123.9 -218.6 -93 -218.6 " class="a"/><rect x="-88.2" y="-359.3" transform="matrix(0.7071 0.7071 -0.7071 0.7071 -262.3099 -37.6907)" width="5" height="47.7" class="a"/><rect x="-81.5" y="-352.7" transform="matrix(0.7071 0.7071 -0.7071 0.7071 -241.8725 -34.7209)" width="5" height="86.7" class="a"/><rect x="-71.3" y="-297" transform="matrix(0.7071 0.7071 -0.7071 0.7071 -208.5777 -29.4009)" width="5" height="61.1" class="a"/><rect x="43" y="-334.5" width="184" height="111" class="b"/><polyline points=" 46.2 -333.9 118.9 -260.5 126 -260.5 " class="b"/><rect x="143" y="-268.5" width="13" height="11" class="b"/><rect x="161" y="-284.5" width="12" height="12" class="b"/><rect x="174" y="-299.5" width="11" height="12" class="b"/><rect x="188" y="-314.5" width="11" height="11" class="b"/><path d="M491-350.5H298v-118h193V-350.5zM302-354.5h185v-110H302V-354.5z" class="a"/><path d="M351-447.5h-13v-21h13V-447.5zM342-451.5h5v-13h-5V-451.5z" class="a"/><path d="M383-447.5h-13v-21h13V-447.5zM374-451.5h5v-13h-5V-451.5z" class="a"/><path d="M414-447.5h-13v-21h13V-447.5zM405-451.5h5v-13h-5V-451.5z" class="a"/><path d="M446-447.5h-13v-21h13V-447.5zM437-451.5h5v-13h-5V-451.5z" class="a"/><rect x="329" y="-428.5" width="131" height="4" class="a"/><rect x="329" y="-408.5" width="131" height="4" class="a"/><rect x="329" y="-387.5" width="131" height="4" class="a"/><path d="M655-315v4.5H546v-13h-28v-5h-12v5h-1v17h1v5h12v-5h11v64h37.5l11.1 18H628v-18h27v3.1l33 19.1v-118.8L655-315zM510-324.5h4v1h-4V-324.5zM510-319.5h4v9h-4V-319.5zM514-305.5h-4v-1h4V-305.5zM518-310.5v-9h24v9h-12.4H518zM624-228.5h-44.2l-8.6-14H624V-228.5zM629.4-246.5h-65.4H533v-60h14.2H655v60H629.4zM684-227.3l-25-14.4v-1.8 -68.2 -1.2l25-18.2V-227.3z" class="c"/><rect x="544" y="-253.5" width="52" height="4" class="c"/><rect x="538" y="-263.5" width="32" height="4" class="c"/><rect x="676" y="-317.5" width="4" height="82" class="c"/><path d="M-107.7 70.3h11.6v37.6c0 0 0 5.2 5.2 5.2 4.6 0 5.2-3.6 5.2-5.2s0-38.9 0-38.9h10.9v103.8h-75.2V69h31.8l-0.1 15.7v12.6c0 0 0 5.2 5.3 5.2 4.6 0 5.2-3.6 5.2-5.2s0-13.9 0-13.9V70.3z" class="b"/><line x1="-74.7" y1="71.9" x2="-82.2" y2="71.9" class="b"/><line x1="-148.3" y1="161.6" x2="-75" y2="161.6" class="b"/><path d="M-74.1 70.6c0 0 5.2-2.3 5.2-11.2s-9.2-9.2-9.2-9.2c-2-3.1-4.4-7.6-9.3-7.6 -9.7 0-11 6.7-11 6.7 0-7.1-2.7-15.2-14-15.2 -9.6 0-13.3 12.1-13.3 12.1 -3.2-20.6-29.2-11.2-22.7 3.1 0 0-11.3-1.5-13.6 8.4 -3.5 14.7 7.7 17.7 13.7 12.9" class="b"/><line x1="-135.4" y1="90.9" x2="-135.4" y2="157.6" class="b"/><line x1="-107.7" y1="123.4" x2="-107.7" y2="157" class="b"/><line x1="-84.2" y1="135" x2="-84.2" y2="157" class="b"/><polygon points=" -223.9 158.1 -256.5 138.8 -256.5 54 -223.9 29.7 " class="b"/><rect x="-402.7" y="58.9" width="146.2" height="74.1" class="b"/><polygon points=" -292.2 153.5 -348.4 153.5 -361.2 133 -292.2 133 " class="b"/><rect x="-429.5" y="43.7" width="42.5" height="15.2" class="b"/><rect x="-431" y="37.6" width="9" height="26.2" class="b"/><line x1="-383.1" y1="120" x2="-323.1" y2="120" class="b"/><line x1="-390.2" y1="108.3" x2="-353.1" y2="108.3" class="b"/><line x1="-236.9" y1="56.4" x2="-236.9" y2="130.4" class="b"/><rect x="3.7" y="4.2" width="117.4" height="195.4" class="b"/><line x1="3.7" y1="182.1" x2="121" y2="182.1" class="b"/><circle cx="62.4" cy="191.3" r="2.1" style="fill:#EBB44A;stroke:#D0A94F"/><polyline points=" 26.6 15.1 109.4 15.1 109.4 171.6 " class="b"/><polyline points=" 17 91.4 17 170.6 51.3 170.6 " class="b"/><line x1="44.6" y1="70.6" x2="69.6" y2="45.5" class="b"/><line x1="36.6" y1="108.7" x2="88.2" y2="57.1" class="b"/><line x1="51.5" y1="130.3" x2="87.8" y2="93.9" class="b"/><path d="M285-60.2v-68.8c0-3.4-2.7-6.1-6.1-6.1 -3.4 0-6.1 2.7-6.1 6.1v67.8h-9.5v-67.8c0-3.4-2.7-6.1-6.1-6.1 -3.4 0-6.1 2.7-6.1 6.1v67.8h-9.5v-67.8c0-3.4-2.7-6.1-6.1-6.1 -3.4 0-6.1 2.7-6.1 6.1v67.8h-9.5v-67.8c0-3.4-2.7-6.1-6.1-6.1 -3.3 0-6.1 2.7-6.1 6.1v69c-3.3 1.7-5.6 5-5.6 8.8V6.2c0 5.5 4.7 9.9 10.6 9.9h20v161.8c0 7.4 6 13.4 13.4 13.4 7.4 0 13.4-6 13.4-13.4V16.1h20.8c5.9 0 10.6-4.4 10.6-9.9v-57.4C291.1-55.2 288.6-58.6 285-60.2z" class="b"/><path d="M408.7-58.4c0-42.3-21.8-76.6-48.7-76.6s-48.7 34.3-48.7 76.6c0 34.8 14.7 64.1 34.9 73.5v162.4c0 7.6 6.2 13.8 13.8 13.8s13.8-6.2 13.8-13.8V15.1C393.9 5.8 408.7-23.6 408.7-58.4z" class="b"/><line x1="338" y1="-289.5" x2="468" y2="-289.5" class="b"/><line x1="338" y1="-271.5" x2="468" y2="-271.5" class="b"/><line x1="338" y1="-253.5" x2="468" y2="-253.5" class="b"/><rect x="307" y="-334.5" width="185" height="111" class="b"/><line x1="354" y1="-332.5" x2="354" y2="-315.5" class="b"/><line x1="387" y1="-332.5" x2="387" y2="-315.5" class="b"/><line x1="420" y1="-332.5" x2="420" y2="-315.5" class="b"/><line x1="453" y1="-332.5" x2="453" y2="-315.5" class="b"/></svg>