<svg xmlns="http://www.w3.org/2000/svg" width="200" height="201" viewBox="0 0 200 201"><title>  Shape</title><desc>  Created with Sketch.</desc><g fill="none"><g fill="#FCF3D8"><path d="M100 0.3C44.8 0.3 0 45.1 0 100.3 0 155.6 44.8 200.3 100 200.3 155.2 200.3 200 155.6 200 100.3 200 45.1 155.2 0.3 100 0.3ZM122.1 83.4L120.9 98.4 105.6 98.4 105.6 150.3 86.2 150.3 86.2 98.4 75.9 98.4 75.9 83.4 86.2 83.4 86.2 73.4C86.2 68.9 86.3 62.1 89.5 57.9 92.9 53.4 97.6 50.3 105.6 50.3 118.6 50.3 124.1 52.2 124.1 52.2L121.5 67.5C121.5 67.5 117.2 66.3 113.2 66.3 109.2 66.3 105.6 67.7 105.6 71.7L105.6 83.4 122.1 83.4Z"/></g></g></svg>