<?xml version="1.0" encoding="utf-8"?>
<!-- Generator: Adobe Illustrator 16.0.0, SVG Export Plug-In . SVG Version: 6.00 Build 0)  -->
<!DOCTYPE svg PUBLIC "-//W3C//DTD SVG 1.1//EN" "http://www.w3.org/Graphics/SVG/1.1/DTD/svg11.dtd">
<svg version="1.1" id="Calque_1" xmlns="http://www.w3.org/2000/svg" xmlns:xlink="http://www.w3.org/1999/xlink" x="0px" y="0px"
	 width="200px" height="200px" viewBox="0 0 200 200" enable-background="new 0 0 200 200" xml:space="preserve">
<path fill="#D0A94F" d="M99.998,0.333C44.771,0.333,0,45.105,0,100.329c0,55.234,44.771,100,99.998,100
	c55.229,0,100.002-44.766,100.002-100C200,45.105,155.227,0.333,99.998,0.333z M122.079,83.4l-1.152,14.957H105.59v51.974H86.213
	V98.357H75.875V83.4h10.338V73.35c0-4.424,0.111-11.258,3.33-15.498c3.391-4.477,8.044-7.522,16.047-7.522
	c13.044,0,18.536,1.864,18.536,1.864l-2.584,15.311c0,0-4.31-1.245-8.329-1.245c-4.022,0-7.623,1.442-7.623,5.461V83.4H122.079z"/>
<g>
	<path fill="#D0A94F" d="M363.927,87.636c-0.1-3.791-0.245-7.59-0.63-11.362c-0.856-8.453-5.887-14.28-14.22-15.858
		c-4.445-0.84-9.062-0.957-13.609-1.041c-8.322-0.156-16.653-0.136-24.978-0.007c-4.299,0.065-8.637,0.218-12.87,0.877
		c-7.229,1.122-12.169,5.268-14.166,12.438c-0.638,2.297-1.015,4.732-1.07,7.118c-0.215,9.051-0.348,18.106-0.316,27.162
		c0.02,5.759,0.151,11.538,0.653,17.274c0.739,8.483,5.814,14.293,14.143,15.893c4.48,0.86,9.136,0.969,13.72,1.057
		c8.288,0.157,16.582,0.107,24.87,0.018c3.864-0.043,7.737-0.255,11.581-0.637c3.563-0.347,6.896-1.516,9.761-3.79
		c4.645-3.693,6.437-8.783,6.709-14.429c0.37-7.616,0.446-15.25,0.648-22.875c-0.067-0.002-0.136-0.004-0.204-0.004
		C363.948,95.524,364.03,91.58,363.927,87.636z M322.922,125.958c-14.26-0.004-25.604-11.468-25.597-25.865
		c0.004-14.185,11.538-25.501,25.97-25.486c14.089,0.016,25.396,11.584,25.378,25.972
		C348.656,114.588,337.116,125.96,322.922,125.958z M349.637,79.641c-3.34-0.06-6.059-2.841-5.994-6.125
		c0.063-3.347,2.766-5.95,6.152-5.918c3.372,0.027,5.93,2.688,5.889,6.125C355.647,76.999,352.889,79.696,349.637,79.641z"/>
	<path fill="#D0A94F" d="M322.977,83.625c-9.153,0.027-16.65,7.543-16.635,16.679c0.016,9.14,7.552,16.657,16.679,16.638
		c9.143-0.02,16.653-7.55,16.636-16.682C339.639,91.118,332.097,83.595,322.977,83.625z"/>
	<path fill="#D0A94F" d="M323,0.333c-55.229,0-100,44.77-100,99.996c0,55.231,44.771,100,100,100c55.227,0,100-44.769,100-100
		C423,45.103,378.227,0.333,323,0.333z M372.9,116.037c-0.059,5.253-0.232,10.521-1.982,15.566
		c-3.352,9.676-10.16,15.551-20.11,17.463c-4.516,0.866-9.206,0.958-13.826,1.143c-4.666,0.183-9.346,0.038-14.021,0.038
		c0,0.048,0,0.095,0,0.141c-6.754-0.119-13.509-0.181-20.258-0.374c-5.828-0.167-11.479-1.222-16.535-4.328
		c-6.631-4.07-10.677-10.05-11.969-17.648c-0.771-4.542-1.043-9.21-1.116-13.828c-0.15-9.892-0.09-19.792,0.018-29.686
		c0.057-5.248,0.23-10.52,1.982-15.566c3.35-9.675,10.16-15.547,20.108-17.46c4.517-0.867,9.208-1.06,13.824-1.13
		c9.931-0.152,19.865-0.094,29.796,0.016c5.214,0.055,10.446,0.231,15.459,1.961c9.719,3.357,15.621,10.18,17.521,20.181
		c0.855,4.521,1.053,9.208,1.123,13.827C373.065,96.245,373.007,106.145,372.9,116.037z"/>
</g>
<path fill="#D0A94F" d="M564.74,192.084H445.537V-3.083H564.74V192.084z M450.537,187.084H559.74V1.917H450.537V187.084z"/>
<rect x="448.037" y="169.943" fill="#D0A94F" width="114.203" height="5"/>
<path fill="#D0A94F" d="M505.139,189.026c-4.406,0-7.991-3.585-7.991-7.991s3.585-7.99,7.991-7.99s7.991,3.584,7.991,7.99
	S509.545,189.026,505.139,189.026z M505.139,178.045c-1.649,0-2.991,1.342-2.991,2.99c0,1.649,1.342,2.991,2.991,2.991
	s2.991-1.342,2.991-2.991C508.13,179.387,506.788,178.045,505.139,178.045z"/>
<polygon fill="#D0A94F" points="557.915,159.397 552.915,159.397 552.915,9.583 474.801,9.583 474.801,4.583 557.915,4.583 "/>
<polygon fill="#D0A94F" points="487.979,168.873 452.147,168.873 452.147,89.247 457.147,89.247 457.147,163.873 487.979,163.873 
	"/>
<rect x="492.842" y="23.176" transform="matrix(0.7071 0.7071 -0.7071 0.7071 178.3294 -336.4881)" fill="#D0A94F" width="4.999" height="47.686"/>
<rect x="499.476" y="29.809" transform="matrix(0.7071 0.7071 -0.7071 0.7071 198.7668 -333.5183)" fill="#D0A94F" width="4.999" height="86.729"/>
<rect x="509.701" y="85.467" transform="matrix(0.7071 0.7071 -0.7071 0.7071 232.0616 -328.1983)" fill="#D0A94F" width="4.999" height="61.113"/>
<rect x="620" y="46" fill="none" stroke="#D0A94F" stroke-width="4" stroke-miterlimit="10" width="191" height="115"/>
<polyline fill="none" stroke="#D0A94F" stroke-width="4" stroke-miterlimit="10" points="621.917,46.686 702.667,131 711,131 "/>
<rect x="720" y="116" fill="none" stroke="#D0A94F" stroke-width="4" stroke-miterlimit="10" width="14" height="14"/>
<rect x="742" y="97" fill="none" stroke="#D0A94F" stroke-width="4" stroke-miterlimit="10" width="14" height="14"/>
<rect x="764" y="75" fill="none" stroke="#D0A94F" stroke-width="4" stroke-miterlimit="10" width="14" height="14"/>
<rect x="789" y="55" fill="none" stroke="#D0A94F" stroke-width="4" stroke-miterlimit="10" width="14" height="14"/>
<path fill="#D0A94F" d="M1077,162H884V44h193V162z M888,158h185V48H888V158z"/>
<path fill="#D0A94F" d="M937,65h-13V44h13V65z M928,61h5V48h-5V61z"/>
<path fill="#D0A94F" d="M969,65h-13V44h13V65z M960,61h5V48h-5V61z"/>
<path fill="#D0A94F" d="M1000,65h-13V44h13V65z M991,61h5V48h-5V61z"/>
<path fill="#D0A94F" d="M1032,65h-13V44h13V65z M1023,61h5V48h-5V61z"/>
<rect x="915" y="84" fill="#D0A94F" width="131" height="4"/>
<rect x="915" y="104" fill="#D0A94F" width="131" height="4"/>
<rect x="915" y="125" fill="#D0A94F" width="131" height="4"/>
<g>
	<path fill="#D0A94E" d="M1236,67.489V72h-109V59h-28v-5h-12v5h-1v17h1v5h12v-5h11v64h37.49l11.075,18H1209v-18h27v3.1l33,19.079
		V43.353L1236,67.489z M1091,58h4v1h-4V58z M1091,63h4v9h-4V63z M1095,77h-4v-1h4V77z M1099,72v-9h24v9h-12.396H1099z M1205,154
		h-44.212l-8.586-14H1205V154z M1210.41,136h-65.409H1114V76h14.172H1236v60H1210.41z M1265,155.173l-25-14.356v-1.846V70.729
		v-1.235l25-18.161V155.173z"/>
	<rect x="1125" y="129" fill="#D0A94E" width="52" height="4"/>
	<rect x="1119" y="119" fill="#D0A94E" width="32" height="4"/>
	<rect x="1257" y="65" fill="#D0A94E" width="4" height="82"/>
</g>
</svg>
