<?xml version="1.0" encoding="UTF-8"?>
<svg width="85px" height="100px" viewBox="0 0 85 100" version="1.1" xmlns="http://www.w3.org/2000/svg" xmlns:xlink="http://www.w3.org/1999/xlink">
    <!-- Generator: Sketch 43.1 (39012) - http://www.bohemiancoding.com/sketch -->
    <title>houblon_blanc</title>
    <desc>Created with Sketch.</desc>
    <defs></defs>
    <g id="Page-1" stroke="none" stroke-width="1" fill="none" fill-rule="evenodd">
        <g id="houblon_blanc" fill-rule="nonzero" fill="#FCF3D8">
            <path d="M80.602,45.87 C80.508,45.891 80.241,45.95 79.829,46.05 C80.136,44.514 80.366,42.883 80.481,41.128 L81.299,28.613 L77.832,29.358 C77.727,29.379 76.689,29.605 75.062,30.077 C75.302,28.817 75.484,27.487 75.576,26.06 L76.31,14.801 L72.845,15.545 C72.568,15.604 70.45,16.076 67.533,17.096 C67.496,16.554 67.443,16.002 67.367,15.43 L66.101,6.202 L62.853,7.628 C62.529,7.769 58.689,9.487 54.812,12.573 C47.136,3.723 42.742,0.769 42.544,0.638 L42.485,0.73 L42.464,0.696 C42.276,0.831 38.058,3.901 30.118,13.206 C25.649,9.609 20.793,7.718 20.425,7.578 L17.114,6.315 L16.298,15.595 C16.272,15.918 16.257,16.23 16.239,16.544 C14.206,15.904 12.807,15.592 12.587,15.545 L9.125,14.801 L9.859,26.06 C9.951,27.484 10.131,28.812 10.37,30.069 C8.758,29.602 7.731,29.378 7.628,29.357 L4.163,28.612 L4.977,41.127 C5.095,42.927 5.334,44.599 5.652,46.167 C4.969,45.993 4.532,45.896 4.406,45.869 L0.942,45.132 L1.809,58.398 C2.575,70.119 7.712,77.166 11.889,81.017 C16.338,85.117 20.679,86.555 21.084,86.685 L33.811,90.773 C38.44,95.544 41.475,98.561 43.504,99.735 L43.921,99.015 L44,99.079 C44.035,99.037 46.592,95.819 51.324,90.733 L63.928,86.685 C64.354,86.548 68.68,85.105 73.123,81.017 C77.299,77.165 82.435,70.119 83.199,58.398 L84.066,45.132 L80.602,45.87 Z M75.475,35.55 L75.133,40.779 C74.969,43.309 74.547,45.661 73.883,47.836 C71.541,48.659 68.795,49.765 65.983,51.199 C64.93,48.791 63.487,46.47 61.649,44.267 C61.278,43.821 60.913,43.386 60.555,42.958 C62.58,41.371 64.758,40.075 66.76,39.058 C70.002,37.409 73.176,36.268 75.475,35.55 Z M61.795,14.246 L62.063,16.16 C62.211,17.27 62.264,18.304 62.243,19.271 C61.53,19.609 60.813,19.976 60.091,20.369 C59.591,19.127 58.95,17.915 58.165,16.743 C59.426,15.745 60.699,14.904 61.795,14.246 Z M70.492,21.763 L70.232,25.715 C70.072,28.168 69.632,30.302 69.017,32.165 C67.564,32.75 66.015,33.436 64.441,34.23 C61.664,35.632 59.22,37.186 57.105,38.862 C55.603,37.091 54.253,35.515 53.046,34.119 C56.248,27.233 65.416,23.405 70.492,21.763 Z M32.844,18.282 C37.211,13.047 40.498,9.666 42.641,7.633 C44.864,9.652 48.256,13.029 52.635,18.282 C53.973,19.886 54.912,21.57 55.461,23.321 C53.072,25.115 50.902,27.271 49.297,29.837 C45.971,26.096 44.518,24.635 44.412,24.531 L42.517,22.629 L40.622,24.531 C40.518,24.632 39.135,26.024 35.976,29.571 C34.394,27.13 32.295,25.072 30.002,23.345 C30.556,21.585 31.5,19.894 32.844,18.282 Z M21.639,16.059 L21.805,14.135 C22.955,14.752 24.295,15.545 25.629,16.506 C26.071,16.825 26.477,17.141 26.864,17.455 C26.277,18.41 25.782,19.389 25.379,20.388 C24.09,19.685 22.805,19.066 21.574,18.532 C21.546,17.752 21.561,16.931 21.639,16.059 Z M21.785,24.552 C25.556,26.458 30.074,29.504 32.24,33.831 C31.015,35.245 29.636,36.852 28.099,38.665 C26.04,37.063 23.685,35.577 21.019,34.23 C19.434,33.43 17.878,32.741 16.415,32.154 C15.802,30.294 15.363,28.164 15.202,25.715 L14.944,21.756 C16.826,22.363 19.274,23.279 21.785,24.552 Z M18.605,39.007 C21.007,40.223 23,41.484 24.654,42.754 C24.242,43.247 23.822,43.75 23.388,44.267 C21.547,46.475 20.099,48.799 19.052,51.21 C16.429,49.872 13.864,48.818 11.629,48.015 C10.934,45.789 10.496,43.377 10.327,40.779 L9.985,35.548 C12.254,36.256 15.382,37.381 18.605,39.007 Z M22.718,81.584 L22.697,81.576 C22.662,81.566 19.037,80.388 15.34,76.906 C10.423,72.284 7.672,65.939 7.154,58.047 L6.762,52.058 C9.484,52.896 13.46,54.319 17.439,56.432 C16.699,60.277 16.879,64.282 18.024,68.359 C19.838,74.817 23.609,79.907 25.967,82.629 L22.718,81.584 Z M42.782,92.209 C40.916,90.41 38.637,88.061 36.404,85.75 C34.758,84.047 33.054,82.289 31.361,80.585 C29.943,79.158 25.16,73.957 23.181,66.911 C21.225,59.947 22.675,53.484 27.501,47.696 C35.394,38.23 40.142,32.912 42.517,30.325 C44.892,32.912 49.638,38.23 57.535,47.696 C70.365,63.082 55.428,78.829 53.68,80.579 C48.773,85.485 45.109,89.531 42.782,92.209 Z M77.859,58.047 C77.341,65.94 74.588,72.284 69.673,76.906 C65.974,80.387 62.351,81.566 62.327,81.576 L59.085,82.616 C61.446,79.898 65.198,74.83 67.015,68.365 C68.161,64.281 68.339,60.269 67.597,56.419 C71.566,54.311 75.533,52.894 78.249,52.058 L77.859,58.047 Z" id="Shape"></path>
        </g>
    </g>
</svg>