<svg xmlns="http://www.w3.org/2000/svg" width="85" height="100" viewBox="0 0 85 100"><title>  houblon_blanc</title><desc>  Created with Sketch.</desc><g fill="none"><g fill="#FCF3D8"><path d="M80.6 45.9C80.5 45.9 80.2 46 79.8 46.1 80.1 44.5 80.4 42.9 80.5 41.1L81.3 28.6 77.8 29.4C77.7 29.4 76.7 29.6 75.1 30.1 75.3 28.8 75.5 27.5 75.6 26.1L76.3 14.8 72.8 15.5C72.6 15.6 70.5 16.1 67.5 17.1 67.5 16.6 67.4 16 67.4 15.4L66.1 6.2 62.9 7.6C62.5 7.8 58.7 9.5 54.8 12.6 47.1 3.7 42.7 0.8 42.5 0.6L42.5 0.7 42.5 0.7C42.3 0.8 38.1 3.9 30.1 13.2 25.6 9.6 20.8 7.7 20.4 7.6L17.1 6.3 16.3 15.6C16.3 15.9 16.3 16.2 16.2 16.5 14.2 15.9 12.8 15.6 12.6 15.5L9.1 14.8 9.9 26.1C10 27.5 10.1 28.8 10.4 30.1 8.8 29.6 7.7 29.4 7.6 29.4L4.2 28.6 5 41.1C5.1 42.9 5.3 44.6 5.7 46.2 5 46 4.5 45.9 4.4 45.9L0.9 45.1 1.8 58.4C2.6 70.1 7.7 77.2 11.9 81 16.3 85.1 20.7 86.6 21.1 86.7L33.8 90.8C38.4 95.5 41.5 98.6 43.5 99.7L43.9 99 44 99.1C44 99 46.6 95.8 51.3 90.7L63.9 86.7C64.4 86.5 68.7 85.1 73.1 81 77.3 77.2 82.4 70.1 83.2 58.4L84.1 45.1 80.6 45.9ZM75.5 35.6L75.1 40.8C75 43.3 74.5 45.7 73.9 47.8 71.5 48.7 68.8 49.8 66 51.2 64.9 48.8 63.5 46.5 61.6 44.3 61.3 43.8 60.9 43.4 60.6 43 62.6 41.4 64.8 40.1 66.8 39.1 70 37.4 73.2 36.3 75.5 35.6ZM61.8 14.2L62.1 16.2C62.2 17.3 62.3 18.3 62.2 19.3 61.5 19.6 60.8 20 60.1 20.4 59.6 19.1 59 17.9 58.2 16.7 59.4 15.7 60.7 14.9 61.8 14.2ZM70.5 21.8L70.2 25.7C70.1 28.2 69.6 30.3 69 32.2 67.6 32.8 66 33.4 64.4 34.2 61.7 35.6 59.2 37.2 57.1 38.9 55.6 37.1 54.3 35.5 53 34.1 56.2 27.2 65.4 23.4 70.5 21.8ZM32.8 18.3C37.2 13 40.5 9.7 42.6 7.6 44.9 9.7 48.3 13 52.6 18.3 54 19.9 54.9 21.6 55.5 23.3 53.1 25.1 50.9 27.3 49.3 29.8 46 26.1 44.5 24.6 44.4 24.5L42.5 22.6 40.6 24.5C40.5 24.6 39.1 26 36 29.6 34.4 27.1 32.3 25.1 30 23.3 30.6 21.6 31.5 19.9 32.8 18.3ZM21.6 16.1L21.8 14.1C23 14.8 24.3 15.5 25.6 16.5 26.1 16.8 26.5 17.1 26.9 17.5 26.3 18.4 25.8 19.4 25.4 20.4 24.1 19.7 22.8 19.1 21.6 18.5 21.5 17.8 21.6 16.9 21.6 16.1ZM21.8 24.6C25.6 26.5 30.1 29.5 32.2 33.8 31 35.2 29.6 36.9 28.1 38.7 26 37.1 23.7 35.6 21 34.2 19.4 33.4 17.9 32.7 16.4 32.2 15.8 30.3 15.4 28.2 15.2 25.7L14.9 21.8C16.8 22.4 19.3 23.3 21.8 24.6ZM18.6 39C21 40.2 23 41.5 24.7 42.8 24.2 43.2 23.8 43.8 23.4 44.3 21.5 46.5 20.1 48.8 19.1 51.2 16.4 49.9 13.9 48.8 11.6 48 10.9 45.8 10.5 43.4 10.3 40.8L10 35.5C12.3 36.3 15.4 37.4 18.6 39ZM22.7 81.6L22.7 81.6C22.7 81.6 19 80.4 15.3 76.9 10.4 72.3 7.7 65.9 7.2 58L6.8 52.1C9.5 52.9 13.5 54.3 17.4 56.4 16.7 60.3 16.9 64.3 18 68.4 19.8 74.8 23.6 79.9 26 82.6L22.7 81.6ZM42.8 92.2C40.9 90.4 38.6 88.1 36.4 85.8 34.8 84 33.1 82.3 31.4 80.6 29.9 79.2 25.2 74 23.2 66.9 21.2 59.9 22.7 53.5 27.5 47.7 35.4 38.2 40.1 32.9 42.5 30.3 44.9 32.9 49.6 38.2 57.5 47.7 70.4 63.1 55.4 78.8 53.7 80.6 48.8 85.5 45.1 89.5 42.8 92.2ZM77.9 58C77.3 65.9 74.6 72.3 69.7 76.9 66 80.4 62.4 81.6 62.3 81.6L59.1 82.6C61.4 79.9 65.2 74.8 67 68.4 68.2 64.3 68.3 60.3 67.6 56.4 71.6 54.3 75.5 52.9 78.2 52.1L77.9 58Z"/></g></g></svg>