<?xml version="1.0" encoding="UTF-8"?>
<svg width="200px" height="201px" viewBox="0 0 200 201" version="1.1" xmlns="http://www.w3.org/2000/svg" xmlns:xlink="http://www.w3.org/1999/xlink">
    <!-- Generator: Sketch 43.1 (39012) - http://www.bohemiancoding.com/sketch -->
    <title>Group</title>
    <desc>Created with Sketch.</desc>
    <defs></defs>
    <g id="Page-1" stroke="none" stroke-width="1" fill="none" fill-rule="evenodd">
        <g id="tw_blanc" fill-rule="nonzero" fill="#FCF3D8">
            <g id="Group">
                <path d="M140.927,87.636 C140.827,83.845 140.682,80.046 140.297,76.274 C139.441,67.821 134.41,61.994 126.077,60.416 C121.632,59.576 117.015,59.459 112.468,59.375 C104.146,59.219 95.815,59.239 87.49,59.368 C83.191,59.433 78.853,59.586 74.62,60.245 C67.391,61.367 62.451,65.513 60.454,72.683 C59.816,74.98 59.439,77.415 59.384,79.801 C59.169,88.852 59.036,97.907 59.068,106.963 C59.088,112.722 59.219,118.501 59.721,124.237 C60.46,132.72 65.535,138.53 73.864,140.13 C78.344,140.99 83,141.099 87.584,141.187 C95.872,141.344 104.166,141.294 112.454,141.205 C116.318,141.162 120.191,140.95 124.035,140.568 C127.598,140.221 130.931,139.052 133.796,136.778 C138.441,133.085 140.233,127.995 140.505,122.349 C140.875,114.733 140.951,107.099 141.153,99.474 C141.086,99.472 141.017,99.47 140.949,99.47 C140.948,95.524 141.03,91.58 140.927,87.636 Z M99.922,125.958 C85.662,125.954 74.318,114.49 74.325,100.093 C74.329,85.908 85.863,74.592 100.295,74.607 C114.384,74.623 125.691,86.191 125.673,100.579 C125.656,114.588 114.116,125.96 99.922,125.958 Z M126.637,79.641 C123.297,79.581 120.578,76.8 120.643,73.516 C120.706,70.169 123.409,67.566 126.795,67.598 C130.167,67.625 132.725,70.286 132.684,73.723 C132.647,76.999 129.889,79.696 126.637,79.641 Z" id="Shape"></path>
                <path d="M99.977,83.625 C90.824,83.652 83.327,91.168 83.342,100.304 C83.358,109.444 90.894,116.961 100.021,116.942 C109.164,116.922 116.674,109.392 116.657,100.26 C116.639,91.118 109.097,83.595 99.977,83.625 Z" id="Shape"></path>
                <path d="M100,0.333 C44.771,0.333 0,45.103 0,100.329 C0,155.56 44.771,200.329 100,200.329 C155.227,200.329 200,155.56 200,100.329 C200,45.103 155.227,0.333 100,0.333 Z M149.9,116.037 C149.841,121.29 149.668,126.558 147.918,131.603 C144.566,141.279 137.758,147.154 127.808,149.066 C123.292,149.932 118.602,150.024 113.982,150.209 C109.316,150.392 104.636,150.247 99.961,150.247 L99.961,150.388 C93.207,150.269 86.452,150.207 79.703,150.014 C73.875,149.847 68.224,148.792 63.168,145.686 C56.537,141.616 52.491,135.636 51.199,128.038 C50.428,123.496 50.156,118.828 50.083,114.21 C49.933,104.318 49.993,94.418 50.101,84.524 C50.158,79.276 50.331,74.004 52.083,68.958 C55.433,59.283 62.243,53.411 72.191,51.498 C76.708,50.631 81.399,50.438 86.015,50.368 C95.946,50.216 105.88,50.274 115.811,50.384 C121.025,50.439 126.257,50.615 131.27,52.345 C140.989,55.702 146.891,62.525 148.791,72.526 C149.646,77.047 149.844,81.734 149.914,86.353 C150.065,96.245 150.007,106.145 149.9,116.037 Z" id="Shape"></path>
            </g>
        </g>
    </g>
</svg>