<svg xmlns="http://www.w3.org/2000/svg" width="200" height="201" viewBox="0 0 200 201"><title>  Group</title><desc>  Created with Sketch.</desc><g fill="none"><g fill="#FCF3D8"><path d="M140.9 87.6C140.8 83.8 140.7 80 140.3 76.3 139.4 67.8 134.4 62 126.1 60.4 121.6 59.6 117 59.5 112.5 59.4 104.1 59.2 95.8 59.2 87.5 59.4 83.2 59.4 78.9 59.6 74.6 60.2 67.4 61.4 62.5 65.5 60.5 72.7 59.8 75 59.4 77.4 59.4 79.8 59.2 88.9 59 97.9 59.1 107 59.1 112.7 59.2 118.5 59.7 124.2 60.5 132.7 65.5 138.5 73.9 140.1 78.3 141 83 141.1 87.6 141.2 95.9 141.3 104.2 141.3 112.5 141.2 116.3 141.2 120.2 141 124 140.6 127.6 140.2 130.9 139.1 133.8 136.8 138.4 133.1 140.2 128 140.5 122.3 140.9 114.7 141 107.1 141.2 99.5 141.1 99.5 141 99.5 140.9 99.5 140.9 95.5 141 91.6 140.9 87.6ZM99.9 126C85.7 126 74.3 114.5 74.3 100.1 74.3 85.9 85.9 74.6 100.3 74.6 114.4 74.6 125.7 86.2 125.7 100.6 125.7 114.6 114.1 126 99.9 126ZM126.6 79.6C123.3 79.6 120.6 76.8 120.6 73.5 120.7 70.2 123.4 67.6 126.8 67.6 130.2 67.6 132.7 70.3 132.7 73.7 132.6 77 129.9 79.7 126.6 79.6Z"/><path d="M100 83.6C90.8 83.7 83.3 91.2 83.3 100.3 83.4 109.4 90.9 117 100 116.9 109.2 116.9 116.7 109.4 116.7 100.3 116.6 91.1 109.1 83.6 100 83.6Z"/><path d="M100 0.3C44.8 0.3 0 45.1 0 100.3 0 155.6 44.8 200.3 100 200.3 155.2 200.3 200 155.6 200 100.3 200 45.1 155.2 0.3 100 0.3ZM149.9 116C149.8 121.3 149.7 126.6 147.9 131.6 144.6 141.3 137.8 147.2 127.8 149.1 123.3 149.9 118.6 150 114 150.2 109.3 150.4 104.6 150.2 100 150.2L100 150.4C93.2 150.3 86.5 150.2 79.7 150 73.9 149.8 68.2 148.8 63.2 145.7 56.5 141.6 52.5 135.6 51.2 128 50.4 123.5 50.2 118.8 50.1 114.2 49.9 104.3 50 94.4 50.1 84.5 50.2 79.3 50.3 74 52.1 69 55.4 59.3 62.2 53.4 72.2 51.5 76.7 50.6 81.4 50.4 86 50.4 95.9 50.2 105.9 50.3 115.8 50.4 121 50.4 126.3 50.6 131.3 52.3 141 55.7 146.9 62.5 148.8 72.5 149.6 77 149.8 81.7 149.9 86.4 150.1 96.2 150 106.1 149.9 116Z"/></g></g></svg>