<?xml version="1.0" encoding="utf-8"?>
<!-- Generator: Adobe Illustrator 16.0.0, SVG Export Plug-In . SVG Version: 6.00 Build 0)  -->
<!DOCTYPE svg PUBLIC "-//W3C//DTD SVG 1.1//EN" "http://www.w3.org/Graphics/SVG/1.1/DTD/svg11.dtd">
<svg version="1.1" id="Calque_1" xmlns="http://www.w3.org/2000/svg" xmlns:xlink="http://www.w3.org/1999/xlink" x="0px" y="0px"
	 width="200px" height="200px" viewBox="0 0 200 200" enable-background="new 0 0 200 200" xml:space="preserve">
<path fill="#D0A94F" d="M-123.002,0.333c-55.227,0-99.998,44.772-99.998,99.996c0,55.234,44.771,100,99.998,100
	c55.229,0,100.002-44.766,100.002-100C-23,45.105-67.773,0.333-123.002,0.333z M-100.921,83.4l-1.152,14.957h-15.337v51.974h-19.377
	V98.357h-10.338V83.4h10.338V73.35c0-4.424,0.111-11.258,3.33-15.498c3.391-4.477,8.044-7.522,16.047-7.522
	c13.044,0,18.536,1.864,18.536,1.864l-2.584,15.311c0,0-4.31-1.245-8.329-1.245c-4.022,0-7.623,1.442-7.623,5.461V83.4H-100.921z"/>
<g>
	<path fill="#D0A94F" d="M140.927,87.636c-0.1-3.791-0.245-7.59-0.63-11.362c-0.856-8.453-5.887-14.28-14.22-15.858
		c-4.445-0.84-9.062-0.957-13.609-1.041c-8.322-0.156-16.653-0.136-24.978-0.007c-4.299,0.065-8.637,0.218-12.87,0.877
		c-7.229,1.122-12.169,5.268-14.166,12.438c-0.638,2.297-1.015,4.732-1.07,7.118c-0.215,9.051-0.348,18.106-0.316,27.162
		c0.02,5.759,0.151,11.538,0.653,17.274c0.739,8.483,5.814,14.293,14.143,15.893c4.48,0.86,9.136,0.969,13.72,1.057
		c8.288,0.157,16.582,0.107,24.87,0.018c3.864-0.043,7.737-0.255,11.581-0.637c3.563-0.347,6.896-1.516,9.761-3.79
		c4.645-3.693,6.437-8.783,6.709-14.429c0.37-7.616,0.446-15.25,0.648-22.875c-0.067-0.002-0.136-0.004-0.204-0.004
		C140.948,95.524,141.03,91.58,140.927,87.636z M99.922,125.958c-14.26-0.004-25.604-11.468-25.597-25.865
		c0.004-14.185,11.538-25.501,25.97-25.486c14.089,0.016,25.396,11.584,25.378,25.972
		C125.656,114.588,114.116,125.96,99.922,125.958z M126.637,79.641c-3.34-0.06-6.059-2.841-5.994-6.125
		c0.063-3.347,2.766-5.95,6.152-5.918c3.372,0.027,5.93,2.688,5.889,6.125C132.647,76.999,129.889,79.696,126.637,79.641z"/>
	<path fill="#D0A94F" d="M99.977,83.625c-9.153,0.027-16.65,7.543-16.635,16.679c0.016,9.14,7.552,16.657,16.679,16.638
		c9.143-0.02,16.653-7.55,16.636-16.682C116.639,91.118,109.097,83.595,99.977,83.625z"/>
	<path fill="#D0A94F" d="M100,0.333c-55.229,0-100,44.77-100,99.996c0,55.231,44.771,100,100,100c55.227,0,100-44.769,100-100
		C200,45.103,155.227,0.333,100,0.333z M149.9,116.037c-0.059,5.253-0.232,10.521-1.982,15.566
		c-3.352,9.676-10.16,15.551-20.11,17.463c-4.516,0.866-9.206,0.958-13.826,1.143c-4.666,0.183-9.346,0.038-14.021,0.038
		c0,0.048,0,0.095,0,0.141c-6.754-0.119-13.509-0.181-20.258-0.374c-5.828-0.167-11.479-1.222-16.535-4.328
		c-6.631-4.07-10.677-10.05-11.969-17.648c-0.771-4.542-1.043-9.21-1.116-13.828c-0.15-9.892-0.09-19.792,0.018-29.686
		c0.057-5.248,0.23-10.52,1.982-15.566c3.35-9.675,10.16-15.547,20.108-17.46c4.517-0.867,9.208-1.06,13.824-1.13
		c9.931-0.152,19.865-0.094,29.796,0.016c5.214,0.055,10.446,0.231,15.459,1.961c9.719,3.357,15.621,10.18,17.521,20.181
		c0.855,4.521,1.053,9.208,1.123,13.827C150.065,96.245,150.007,106.145,149.9,116.037z"/>
</g>
<path fill="#D0A94F" d="M341.74,192.084H222.537V-3.083H341.74V192.084z M227.537,187.084H336.74V1.917H227.537V187.084z"/>
<rect x="225.037" y="169.943" fill="#D0A94F" width="114.203" height="5"/>
<path fill="#D0A94F" d="M282.139,189.026c-4.406,0-7.991-3.585-7.991-7.991s3.585-7.99,7.991-7.99s7.991,3.584,7.991,7.99
	S286.545,189.026,282.139,189.026z M282.139,178.045c-1.649,0-2.991,1.342-2.991,2.99c0,1.649,1.342,2.991,2.991,2.991
	s2.991-1.342,2.991-2.991C285.13,179.387,283.788,178.045,282.139,178.045z"/>
<polygon fill="#D0A94F" points="334.915,159.397 329.915,159.397 329.915,9.583 251.801,9.583 251.801,4.583 334.915,4.583 "/>
<polygon fill="#D0A94F" points="264.979,168.873 229.147,168.873 229.147,89.247 234.147,89.247 234.147,163.873 264.979,163.873 
	"/>
<rect x="269.842" y="23.176" transform="matrix(0.7071 0.7071 -0.7071 0.7071 113.0142 -178.8033)" fill="#D0A94F" width="4.999" height="47.686"/>
<rect x="276.476" y="29.809" transform="matrix(0.7071 0.7071 -0.7071 0.7071 133.4516 -175.8335)" fill="#D0A94F" width="4.999" height="86.729"/>
<rect x="286.701" y="85.467" transform="matrix(0.7071 0.7071 -0.7071 0.7071 166.7464 -170.5135)" fill="#D0A94F" width="4.999" height="61.113"/>
<rect x="397" y="46" fill="none" stroke="#D0A94F" stroke-width="4" stroke-miterlimit="10" width="191" height="115"/>
<polyline fill="none" stroke="#D0A94F" stroke-width="4" stroke-miterlimit="10" points="398.917,46.686 479.667,131 488,131 "/>
<rect x="497" y="116" fill="none" stroke="#D0A94F" stroke-width="4" stroke-miterlimit="10" width="14" height="14"/>
<rect x="519" y="97" fill="none" stroke="#D0A94F" stroke-width="4" stroke-miterlimit="10" width="14" height="14"/>
<rect x="541" y="75" fill="none" stroke="#D0A94F" stroke-width="4" stroke-miterlimit="10" width="14" height="14"/>
<rect x="566" y="55" fill="none" stroke="#D0A94F" stroke-width="4" stroke-miterlimit="10" width="14" height="14"/>
<path fill="#D0A94F" d="M854,162H661V44h193V162z M665,158h185V48H665V158z"/>
<path fill="#D0A94F" d="M714,65h-13V44h13V65z M705,61h5V48h-5V61z"/>
<path fill="#D0A94F" d="M746,65h-13V44h13V65z M737,61h5V48h-5V61z"/>
<path fill="#D0A94F" d="M777,65h-13V44h13V65z M768,61h5V48h-5V61z"/>
<path fill="#D0A94F" d="M809,65h-13V44h13V65z M800,61h5V48h-5V61z"/>
<rect x="692" y="84" fill="#D0A94F" width="131" height="4"/>
<rect x="692" y="104" fill="#D0A94F" width="131" height="4"/>
<rect x="692" y="125" fill="#D0A94F" width="131" height="4"/>
<g>
	<path fill="#D0A94E" d="M1013,67.489V72H904V59h-28v-5h-12v5h-1v17h1v5h12v-5h11v64h37.49l11.075,18H986v-18h27v3.1l33,19.079
		V43.353L1013,67.489z M868,58h4v1h-4V58z M868,63h4v9h-4V63z M872,77h-4v-1h4V77z M876,72v-9h24v9h-12.396H876z M982,154h-44.212
		l-8.586-14H982V154z M987.41,136h-65.409H891V76h14.172H1013v60H987.41z M1042,155.173l-25-14.356v-1.846V70.729v-1.235l25-18.161
		V155.173z"/>
	<rect x="902" y="129" fill="#D0A94E" width="52" height="4"/>
	<rect x="896" y="119" fill="#D0A94E" width="32" height="4"/>
	<rect x="1034" y="65" fill="#D0A94E" width="4" height="82"/>
</g>
</svg>
