<svg xmlns="http://www.w3.org/2000/svg" width="200" height="200" viewBox="0 0 200 200"><style>.a{fill:#D0A94F;}.b{fill:none;stroke-width:4;stroke:#D0A94F;}.c{fill:#D0A94E;}</style><path d="M-123 0.3c-55.2 0-100 44.8-100 100 0 55.2 44.8 100 100 100 55.2 0 100-44.8 100-100C-23 45.1-67.8 0.3-123 0.3zM-100.9 83.4l-1.2 15h-15.3v52h-19.4V98.4h-10.3V83.4h10.3V73.4c0-4.4 0.1-11.3 3.3-15.5 3.4-4.5 8-7.5 16-7.5 13 0 18.5 1.9 18.5 1.9l-2.6 15.3c0 0-4.3-1.2-8.3-1.2 -4 0-7.6 1.4-7.6 5.5V83.4H-100.9z" class="a"/><path d="M140.9 87.6c-0.1-3.8-0.2-7.6-0.6-11.4 -0.9-8.5-5.9-14.3-14.2-15.9 -4.4-0.8-9.1-1-13.6-1 -8.3-0.2-16.7-0.1-25 0 -4.3 0.1-8.6 0.2-12.9 0.9 -7.2 1.1-12.2 5.3-14.2 12.4 -0.6 2.3-1 4.7-1.1 7.1 -0.2 9.1-0.3 18.1-0.3 27.2 0 5.8 0.2 11.5 0.7 17.3 0.7 8.5 5.8 14.3 14.1 15.9 4.5 0.9 9.1 1 13.7 1.1 8.3 0.2 16.6 0.1 24.9 0 3.9 0 7.7-0.3 11.6-0.6 3.6-0.3 6.9-1.5 9.8-3.8 4.6-3.7 6.4-8.8 6.7-14.4 0.4-7.6 0.4-15.2 0.6-22.9 -0.1 0-0.1 0-0.2 0C140.9 95.5 141 91.6 140.9 87.6zM99.9 126c-14.3 0-25.6-11.5-25.6-25.9 0-14.2 11.5-25.5 26-25.5 14.1 0 25.4 11.6 25.4 26C125.7 114.6 114.1 126 99.9 126zM126.6 79.6c-3.3-0.1-6.1-2.8-6-6.1 0.1-3.3 2.8-5.9 6.2-5.9 3.4 0 5.9 2.7 5.9 6.1C132.6 77 129.9 79.7 126.6 79.6z" class="a"/><path d="M100 83.6c-9.2 0-16.6 7.5-16.6 16.7 0 9.1 7.6 16.7 16.7 16.6 9.1 0 16.7-7.5 16.6-16.7C116.6 91.1 109.1 83.6 100 83.6z" class="a"/><path d="M100 0.3c-55.2 0-100 44.8-100 100 0 55.2 44.8 100 100 100 55.2 0 100-44.8 100-100C200 45.1 155.2 0.3 100 0.3zM149.9 116c-0.1 5.3-0.2 10.5-2 15.6 -3.4 9.7-10.2 15.6-20.1 17.5 -4.5 0.9-9.2 1-13.8 1.1 -4.7 0.2-9.3 0-14 0 0 0 0 0.1 0 0.1 -6.8-0.1-13.5-0.2-20.3-0.4 -5.8-0.2-11.5-1.2-16.5-4.3 -6.6-4.1-10.7-10-12-17.6 -0.8-4.5-1-9.2-1.1-13.8 -0.1-9.9-0.1-19.8 0-29.7 0.1-5.2 0.2-10.5 2-15.6 3.4-9.7 10.2-15.5 20.1-17.5 4.5-0.9 9.2-1.1 13.8-1.1 9.9-0.2 19.9-0.1 29.8 0 5.2 0.1 10.4 0.2 15.5 2 9.7 3.4 15.6 10.2 17.5 20.2 0.9 4.5 1.1 9.2 1.1 13.8C150.1 96.2 150 106.1 149.9 116z" class="a"/><path d="M341.7 192.1H222.5V-3.1H341.7V192.1zM227.5 187.1H336.7V1.9H227.5V187.1z" class="a"/><rect x="225" y="169.9" width="114.2" height="5" class="a"/><path d="M282.1 189c-4.4 0-8-3.6-8-8s3.6-8 8-8 8 3.6 8 8S286.5 189 282.1 189zM282.1 178c-1.6 0-3 1.3-3 3 0 1.6 1.3 3 3 3s3-1.3 3-3C285.1 179.4 283.8 178 282.1 178z" class="a"/><polygon points="334.9 159.4 329.9 159.4 329.9 9.6 251.8 9.6 251.8 4.6 334.9 4.6 " class="a"/><polygon points="265 168.9 229.1 168.9 229.1 89.2 234.1 89.2 234.1 163.9 265 163.9 " class="a"/><rect x="269.8" y="23.2" transform="matrix(0.7071 0.7071 -0.7071 0.7071 113.0142 -178.8033)" width="5" height="47.7" class="a"/><rect x="276.5" y="29.8" transform="matrix(0.7071 0.7071 -0.7071 0.7071 133.4516 -175.8335)" width="5" height="86.7" class="a"/><rect x="286.7" y="85.5" transform="matrix(0.7071 0.7071 -0.7071 0.7071 166.7464 -170.5135)" width="5" height="61.1" class="a"/><rect x="397" y="46" width="191" height="115" class="b"/><polyline points="398.9 46.7 479.7 131 488 131 " class="b"/><rect x="497" y="116" width="14" height="14" class="b"/><rect x="519" y="97" width="14" height="14" class="b"/><rect x="541" y="75" width="14" height="14" class="b"/><rect x="566" y="55" width="14" height="14" class="b"/><path d="M854 162H661V44h193V162zM665 158h185V48H665V158z" class="a"/><path d="M714 65h-13V44h13V65zM705 61h5V48h-5V61z" class="a"/><path d="M746 65h-13V44h13V65zM737 61h5V48h-5V61z" class="a"/><path d="M777 65h-13V44h13V65zM768 61h5V48h-5V61z" class="a"/><path d="M809 65h-13V44h13V65zM800 61h5V48h-5V61z" class="a"/><rect x="692" y="84" width="131" height="4" class="a"/><rect x="692" y="104" width="131" height="4" class="a"/><rect x="692" y="125" width="131" height="4" class="a"/><path d="M1013 67.5V72H904V59h-28v-5h-12v5h-1v17h1v5h12v-5h11v64h37.5l11.1 18H986v-18h27v3.1l33 19.1V43.4L1013 67.5zM868 58h4v1h-4V58zM868 63h4v9h-4V63zM872 77h-4v-1h4V77zM876 72v-9h24v9h-12.4H876zM982 154h-44.2l-8.6-14H982V154zM987.4 136h-65.4H891V76h14.2H1013v60H987.4zM1042 155.2l-25-14.4v-1.8V70.7v-1.2l25-18.2V155.2z" class="c"/><rect x="902" y="129" width="52" height="4" class="c"/><rect x="896" y="119" width="32" height="4" class="c"/><rect x="1034" y="65" width="4" height="82" class="c"/></svg>