<svg xmlns="http://www.w3.org/2000/svg" width="640" height="480" viewBox="0 0 640 480"><style>.a{fill:#D0A94F;}</style><path d="M252.6 69.7c-0.1 0-0.4 0.1-0.8 0.2 0.3-1.5 0.5-3.1 0.6-4.8l0.8-12.2 -3.4 0.7c-0.1 0-1.1 0.2-2.7 0.7 0.2-1.2 0.4-2.5 0.5-3.9l0.7-11 -3.4 0.7c-0.3 0.1-2.3 0.5-5.2 1.5 0-0.5-0.1-1.1-0.2-1.6l-1.2-9 -3.2 1.4c-0.3 0.1-4.1 1.8-7.8 4.8 -7.5-8.6-11.8-11.5-12-11.6l-0.1 0.1 0 0c-0.2 0.1-4.3 3.1-12 12.2 -4.4-3.5-9.1-5.3-9.4-5.5l-3.2-1.2 -0.8 9c0 0.3 0 0.6-0.1 0.9 -2-0.6-3.3-0.9-3.6-1l-3.4-0.7 0.7 11c0.1 1.4 0.3 2.7 0.5 3.9 -1.6-0.5-2.6-0.7-2.7-0.7l-3.4-0.7 0.8 12.2c0.1 1.8 0.3 3.4 0.7 4.9 -0.7-0.2-1.1-0.3-1.2-0.3l-3.4-0.7 0.8 12.9c0.7 11.4 5.8 18.3 9.8 22 4.3 4 8.6 5.4 9 5.5l12.4 4c4.5 4.6 7.5 7.6 9.4 8.7l0.4-0.7 0.1 0.1c0 0 2.5-3.2 7.1-8.1l12.3-3.9c0.4-0.1 4.6-1.5 9-5.5 4.1-3.8 9.1-10.6 9.8-22l0.8-12.9L252.6 69.7zM247.6 59.7l-0.3 5.1c-0.2 2.5-0.6 4.8-1.2 6.9 -2.3 0.8-5 1.9-7.7 3.3 -1-2.3-2.4-4.6-4.2-6.8 -0.4-0.4-0.7-0.9-1.1-1.3 2-1.5 4.1-2.8 6-3.8C242.3 61.5 245.4 60.4 247.6 59.7zM234.3 38.9l0.3 1.9c0.1 1.1 0.2 2.1 0.2 3 -0.7 0.3-1.4 0.7-2.1 1.1 -0.5-1.2-1.1-2.4-1.9-3.5C232 40.4 233.2 39.6 234.3 38.9zM242.8 46.3l-0.2 3.9c-0.2 2.4-0.6 4.5-1.2 6.3 -1.4 0.6-2.9 1.2-4.5 2 -2.7 1.4-5.1 2.9-7.1 4.5 -1.5-1.7-2.8-3.3-4-4.6C228.9 51.6 237.8 47.9 242.8 46.3zM206.1 42.9c4.3-5.1 7.5-8.4 9.5-10.4 2.2 2 5.5 5.3 9.7 10.4 1.3 1.6 2.2 3.2 2.8 4.9 -2.3 1.7-4.4 3.8-6 6.4 -3.2-3.6-4.7-5.1-4.8-5.2l-1.8-1.9 -1.8 1.9c-0.1 0.1-1.4 1.5-4.5 4.9 -1.5-2.4-3.6-4.4-5.8-6.1C203.9 46.1 204.8 44.4 206.1 42.9zM195.2 40.7l0.2-1.9c1.1 0.6 2.4 1.4 3.7 2.3 0.4 0.3 0.8 0.6 1.2 0.9 -0.6 0.9-1.1 1.9-1.4 2.9 -1.3-0.7-2.5-1.3-3.7-1.8C195.1 42.3 195.1 41.5 195.2 40.7zM195.3 49c3.7 1.9 8.1 4.8 10.2 9 -1.2 1.4-2.5 2.9-4 4.7 -2-1.6-4.3-3-6.9-4.3 -1.5-0.8-3.1-1.5-4.5-2 -0.6-1.8-1-3.9-1.2-6.3l-0.3-3.9C190.5 46.8 192.9 47.7 195.3 49zM192.2 63.1c2.3 1.2 4.3 2.4 5.9 3.7 -0.4 0.5-0.8 1-1.2 1.5 -1.8 2.2-3.2 4.4-4.2 6.8 -2.6-1.3-5.1-2.3-7.2-3.1 -0.7-2.2-1.1-4.5-1.3-7.1l-0.3-5.1C186 60.4 189.1 61.5 192.2 63.1zM196.2 104.6l0 0c0 0-3.6-1.2-7.2-4.6 -4.8-4.5-7.5-10.7-8-18.4l-0.4-5.8c2.7 0.8 6.5 2.2 10.4 4.3 -0.7 3.7-0.5 7.7 0.6 11.6 1.8 6.3 5.4 11.3 7.7 13.9L196.2 104.6zM215.8 114.9c-1.8-1.8-4-4-6.2-6.3 -1.6-1.7-3.3-3.4-4.9-5 -1.4-1.4-6-6.5-8-13.3 -1.9-6.8-0.5-13.1 4.2-18.7 7.7-9.2 12.3-14.4 14.6-16.9 2.3 2.5 6.9 7.7 14.6 16.9 12.5 15-2.1 30.3-3.8 32C221.6 108.4 218 112.3 215.8 114.9zM250 81.6c-0.5 7.7-3.2 13.9-8 18.4 -3.6 3.4-7.1 4.5-7.2 4.6l-3.2 1c2.3-2.6 6-7.6 7.7-13.9 1.1-4 1.3-7.9 0.6-11.6 3.9-2.1 7.7-3.4 10.4-4.2L250 81.6z" class="a"/><path d="M369.1 197.3c0 0 9.7-3.2 9.7-10.8 0-13.4 0-35.2 0-35.2s-0.9-22.1-22.1-22.1c-14.6 0-32 0-32 0V248h19.8v-41.5h8.7c0 0 8.1 0.6 8.1 9.9 0 9.3 0 31.6 0 31.6h17.5v-29.9c0 0-1.3-12.4-7-18.1C369.3 197.5 369.1 197.3 369.1 197.3zM361.6 158.3c0 0 0 11.3 0 20.6 0 9.3-10.8 9.6-10.8 9.6h-9v-40.1c0 0 7.6 0 12.8 0C362.4 148.4 361.6 158.3 361.6 158.3z" class="a"/><polygon points="454.2 129.2 402.3 129.2 402.3 248 454.2 248 454.2 231.1 421 231.1 421 206.7 434.4 206.7 454 206.7 454 188.6 421 188.6 421 147.8 454.2 147.8 " class="a"/><polygon points="304.4 129.2 252.6 129.2 252.6 248 304.4 248 304.4 231.1 271.2 231.1 271.2 206.7 293.1 206.7 304.2 206.7 304.2 188.6 271.2 188.6 271.2 147.8 304.4 147.8 " class="a"/><polygon points="260.7 100.9 270.6 91 304.4 113.7 296.4 117.5 286 117.5 " class="a"/><path d="M184.8 185c0-13.4 0-34.3 0-34.3s-0.9-21.5-22.1-21.5c-14.6 0-32 0-32 0L130.4 248c0 0 17.5 0 32 0 21.3 0 22.1-21.5 22.1-21.5s0-4.8 0-18.2c0-6.1-5.3-10.1-6.2-10.4C179.1 197.5 184.8 192.7 184.8 185zM147.9 141.8h9c0 0 10.8 0.3 10.8 9.6 0 9.3 0 27.3 0 27.3s0.7 9.9-7 9.9c-5.2 0-12.8 0-12.8 0V141.8zM167.4 216.3c0 0 0 0.1 0 9.4 0 9.3-10.8 9.6-10.8 9.6h-9v-28.4c0 0 7.6 0 12.8 0C168.1 207 167.4 216.3 167.4 216.3z" class="a"/><rect x="206.9" y="129.5" width="19.5" height="118.5" class="a"/><path d="M288.9 310.3c-18.1 0-28.1 13.1-28.1 23.3h15.3c0 0 0.6-11.4 12.8-11.4 10.9 0 13 9 13.3 19.9 0 0.2 0 0.5 0 0.7h-28.1c-11.3 0-20.4 9.2-20.4 20.4 0 13.5 9.1 23.5 20.4 23.5l44.6-0.1v-46.6C318.7 340.1 318.7 310.3 288.9 310.3zM302.1 373.4c0 0-9.1 0-9.1-0.1l-12 0c-6.7 0-12.1-1.5-12.1-8.2 0-6.7 5.4-10.4 12.1-10.4h11.9l9.1 0V373.4z" class="a"/><path d="M156.5 287c-13.9 0-21.6 10.7-21.6 18.6h11.8c0 0 0.4-8.7 9.8-8.7 8.4 0 10 6.9 10.2 15.3 0 0.2 0 0.4 0 0.5h-21.6c-8.7 0-15.7 7-15.7 15.7 0 10.4 7 18 15.7 18l34.2-0.1v-35.8C179.4 310.5 179.4 287 156.5 287zM166.6 336.1c0 0-7 0-7-0.1l-9.2 0c-5.2 0-9.3-1.1-9.3-6.3 0-5.2 4.2-8 9.3-8h9.2l7 0V336.1zM142.7 269.3l7-7 14.4 16 -2.5 2.7 -7.4 0L142.7 269.3z" class="a"/><path d="M331.7 276.9v109.8l38.7 0.1c21.8 0 31.9-19.5 31.9-37.4 0-17.3-11.6-36.2-33.5-36.2H348.2c0-0.2 0-36.1 0-36.3H331.7zM348.3 326.7l8 0h5.7c17.8 0 23.5 13 23.5 24.5 0 11-6.6 22.1-21.9 22.1l-7.3 0c0 0.1-8 0.1-8 0.1V326.7z" class="a"/><rect x="415.2" y="277.2" width="16.7" height="109.7" class="a"/><path d="M503.3 343.2c-2.7-33.1-28.2-33-28.2-33s-29.6-3.1-29.6 37.2c0 7.2 0 6.4 0 7.1 0 0 2.3 32.6 30.9 32.6 18.8 0 27.5-15.3 27.5-25.5H488.6c0 0 0 12.5-12.2 12.5 -10.9 0-15.8-7.9-16.1-18.7 0-0.2 0-0.5 0-0.7h43.5L503.3 343.2zM488.8 342.7h-28.2c0 0 1.4-19.5 14.4-19.5C487.9 323.2 488.8 342.7 488.8 342.7z" class="a"/><path d="M240.8 432.7c-10 0-14.3-0.6-14.3-13.1 0-13.9 0-73.7 0-114.5h39.7v-16.2h-39.7c0-8.4 0-16 0-26.6l-19.9 12.5v12.8h-15.5v16h16.1v115c0 0-2 29.8 25.6 29.8l27.9 0 0-15.8L240.8 432.7z" class="a"/><rect x="253.7" y="397.9" width="250.3" height="14.7" class="a"/></svg>