<?xml version="1.0" encoding="utf-8"?>
<!-- Generator: Adobe Illustrator 16.0.0, SVG Export Plug-In . SVG Version: 6.00 Build 0)  -->
<!DOCTYPE svg PUBLIC "-//W3C//DTD SVG 1.1//EN" "http://www.w3.org/Graphics/SVG/1.1/DTD/svg11.dtd">
<svg version="1.1" id="Calque_1" xmlns="http://www.w3.org/2000/svg" xmlns:xlink="http://www.w3.org/1999/xlink" x="0px" y="0px"
	 width="640px" height="480px" viewBox="0 0 640 480" enable-background="new 0 0 640 480" xml:space="preserve">
<g>
	<path fill="#D0A94F" d="M252.639,69.746c-0.092,0.021-0.354,0.077-0.755,0.176c0.298-1.498,0.521-3.087,0.638-4.798l0.794-12.197
		l-3.379,0.724c-0.104,0.022-1.112,0.24-2.697,0.701c0.234-1.229,0.411-2.522,0.5-3.915l0.714-10.975l-3.374,0.726
		c-0.271,0.057-2.335,0.518-5.18,1.513c-0.037-0.529-0.085-1.067-0.162-1.625l-1.234-8.995l-3.166,1.391
		c-0.317,0.139-4.06,1.813-7.838,4.819c-7.481-8.625-11.764-11.506-11.958-11.632l-0.054,0.09l-0.02-0.032
		c-0.184,0.131-4.296,3.124-12.035,12.19c-4.352-3.504-9.087-5.349-9.446-5.486l-3.227-1.23l-0.796,9.045
		c-0.025,0.314-0.04,0.62-0.053,0.925c-1.985-0.623-3.346-0.927-3.562-0.974l-3.376-0.726l0.718,10.975
		c0.088,1.388,0.265,2.683,0.494,3.908c-1.567-0.456-2.57-0.673-2.671-0.695l-3.376-0.724l0.795,12.197
		c0.113,1.754,0.347,3.384,0.658,4.912c-0.667-0.169-1.092-0.264-1.215-0.29l-3.376-0.719l0.845,12.928
		c0.748,11.423,5.753,18.293,9.826,22.046c4.334,3.997,8.564,5.399,8.958,5.524l12.407,3.985c4.511,4.649,7.469,7.589,9.449,8.734
		l0.406-0.703l0.075,0.064c0.03-0.041,2.526-3.179,7.139-8.132l12.28-3.948c0.417-0.132,4.634-1.538,8.964-5.524
		c4.067-3.752,9.076-10.623,9.82-22.046l0.845-12.928L252.639,69.746z M247.64,59.687l-0.333,5.097
		c-0.159,2.467-0.569,4.759-1.215,6.878c-2.282,0.803-4.96,1.881-7.702,3.278c-1.026-2.349-2.431-4.609-4.224-6.756
		c-0.362-0.436-0.716-0.859-1.065-1.275c1.973-1.549,4.097-2.811,6.047-3.801C242.308,61.5,245.403,60.388,247.64,59.687z
		 M234.31,38.924l0.259,1.865c0.147,1.083,0.197,2.091,0.174,3.031c-0.695,0.331-1.393,0.687-2.094,1.07
		c-0.489-1.21-1.114-2.391-1.878-3.534C231.998,40.385,233.24,39.565,234.31,38.924z M242.782,46.25l-0.25,3.851
		c-0.157,2.393-0.584,4.471-1.182,6.287c-1.419,0.569-2.929,1.241-4.462,2.013c-2.706,1.367-5.089,2.879-7.15,4.514
		c-1.462-1.724-2.78-3.262-3.955-4.624C228.901,51.582,237.838,47.851,242.782,46.25z M206.088,42.857
		c4.259-5.103,7.464-8.398,9.549-10.378c2.171,1.968,5.476,5.261,9.743,10.378c1.306,1.563,2.218,3.206,2.756,4.912
		c-2.33,1.748-4.446,3.848-6.012,6.352c-3.24-3.648-4.654-5.072-4.758-5.173l-1.848-1.853l-1.848,1.853
		c-0.101,0.099-1.446,1.458-4.525,4.911c-1.542-2.377-3.589-4.384-5.822-6.068C203.862,46.078,204.783,44.428,206.088,42.857z
		 M195.171,40.69l0.161-1.875c1.124,0.601,2.428,1.374,3.728,2.309c0.431,0.312,0.825,0.621,1.204,0.925
		c-0.572,0.932-1.056,1.885-1.444,2.859c-1.262-0.684-2.512-1.289-3.713-1.808C195.08,42.342,195.094,41.542,195.171,40.69z
		 M195.314,48.969c3.672,1.856,8.076,4.825,10.187,9.042c-1.192,1.379-2.534,2.946-4.033,4.714
		c-2.006-1.562-4.304-3.011-6.901-4.324c-1.542-0.781-3.061-1.452-4.486-2.025c-0.596-1.813-1.022-3.886-1.18-6.275l-0.253-3.856
		C190.479,46.835,192.867,47.729,195.314,48.969z M192.214,63.057c2.342,1.184,4.284,2.415,5.895,3.653
		c-0.402,0.479-0.811,0.969-1.232,1.474c-1.794,2.151-3.205,4.418-4.227,6.768c-2.557-1.304-5.056-2.333-7.233-3.115
		c-0.68-2.168-1.105-4.519-1.267-7.053l-0.334-5.099C186.022,60.375,189.07,61.474,192.214,63.057z M196.223,104.554l-0.02-0.007
		c-0.034-0.012-3.57-1.16-7.172-4.552c-4.792-4.506-7.472-10.688-7.976-18.38l-0.381-5.838c2.653,0.815,6.528,2.204,10.406,4.262
		c-0.724,3.746-0.546,7.652,0.571,11.624c1.768,6.295,5.441,11.255,7.741,13.908L196.223,104.554z M215.777,114.911
		c-1.819-1.755-4.038-4.045-6.216-6.297c-1.604-1.659-3.264-3.374-4.915-5.034c-1.382-1.389-6.043-6.458-7.973-13.327
		c-1.907-6.789-0.492-13.086,4.213-18.726c7.692-9.227,12.32-14.411,14.633-16.931c2.317,2.521,6.943,7.704,14.638,16.931
		c12.504,14.993-2.056,30.343-3.759,32.047C221.617,108.355,218.048,112.298,215.777,114.911z M249.964,81.614
		c-0.504,7.693-3.188,13.875-7.977,18.38c-3.605,3.392-7.138,4.541-7.162,4.552l-3.156,1.012c2.3-2.647,5.958-7.588,7.728-13.89
		c1.118-3.978,1.291-7.889,0.564-11.643c3.873-2.054,7.738-3.435,10.385-4.25L249.964,81.614z"/>
	<g>
		<g>
			<path fill="#D0A94F" d="M186.888,248"/>
		</g>
		<g>
			<path fill="#D0A94F" d="M369.09,197.323c0,0,9.724-3.19,9.724-10.776c0-13.393,0-35.231,0-35.231s-0.869-22.113-22.126-22.113
				c-14.555,0-32.021,0-32.021,0V248h19.798v-41.509h8.731c0,0,8.149,0.584,8.149,9.901c0,9.314,0,31.608,0,31.608h17.468v-29.863
				c0,0-1.32-12.377-6.986-18.051C369.284,197.548,369.09,197.323,369.09,197.323z M361.638,158.341c0,0,0,11.255,0,20.566
				c0,9.317-10.771,9.606-10.771,9.606h-9.021v-40.072c0,0,7.568,0,12.807,0C362.365,148.441,361.638,158.341,361.638,158.341z"/>
		</g>
		<g>
			<polygon fill="#D0A94F" points="454.172,129.187 402.348,129.187 402.348,248 454.172,248 454.172,231.114 420.984,231.114 
				420.984,206.661 434.372,206.661 453.952,206.661 453.952,188.612 420.984,188.612 420.984,147.819 454.172,147.819 			"/>
		</g>
		<g>
			<g>
				<polygon fill="#D0A94F" points="304.394,129.187 252.575,129.187 252.575,248 304.394,248 304.394,231.114 271.208,231.114 
					271.208,206.661 293.113,206.661 304.178,206.661 304.178,188.612 271.208,188.612 271.208,147.819 304.394,147.819 				"/>
			</g>
			<g>
				<polygon fill="#D0A94F" points="260.725,100.851 270.623,90.957 304.394,113.658 296.417,117.545 285.983,117.545 				"/>
			</g>
		</g>
		<g>
			<path fill="#D0A94F" d="M184.842,184.973c0-13.389,0-34.33,0-34.33s-0.872-21.541-22.129-21.541c-14.552,0-32.024,0-32.024,0
				L130.407,248c0,0,17.472,0,32.023,0c21.26,0,22.13-21.539,22.13-21.539s0-4.805,0-18.195c0-6.087-5.294-10.1-6.228-10.382
				C179.071,197.495,184.842,192.73,184.842,184.973z M147.856,141.761h9.025c0,0,10.773,0.292,10.773,9.611
				c0,9.315,0,27.339,0,27.339s0.729,9.901-6.984,9.901c-5.245,0-12.814,0-12.814,0V141.761z M167.368,216.284c0,0,0,0.13,0,9.443
				c0,9.315-10.771,9.606-10.771,9.606h-9.021v-28.38c0,0,7.567,0,12.814,0C168.1,206.954,167.368,216.284,167.368,216.284z"/>
		</g>
		<g>
			<rect x="206.918" y="129.505" fill="#D0A94F" width="19.531" height="118.495"/>
		</g>
	</g>
	<g>
		<g>
			<path fill="#D0A94F" d="M288.871,310.342c-18.093,0-28.099,13.059-28.099,23.276h15.323c0,0,0.576-11.353,12.776-11.353
				c10.892,0,12.964,9.047,13.287,19.872c0.006,0.233,0.012,0.473,0.015,0.706h-28.06c-11.292,0-20.438,9.151-20.438,20.437
				c0,13.481,9.147,23.49,20.438,23.49l44.559-0.071v-46.646C318.672,340.054,318.672,310.342,288.871,310.342z M302.117,373.355
				c0,0-9.102-0.038-9.102-0.108l-11.973,0.023c-6.701,0-12.134-1.463-12.134-8.165c0-6.704,5.433-10.437,12.134-10.437h11.948
				l9.127,0.03V373.355z"/>
		</g>
	</g>
	<g>
		<g>
			<path fill="#D0A94F" d="M156.46,286.979c-13.905,0-21.596,10.725-21.596,18.575h11.78c0,0,0.437-8.72,9.816-8.72
				c8.371,0,9.963,6.945,10.207,15.266c0.01,0.182,0.012,0.361,0.014,0.541h-21.566c-8.674,0-15.704,7.035-15.704,15.706
				c0,10.363,7.03,18.047,15.704,18.047l34.247-0.052v-35.843C179.361,310.499,179.361,286.979,156.46,286.979z M166.637,336.086
				c0,0-6.995-0.028-6.995-0.078l-9.195,0.013c-5.158,0-9.329-1.118-9.329-6.271c0-5.153,4.17-8.02,9.329-8.02h9.177l7.013,0.019
				V336.086z M142.672,269.349l6.977-6.98l14.368,16.005l-2.46,2.742l-7.358-0.002L142.672,269.349z"/>
		</g>
	</g>
	<g>
		<g>
			<path fill="#D0A94F" d="M331.731,276.854v109.846l38.731,0.071c21.831,0,31.943-19.472,31.943-37.375
				c0-17.305-11.624-36.212-33.455-36.212H348.23c0.005-0.236,0.008-36.098,0.015-36.33H331.731z M348.285,326.74l7.99-0.029h5.735
				c17.796,0,23.456,12.966,23.456,24.507c0,10.976-6.607,22.053-21.937,22.053l-7.271-0.023c0,0.07-7.974,0.108-7.974,0.108V326.74
				z"/>
		</g>
	</g>
	<g>
		<rect x="415.175" y="277.241" fill="#D0A94F" width="16.654" height="109.706"/>
	</g>
	<g>
		<g>
			<path fill="#D0A94F" d="M503.334,343.246c-2.708-33.112-28.236-33.043-28.236-33.043s-29.614-3.053-29.614,37.233
				c0,7.208,0,6.362,0,7.147c0,0,2.263,32.551,30.938,32.551c18.818,0,27.534-15.327,27.534-25.542H488.63
				c0,0-0.009,12.485-12.209,12.485c-10.896,0-15.808-7.91-16.124-18.73c-0.012-0.236-0.012-0.474-0.018-0.709h43.465
				L503.334,343.246z M488.814,342.679h-28.19c0,0,1.435-19.493,14.377-19.493C487.947,323.186,488.814,342.679,488.814,342.679z"/>
		</g>
	</g>
	<path fill="#D0A94F" d="M240.824,432.666c-9.997,0-14.312-0.572-14.312-13.055c0-13.904,0-73.729,0-114.451h39.739v-16.177h-39.739
		c0-8.412,0-15.979,0-26.615l-19.869,12.542v12.845h-15.482v15.986h16.053v114.96c0,0-2.029,29.803,25.583,29.803l27.928-0.015
		l0.015-15.812L240.824,432.666z"/>
	<rect x="253.675" y="397.899" fill="#D0A94F" width="250.28" height="14.656"/>
</g>
</svg>
