<svg xmlns="http://www.w3.org/2000/svg" width="64" height="99" viewBox="0 0 64 99"><title>  pin</title><desc>  Created with Sketch.</desc><g fill="none"><path d="M61.5 31.4L61.5 31.4C61.3 15.7 48.1 2.2 31.7 2.2 15.3 2.2 2 15.5 2 31.9 2 56.5 31.7 95.2 31.7 95.2 31.7 95.2 61.5 55.2 61.5 31.6L61.5 31.4Z" style="stroke-width:4;stroke:#D0A84F"/><path d="M46.4 31.9C46.4 32 46.3 32 46.2 32 46.3 31.4 46.4 30.8 46.4 30.1L46.7 25.3 45.4 25.6C45.3 25.6 44.9 25.7 44.3 25.9 44.4 25.4 44.5 24.9 44.5 24.3L44.8 20 43.5 20.3C43.3 20.3 42.5 20.5 41.4 20.9 41.4 20.7 41.4 20.4 41.3 20.2L40.8 16.7 39.6 17.2C39.5 17.3 38 17.9 36.5 19.1 33.5 15.7 31.8 14.6 31.8 14.5L31.7 14.6 31.7 14.5C31.6 14.6 30 15.8 27 19.4 25.2 18 23.4 17.3 23.2 17.2L21.9 16.7 21.6 20.3C21.6 20.4 21.6 20.5 21.6 20.6 20.8 20.4 20.3 20.3 20.2 20.3L18.8 20 19.1 24.3C19.2 24.9 19.2 25.4 19.3 25.9 18.7 25.7 18.3 25.6 18.3 25.6L16.9 25.3 17.2 30.1C17.3 30.8 17.4 31.5 17.5 32.1 17.2 32 17.1 32 17 31.9L15.7 31.7 16 36.8C16.3 41.3 18.3 44 19.9 45.5 21.6 47.1 23.3 47.6 23.5 47.7L28.4 49.2C30.2 51.1 31.3 52.2 32.1 52.7L32.3 52.4 32.3 52.4C32.3 52.4 33.3 51.2 35.1 49.2L40 47.7C40.2 47.6 41.8 47.1 43.6 45.5 45.2 44 47.2 41.3 47.5 36.8L47.8 31.7 46.4 31.9ZM44.5 28L44.3 30C44.3 31 44.1 31.9 43.9 32.7 43 33 41.9 33.4 40.8 34 40.4 33.1 39.8 32.2 39.1 31.3 39 31.2 38.8 31 38.7 30.8 39.5 30.2 40.3 29.7 41.1 29.3 42.4 28.7 43.6 28.2 44.5 28ZM39.2 19.8L39.3 20.5C39.3 20.9 39.4 21.3 39.4 21.7 39.1 21.8 38.8 22 38.5 22.1 38.3 21.6 38.1 21.2 37.8 20.7 38.3 20.3 38.8 20 39.2 19.8ZM42.5 22.7L42.4 24.2C42.4 25.1 42.2 25.9 42 26.7 41.4 26.9 40.8 27.2 40.2 27.5 39.1 28 38.2 28.6 37.4 29.2 36.8 28.6 36.3 28 35.8 27.4 37 24.8 40.6 23.3 42.5 22.7ZM28 21.3C29.7 19.3 31 18 31.8 17.2 32.6 18 34 19.3 35.6 21.3 36.2 21.9 36.5 22.6 36.7 23.3 35.8 24 35 24.8 34.4 25.8 33.1 24.3 32.5 23.8 32.5 23.7L31.7 23 31 23.7C31 23.8 30.4 24.3 29.2 25.7 28.6 24.7 27.8 23.9 26.9 23.3 27.1 22.6 27.5 21.9 28 21.3ZM23.7 20.5L23.7 19.7C24.2 20 24.7 20.3 25.2 20.6 25.4 20.8 25.5 20.9 25.7 21 25.5 21.4 25.3 21.7 25.1 22.1 24.6 21.9 24.1 21.6 23.7 21.4 23.6 21.1 23.6 20.8 23.7 20.5ZM23.7 23.7C25.2 24.5 26.9 25.6 27.8 27.3 27.3 27.9 26.8 28.5 26.2 29.2 25.4 28.6 24.5 28 23.4 27.5 22.8 27.2 22.2 26.9 21.7 26.7 21.4 25.9 21.3 25.1 21.2 24.2L21.1 22.7C21.8 22.9 22.8 23.2 23.7 23.7ZM22.5 29.3C23.4 29.8 24.2 30.3 24.8 30.7 24.7 30.9 24.5 31.1 24.4 31.3 23.6 32.2 23.1 33.1 22.7 34 21.7 33.5 20.7 33.1 19.8 32.8 19.5 31.9 19.4 31 19.3 30L19.2 28C20.1 28.2 21.3 28.7 22.5 29.3ZM24.1 45.7L24.1 45.7C24.1 45.7 22.7 45.2 21.2 43.9 19.3 42.1 18.3 39.7 18.1 36.6L17.9 34.3C19 34.7 20.5 35.2 22.1 36 21.8 37.5 21.8 39 22.3 40.6 23 43.1 24.4 45.1 25.4 46.1L24.1 45.7ZM31.8 49.8C31.1 49.1 30.2 48.2 29.4 47.3 28.7 46.7 28.1 46 27.4 45.3 26.9 44.8 25 42.8 24.3 40.1 23.5 37.4 24.1 34.9 25.9 32.7 29 29 30.8 27 31.7 26 32.7 27 34.5 29 37.5 32.7 42.5 38.6 36.7 44.6 36.1 45.3 34.2 47.2 32.7 48.8 31.8 49.8ZM45.4 36.6C45.2 39.7 44.1 42.1 42.2 43.9 40.8 45.2 39.4 45.7 39.4 45.7L38.1 46.1C39.1 45.1 40.5 43.1 41.2 40.6 41.6 39 41.7 37.5 41.4 36 43 35.2 44.5 34.7 45.5 34.3L45.4 36.6Z" fill="#D0A94E"/><rect x="-18" y="-1" width="100" height="100"/></g></svg>