<?xml version="1.0" encoding="UTF-8"?>
<svg width="64px" height="99px" viewBox="0 0 64 99" version="1.1" xmlns="http://www.w3.org/2000/svg" xmlns:xlink="http://www.w3.org/1999/xlink">
    <!-- Generator: Sketch 43.1 (39012) - http://www.bohemiancoding.com/sketch -->
    <title>pin</title>
    <desc>Created with Sketch.</desc>
    <defs></defs>
    <g id="Page-1" stroke="none" stroke-width="1" fill="none" fill-rule="evenodd">
        <g id="pin" transform="translate(-18.000000, -1.000000)">
            <path d="M79.4737128,32.375 L79.4676053,32.375 C79.3428383,16.7083333 66.0835115,3.15318518 49.7381651,3.15318518 C33.3151666,3.15318518 20.001745,16.5412222 20.001745,32.9242037 C20.001745,57.5069444 49.7381651,96.1801111 49.7381651,96.1801111 C49.7381651,96.1801111 79.4684778,56.2013889 79.4684778,32.5969444 L79.4737128,32.375 Z" id="Shape" stroke="#D0A84F" stroke-width="4"></path>
            <path d="M64.4493258,32.9477037 C64.4135535,32.955537 64.3097264,32.9781667 64.1500596,33.0173333 C64.2687191,32.4254815 64.3577137,31.7979444 64.402211,31.1207963 L64.7180547,26.2998148 L63.3805178,26.587037 C63.3395105,26.5957407 62.9390347,26.6819074 62.3099648,26.8638148 C62.4024494,26.3781481 62.4739941,25.8663704 62.508894,25.3171667 L62.7924553,20.9792407 L61.4549184,21.266463 C61.3476014,21.2882222 60.5291998,21.4701296 59.402807,21.863537 C59.3879746,21.6555185 59.3679072,21.4431481 59.3391148,21.2220741 L58.8496444,17.6674815 L57.5949946,18.2166852 C57.4693552,18.2706481 55.9861114,18.933 54.4889077,20.1210556 C51.5250376,16.7118148 49.8271597,15.5733704 49.7512526,15.5237593 L49.7285677,15.5594444 L49.7207152,15.5455185 C49.648298,15.5977407 48.0193473,16.7805741 44.9525227,20.3647593 C43.226725,18.9791296 41.3517303,18.2506296 41.2095134,18.1966667 L39.9321788,17.7092593 L39.6172076,21.2838704 C39.6067377,21.4092037 39.6015027,21.5284444 39.5953952,21.6494259 C38.8101485,21.4031111 38.2700733,21.283 38.1854411,21.2655926 L36.8479043,20.9783704 L37.1314656,25.3162963 C37.1672379,25.8646296 37.2370376,26.3764074 37.3295222,26.8603333 C36.7065598,26.6801667 36.3104465,26.594 36.2703117,26.5861667 L34.9319023,26.2998148 L35.246001,31.1207963 C35.2922433,31.8144815 35.3838554,32.4576852 35.5068774,33.0617222 C35.2433835,32.9947037 35.0749917,32.9581481 35.0261319,32.9468333 L33.688595,32.6630926 L34.0236336,37.773037 C34.3194099,42.2885185 36.302594,45.0040741 37.9158398,46.4871852 C39.6346575,48.066037 41.310723,48.620463 41.4668999,48.6709444 L46.3816717,50.2463148 C48.1694167,52.084537 49.3420518,53.2464815 50.1255535,53.6990741 L50.2869653,53.4222963 L50.3166302,53.4466667 C50.3297176,53.4301296 51.316511,52.1907222 53.1443908,50.2315185 L58.0120479,48.6718148 C58.1760772,48.6187222 59.8469077,48.0634259 61.5622355,46.4880556 C63.1754812,45.0049444 65.1586654,42.2902593 65.4535691,37.7739074 L65.7886077,32.663963 L64.4493258,32.9477037 Z M62.4696317,28.9727222 L62.3378847,30.9867593 C62.275065,31.9615741 62.1119082,32.8667593 61.8553942,33.7049259 C60.9506155,34.0217407 59.8905325,34.4482222 58.8042745,35.0009074 C58.3976913,34.0730926 57.8410386,33.1783519 57.1308266,32.3306111 C56.9877372,32.1591481 56.8463928,31.9911667 56.7085383,31.8266667 C57.4902951,31.2147963 58.3313815,30.7160741 59.1044133,30.323537 C60.3564455,29.6881667 61.5814304,29.2486296 62.4696317,28.9727222 Z M57.1866663,20.7651296 L57.2896209,21.5023333 C57.3463332,21.9296852 57.3672731,22.3283148 57.3594206,22.7017037 C57.0845843,22.8313889 56.8071304,22.9732593 56.5279316,23.1238333 C56.3342374,22.6451296 56.087321,22.1786111 55.7836922,21.7268889 C56.2714177,21.3421852 56.7635056,21.0184074 57.1866663,20.7651296 Z M60.5457772,23.6608519 L60.4454402,25.1831296 C60.3843654,26.1283519 60.2133561,26.9499815 59.9769096,27.6671667 C59.415022,27.893463 58.817362,28.1563148 58.2101045,28.4635556 C57.1378065,29.0031852 56.192893,29.602 55.3762364,30.2478148 C54.7968989,29.5654444 54.2751461,28.9587963 53.809233,28.420037 C55.0446878,25.7680185 58.585278,24.2936111 60.5457772,23.6608519 Z M46.0064983,22.3196111 C47.6939062,20.302963 48.9625159,19.0008889 49.7896424,18.2166852 C50.6481788,18.9956667 51.9586683,20.296 53.6495662,22.3196111 C54.1669565,22.9375741 54.5290425,23.586 54.7410591,24.260537 C53.817958,24.9516111 52.9803615,25.7819444 52.3600166,26.7706852 C51.075702,25.3302222 50.5146869,24.7662222 50.474552,24.7261852 L49.7425276,23.9933333 L49.0105032,24.7261852 C48.9703683,24.7653519 48.4364006,25.3015 47.2157782,26.6671111 C46.6059033,25.7271111 45.7944817,24.9350741 44.9088979,24.2692407 C45.1226595,23.592963 45.487363,22.9410556 46.0064983,22.3196111 Z M41.679789,21.4631667 L41.7434812,20.7216111 C42.1875818,20.9592222 42.7058447,21.2655926 43.219745,21.6355 C43.3907543,21.7582222 43.5469311,21.8800741 43.6970005,22.0010556 C43.4701514,22.3692222 43.2790747,22.7460926 43.1237704,23.1307963 C42.625575,22.8601111 42.1291246,22.6225 41.6536141,22.4162222 C41.6440166,22.1159444 41.6483791,21.8 41.679789,21.4631667 Z M41.7356287,24.7357593 C43.1918251,25.4703519 44.9368178,26.6427407 45.7735418,28.3095 C45.3006488,28.8543519 44.768426,29.4740556 44.174256,30.1720926 C43.3794118,29.5558704 42.4693981,28.9831667 41.4398525,28.4644259 C40.8282325,28.1563148 40.2270826,27.8908519 39.6617049,27.6645556 C39.4252584,26.9473704 39.2559941,26.1266111 39.1940469,25.1831296 L39.0945823,23.6582407 C39.8204993,23.8923704 40.7662853,24.2448704 41.7356287,24.7357593 Z M40.5080264,30.3043889 C41.43549,30.7717778 42.2041593,31.2583148 42.8436991,31.747463 C42.6849047,31.9372037 42.5226204,32.1304259 42.3551011,32.3306111 C41.6440166,33.180963 41.0847465,34.0765741 40.6807807,35.0052593 C39.6678124,34.4891296 38.6766566,34.083537 37.8137577,33.7745556 C37.5450288,32.9172407 37.376637,31.9876852 37.3111998,30.9867593 L37.1794529,28.9718519 C38.0545667,29.2442778 39.2629741,29.6768519 40.5080264,30.3043889 Z M42.0959697,46.7065185 L42.0872447,46.7039074 C42.0741573,46.6995556 40.6738007,46.2460926 39.2463967,44.9048519 C37.3469722,43.1240741 36.2842716,40.6800741 36.0853425,37.639 L35.9335281,35.3325185 C36.9848862,35.6545556 38.5204797,36.2028889 40.0569458,37.0175556 C39.7716395,38.4989259 39.8414392,40.0420926 40.2837948,41.6122407 C40.9844094,44.0997593 42.4406058,46.0607037 43.3514919,47.1086296 L42.0959697,46.7065185 Z M49.8446097,50.7998704 C49.1239277,50.1061852 48.2435789,49.201 47.3815525,48.3114815 C46.7455027,47.6552222 46.0885129,46.9789444 45.4341407,46.3218148 C44.8870855,45.7726111 43.0400107,43.7681481 42.275704,41.0543333 C41.5201221,38.3709815 42.0802648,35.8817222 43.943917,33.6518333 C46.9915467,30.0058519 48.825534,27.9561296 49.7425276,26.9604259 C50.6595213,27.957 52.4917636,30.0058519 55.5411383,33.6518333 C60.4960449,39.5790556 54.7270992,45.6446667 54.0526595,46.3200741 C52.1575975,48.2087778 50.7432809,49.7676111 49.8446097,50.7998704 Z M63.3901153,37.639 C63.1903136,40.6792037 62.1267406,43.1240741 60.2290611,44.9048519 C58.7999121,46.2460926 57.4013004,46.6995556 57.3925755,46.7039074 L56.1396707,47.1042778 C57.0514294,46.0572222 58.5006458,44.1049815 59.2021329,41.6139815 C59.645361,40.0403519 59.7134157,38.4954444 59.4272369,37.011463 C60.960213,36.1994074 62.4923166,35.6528148 63.5410572,35.3316481 L63.3901153,37.639 Z" id="Shape" fill="#D0A94E" fill-rule="nonzero"></path>
            <rect id="Rectangle" x="0" y="0" width="100" height="100"></rect>
        </g>
    </g>
</svg>