<?xml version="1.0" encoding="utf-8"?>
<!-- Generator: Adobe Illustrator 16.0.0, SVG Export Plug-In . SVG Version: 6.00 Build 0)  -->
<!DOCTYPE svg PUBLIC "-//W3C//DTD SVG 1.1//EN" "http://www.w3.org/Graphics/SVG/1.1/DTD/svg11.dtd">
<svg version="1.1" id="Calque_1" xmlns="http://www.w3.org/2000/svg" xmlns:xlink="http://www.w3.org/1999/xlink" x="0px" y="0px"
	 width="72.5px" height="113.75px" viewBox="0 0 72.5 113.75" enable-background="new 0 0 72.5 113.75" xml:space="preserve">
<path fill="#FFFFFF" d="M-1067.252-198.917c-55.227,0-99.998,44.772-99.998,99.996c0,55.234,44.771,100,99.998,100
	c55.229,0,100.002-44.766,100.002-100C-967.25-154.145-1012.023-198.917-1067.252-198.917z M-1045.171-115.85l-1.152,14.957h-15.337
	v51.974h-19.377v-51.974h-10.338v-14.957h10.338v-10.05c0-4.424,0.111-11.258,3.33-15.498c3.391-4.477,8.044-7.522,16.047-7.522
	c13.044,0,18.536,1.864,18.536,1.864l-2.584,15.311c0,0-4.31-1.245-8.329-1.245c-4.022,0-7.623,1.442-7.623,5.461v11.678H-1045.171z
	"/>
<g>
	<path fill="#FFFFFF" d="M-803.323-111.614c-0.1-3.791-0.245-7.59-0.63-11.362c-0.856-8.453-5.887-14.28-14.22-15.858
		c-4.445-0.84-9.062-0.957-13.609-1.041c-8.322-0.156-16.653-0.136-24.978-0.007c-4.299,0.065-8.637,0.218-12.87,0.877
		c-7.229,1.122-12.169,5.268-14.166,12.438c-0.638,2.297-1.015,4.732-1.07,7.118c-0.215,9.051-0.348,18.106-0.316,27.162
		c0.02,5.759,0.151,11.538,0.653,17.274c0.739,8.483,5.814,14.293,14.143,15.893c4.48,0.86,9.136,0.969,13.72,1.057
		c8.288,0.157,16.582,0.107,24.87,0.018c3.864-0.043,7.737-0.255,11.581-0.637c3.563-0.347,6.896-1.516,9.761-3.79
		c4.645-3.693,6.437-8.783,6.709-14.429c0.37-7.616,0.446-15.25,0.648-22.875c-0.067-0.002-0.136-0.004-0.204-0.004
		C-803.302-103.726-803.22-107.67-803.323-111.614z M-844.328-73.292c-14.26-0.004-25.604-11.468-25.597-25.865
		c0.004-14.185,11.538-25.501,25.97-25.486c14.089,0.016,25.396,11.584,25.378,25.972C-818.594-84.662-830.134-73.29-844.328-73.292
		z M-817.613-119.609c-3.34-0.06-6.059-2.841-5.994-6.125c0.063-3.347,2.766-5.95,6.152-5.918c3.372,0.027,5.93,2.688,5.889,6.125
		C-811.603-122.251-814.361-119.554-817.613-119.609z"/>
	<path fill="#FFFFFF" d="M-844.273-115.625c-9.153,0.027-16.65,7.543-16.635,16.679c0.016,9.14,7.552,16.657,16.679,16.638
		c9.143-0.02,16.653-7.55,16.636-16.682C-827.611-108.132-835.153-115.655-844.273-115.625z"/>
	<path fill="#FFFFFF" d="M-844.25-198.917c-55.229,0-100,44.77-100,99.996c0,55.231,44.771,100,100,100c55.227,0,100-44.769,100-100
		C-744.25-154.147-789.023-198.917-844.25-198.917z M-794.35-83.213c-0.059,5.253-0.232,10.521-1.982,15.566
		c-3.352,9.676-10.16,15.551-20.11,17.463c-4.516,0.866-9.206,0.958-13.826,1.143c-4.666,0.183-9.346,0.038-14.021,0.038
		c0,0.048,0,0.095,0,0.141c-6.754-0.119-13.509-0.181-20.258-0.374c-5.828-0.167-11.479-1.222-16.535-4.328
		c-6.631-4.07-10.677-10.05-11.969-17.648c-0.771-4.542-1.043-9.21-1.116-13.828c-0.15-9.892-0.09-19.792,0.018-29.686
		c0.057-5.248,0.23-10.52,1.982-15.566c3.35-9.675,10.16-15.547,20.108-17.46c4.517-0.867,9.208-1.06,13.824-1.13
		c9.931-0.152,19.865-0.094,29.796,0.016c5.214,0.055,10.446,0.231,15.459,1.961c9.719,3.357,15.621,10.18,17.521,20.181
		c0.855,4.521,1.053,9.208,1.123,13.827C-794.185-103.005-794.243-93.105-794.35-83.213z"/>
</g>
<path fill="#D0A84F" d="M-602.51-7.166h-119.203v-195.167h119.203V-7.166z M-716.713-12.166h109.203v-185.167h-109.203V-12.166z"/>
<rect x="-719.213" y="-29.307" fill="#D0A84F" width="114.203" height="5"/>
<path fill="#D0A84F" d="M-662.111-10.224c-4.406,0-7.991-3.585-7.991-7.991s3.585-7.99,7.991-7.99s7.991,3.584,7.991,7.99
	S-657.705-10.224-662.111-10.224z M-662.111-21.205c-1.649,0-2.991,1.342-2.991,2.99c0,1.649,1.342,2.991,2.991,2.991
	s2.991-1.342,2.991-2.991C-659.12-19.863-660.462-21.205-662.111-21.205z"/>
<polygon fill="#D0A84F" points="-609.335,-39.853 -614.335,-39.853 -614.335,-189.667 -692.449,-189.667 -692.449,-194.667 
	-609.335,-194.667 "/>
<polygon fill="#D0A84F" points="-679.271,-30.377 -715.103,-30.377 -715.103,-110.003 -710.103,-110.003 -710.103,-35.377 
	-679.271,-35.377 "/>
<rect x="-674.408" y="-176.074" transform="matrix(0.7071 0.7071 -0.7071 0.7071 -304.4413 430.5233)" fill="#D0A94F" width="4.999" height="47.686"/>
<rect x="-667.774" y="-169.441" transform="matrix(0.7071 0.7071 -0.7071 0.7071 -284.0038 433.4931)" fill="#D0A94F" width="4.999" height="86.729"/>
<rect x="-657.549" y="-113.783" transform="matrix(0.7071 0.7071 -0.7071 0.7071 -250.7091 438.8131)" fill="#D0A84F" width="4.999" height="61.113"/>
<rect x="-547.25" y="-153.25" fill="none" stroke="#D0A84F" stroke-width="4" stroke-miterlimit="10" width="191" height="115"/>
<polyline fill="none" stroke="#D0A84F" stroke-width="4" stroke-miterlimit="10" points="-545.333,-152.564 -464.583,-68.25 
	-456.25,-68.25 "/>
<rect x="-447.25" y="-83.25" fill="none" stroke="#D0A84F" stroke-width="4" stroke-miterlimit="10" width="14" height="14"/>
<rect x="-425.25" y="-102.25" fill="none" stroke="#D0A84F" stroke-width="4" stroke-miterlimit="10" width="14" height="14"/>
<rect x="-403.25" y="-124.25" fill="none" stroke="#D0A84F" stroke-width="4" stroke-miterlimit="10" width="14" height="14"/>
<rect x="-378.25" y="-144.25" fill="none" stroke="#D0A84F" stroke-width="4" stroke-miterlimit="10" width="14" height="14"/>
<path fill="#D0A94F" d="M-90.25-37.25h-193v-118h193V-37.25z M-279.25-41.25h185v-110h-185V-41.25z"/>
<path fill="#D0A94F" d="M-230.25-134.25h-13v-21h13V-134.25z M-239.25-138.25h5v-13h-5V-138.25z"/>
<path fill="#D0A94F" d="M-198.25-134.25h-13v-21h13V-134.25z M-207.25-138.25h5v-13h-5V-138.25z"/>
<path fill="#D0A94F" d="M-167.25-134.25h-13v-21h13V-134.25z M-176.25-138.25h5v-13h-5V-138.25z"/>
<path fill="#D0A94F" d="M-135.25-134.25h-13v-21h13V-134.25z M-144.25-138.25h5v-13h-5V-138.25z"/>
<rect x="-252.25" y="-115.25" fill="#D0A94F" width="131" height="4"/>
<rect x="-252.25" y="-95.25" fill="#D0A94F" width="131" height="4"/>
<rect x="-252.25" y="-74.25" fill="#D0A94F" width="131" height="4"/>
<g>
	<path fill="#D0A94E" d="M295.75-131.761v4.511h-109v-13h-28v-5h-12v5h-1v17h1v5h12v-5h11v64h37.157l11.075,18h50.768v-18h27v3.1
		l33,19.079v-118.826L295.75-131.761z M150.75-141.25h4v1h-4V-141.25z M150.75-136.25h4v9h-4V-136.25z M154.75-122.25h-4v-1h4
		V-122.25z M158.75-127.25v-9h24v9h-12.729H158.75z M264.75-45.25h-44.545l-8.586-14h53.131V-45.25z M269.827-63.25h-65.409H173.75
		v-60h13.839H295.75v60H269.827z M324.75-44.077l-25-14.356v-1.846v-68.242v-1.234l25-18.161V-44.077z"/>
	<rect x="184.75" y="-70.25" fill="#D0A94E" width="52" height="4"/>
	<rect x="178.75" y="-80.25" fill="#D0A94E" width="32" height="4"/>
	<rect x="316.75" y="-134.25" fill="#D0A94E" width="4" height="82"/>
</g>
<path fill="none" stroke="#D0A84F" stroke-width="4" stroke-miterlimit="10" d="M70.165,36.75h-0.007
	c-0.143-18-15.34-33.574-34.074-33.574c-18.823,0-34.082,15.382-34.082,34.205c0,28.244,34.082,72.677,34.082,72.677
	s34.075-45.933,34.075-73.053L70.165,36.75z"/>
<path fill="#D0A94E" d="M52.945,37.408c-0.041,0.009-0.16,0.035-0.343,0.08c0.136-0.68,0.238-1.401,0.289-2.179l0.362-5.539
	L51.72,30.1c-0.047,0.01-0.506,0.109-1.227,0.318c0.106-0.558,0.188-1.146,0.228-1.777l0.325-4.984l-1.533,0.33
	c-0.123,0.025-1.061,0.234-2.352,0.686c-0.017-0.239-0.04-0.483-0.073-0.737l-0.561-4.084l-1.438,0.631
	c-0.144,0.062-1.844,0.823-3.56,2.188c-3.397-3.917-5.343-5.225-5.43-5.282l-0.026,0.041l-0.009-0.016
	c-0.083,0.06-1.95,1.419-5.465,5.537c-1.978-1.592-4.127-2.429-4.29-2.491L24.845,19.9l-0.361,4.107
	c-0.012,0.144-0.018,0.281-0.025,0.42c-0.9-0.283-1.519-0.421-1.616-0.441l-1.533-0.33l0.325,4.984
	c0.041,0.63,0.121,1.218,0.227,1.774c-0.714-0.207-1.168-0.306-1.214-0.315l-1.534-0.329l0.36,5.539
	c0.053,0.797,0.158,1.536,0.299,2.23c-0.302-0.077-0.495-0.119-0.551-0.132l-1.533-0.326l0.384,5.871
	c0.339,5.188,2.612,8.308,4.461,10.012c1.97,1.814,3.891,2.451,4.07,2.509l5.633,1.81c2.049,2.112,3.393,3.447,4.291,3.967
	l0.185-0.318l0.034,0.028c0.015-0.019,1.146-1.443,3.241-3.694l5.579-1.792c0.188-0.061,2.103-0.699,4.069-2.509
	c1.849-1.704,4.122-4.823,4.46-10.012l0.384-5.871L52.945,37.408z M50.676,32.841l-0.151,2.314c-0.072,1.12-0.259,2.16-0.553,3.123
	c-1.037,0.364-2.252,0.854-3.497,1.489c-0.466-1.066-1.104-2.094-1.918-3.068c-0.164-0.197-0.326-0.39-0.484-0.579
	c0.896-0.703,1.86-1.276,2.746-1.727C48.254,33.663,49.658,33.158,50.676,32.841z M44.621,23.411l0.118,0.847
	c0.065,0.491,0.089,0.949,0.08,1.378c-0.315,0.149-0.633,0.312-0.953,0.485c-0.222-0.55-0.505-1.086-0.853-1.605
	C43.572,24.074,44.136,23.702,44.621,23.411z M48.471,26.738l-0.115,1.749c-0.07,1.086-0.266,2.03-0.537,2.854
	c-0.644,0.26-1.329,0.562-2.025,0.915c-1.229,0.62-2.312,1.308-3.248,2.05c-0.664-0.784-1.262-1.481-1.796-2.1
	C42.166,29.159,46.224,27.465,48.471,26.738z M31.807,25.197c1.934-2.317,3.388-3.813,4.336-4.714
	c0.984,0.895,2.486,2.389,4.424,4.714c0.593,0.71,1.008,1.455,1.251,2.23c-1.058,0.794-2.018,1.748-2.729,2.884
	c-1.472-1.655-2.115-2.303-2.161-2.349l-0.839-0.842l-0.839,0.842c-0.046,0.045-0.658,0.661-2.057,2.23
	c-0.699-1.08-1.629-1.99-2.644-2.755C30.794,26.66,31.212,25.911,31.807,25.197z M26.848,24.213l0.073-0.852
	c0.509,0.273,1.103,0.625,1.692,1.05c0.196,0.141,0.375,0.281,0.547,0.42c-0.26,0.423-0.479,0.856-0.657,1.298
	c-0.571-0.311-1.14-0.584-1.685-0.821C26.807,24.963,26.812,24.6,26.848,24.213z M26.912,27.973
	c1.669,0.844,3.669,2.191,4.628,4.106c-0.542,0.626-1.152,1.338-1.833,2.14c-0.911-0.708-1.954-1.366-3.134-1.962
	c-0.701-0.354-1.39-0.659-2.038-0.919c-0.271-0.824-0.465-1.767-0.536-2.851l-0.114-1.752
	C24.717,27.004,25.801,27.409,26.912,27.973z M25.505,34.371c1.063,0.537,1.944,1.096,2.677,1.658
	c-0.182,0.218-0.368,0.44-0.56,0.67c-0.815,0.977-1.456,2.006-1.919,3.073c-1.161-0.593-2.297-1.059-3.286-1.414
	c-0.308-0.985-0.501-2.053-0.576-3.203l-0.151-2.315C22.693,33.153,24.078,33.65,25.505,34.371z M27.325,53.216l-0.01-0.003
	c-0.015-0.005-1.62-0.526-3.256-2.067c-2.177-2.046-3.395-4.854-3.623-8.348l-0.174-2.65c1.205,0.37,2.965,1,4.726,1.936
	c-0.327,1.702-0.247,3.475,0.26,5.279c0.803,2.858,2.472,5.111,3.516,6.315L27.325,53.216z M36.206,57.919
	c-0.826-0.797-1.835-1.837-2.823-2.859c-0.729-0.754-1.482-1.531-2.232-2.286c-0.627-0.631-2.744-2.934-3.62-6.052
	c-0.866-3.083-0.224-5.943,1.912-8.505c3.493-4.189,5.595-6.544,6.646-7.688c1.051,1.145,3.151,3.499,6.646,7.688
	c5.679,6.81-0.933,13.779-1.706,14.555C38.857,54.942,37.236,56.733,36.206,57.919z M51.731,42.798
	c-0.229,3.493-1.448,6.302-3.623,8.348c-1.638,1.541-3.241,2.062-3.251,2.067l-1.436,0.46c1.045-1.203,2.706-3.446,3.51-6.308
	c0.508-1.808,0.586-3.583,0.258-5.288c1.757-0.933,3.513-1.561,4.715-1.93L51.731,42.798z"/>
</svg>
