<svg xmlns="http://www.w3.org/2000/svg" width="217" height="335" viewBox="0 0 216.5 335"><style>.a{fill:#D0A94F;}.b{fill:none;stroke-width:4;stroke:#D0A94F;}.c{fill:#D0A94E;}.d{fill:none;stroke-linejoin:round;stroke-width:8;stroke:#D0A94F;}</style><path d="M-678.5-243.2c-55.2 0-100 44.8-100 100 0 55.2 44.8 100 100 100 55.2 0 100-44.8 100-100C-578.5-198.4-623.3-243.2-678.5-243.2zM-656.4-160.1l-1.2 15h-15.3v52h-19.4v-52h-10.3V-160.1h10.3v-10c0-4.4 0.1-11.3 3.3-15.5 3.4-4.5 8-7.5 16-7.5 13 0 18.5 1.9 18.5 1.9l-2.6 15.3c0 0-4.3-1.2-8.3-1.2 -4 0-7.6 1.4-7.6 5.5v11.7H-656.4z" class="a"/><path d="M-414.6-155.9c-0.1-3.8-0.2-7.6-0.6-11.4 -0.9-8.5-5.9-14.3-14.2-15.9 -4.4-0.8-9.1-1-13.6-1 -8.3-0.2-16.7-0.1-25 0 -4.3 0.1-8.6 0.2-12.9 0.9 -7.2 1.1-12.2 5.3-14.2 12.4 -0.6 2.3-1 4.7-1.1 7.1 -0.2 9.1-0.3 18.1-0.3 27.2 0 5.8 0.2 11.5 0.7 17.3 0.7 8.5 5.8 14.3 14.1 15.9 4.5 0.9 9.1 1 13.7 1.1 8.3 0.2 16.6 0.1 24.9 0 3.9 0 7.7-0.3 11.6-0.6 3.6-0.3 6.9-1.5 9.8-3.8 4.6-3.7 6.4-8.8 6.7-14.4 0.4-7.6 0.4-15.2 0.6-22.9 -0.1 0-0.1 0-0.2 0C-414.6-148-414.5-151.9-414.6-155.9zM-455.6-117.5c-14.3 0-25.6-11.5-25.6-25.9 0-14.2 11.5-25.5 26-25.5 14.1 0 25.4 11.6 25.4 26C-429.8-128.9-441.4-117.5-455.6-117.5zM-428.9-163.9c-3.3-0.1-6.1-2.8-6-6.1 0.1-3.3 2.8-5.9 6.2-5.9 3.4 0 5.9 2.7 5.9 6.1C-422.9-166.5-425.6-163.8-428.9-163.9z" class="a"/><path d="M-455.5-159.9c-9.2 0-16.6 7.5-16.6 16.7 0 9.1 7.6 16.7 16.7 16.6 9.1 0 16.7-7.5 16.6-16.7C-438.9-152.4-446.4-159.9-455.5-159.9z" class="a"/><path d="M-455.5-243.2c-55.2 0-100 44.8-100 100 0 55.2 44.8 100 100 100 55.2 0 100-44.8 100-100C-355.5-198.4-400.3-243.2-455.5-243.2zM-405.6-127.5c-0.1 5.3-0.2 10.5-2 15.6 -3.4 9.7-10.2 15.6-20.1 17.5 -4.5 0.9-9.2 1-13.8 1.1 -4.7 0.2-9.3 0-14 0 0 0 0 0.1 0 0.1 -6.8-0.1-13.5-0.2-20.3-0.4 -5.8-0.2-11.5-1.2-16.5-4.3 -6.6-4.1-10.7-10-12-17.6 -0.8-4.5-1-9.2-1.1-13.8 -0.1-9.9-0.1-19.8 0-29.7 0.1-5.2 0.2-10.5 2-15.6 3.4-9.7 10.2-15.5 20.1-17.5 4.5-0.9 9.2-1.1 13.8-1.1 9.9-0.2 19.9-0.1 29.8 0 5.2 0.1 10.4 0.2 15.5 2 9.7 3.4 15.6 10.2 17.5 20.2 0.9 4.5 1.1 9.2 1.1 13.8C-405.4-147.3-405.5-137.4-405.6-127.5z" class="a"/><path d="M-213.8-51.4h-119.2v-195.2h119.2V-51.4zM-328-56.4h109.2v-185.2h-109.2V-56.4z" class="a"/><rect x="-330.5" y="-73.6" width="114.2" height="5" class="a"/><path d="M-273.4-54.5c-4.4 0-8-3.6-8-8s3.6-8 8-8 8 3.6 8 8S-269-54.5-273.4-54.5zM-273.4-65.5c-1.6 0-3 1.3-3 3 0 1.6 1.3 3 3 3s3-1.3 3-3C-270.4-64.1-271.7-65.5-273.4-65.5z" class="a"/><polygon points="-220.6 -84.1 -225.6 -84.1 -225.6 -233.9 -303.7 -233.9 -303.7 -238.9 -220.6 -238.9 " class="a"/><polygon points="-290.5 -74.6 -326.4 -74.6 -326.4 -154.3 -321.4 -154.3 -321.4 -79.6 -290.5 -79.6 " class="a"/><rect x="-285.7" y="-220.3" transform="matrix(0.7071 0.7071 -0.7071 0.7071 -221.8685 142.675)" width="5" height="47.7" class="a"/><rect x="-279" y="-213.7" transform="matrix(0.7071 0.7071 -0.7071 0.7071 -201.4311 145.6448)" width="5" height="86.7" class="a"/><rect x="-268.8" y="-158" transform="matrix(0.7071 0.7071 -0.7071 0.7071 -168.1363 150.9648)" width="5" height="61.1" class="a"/><rect x="-158.5" y="-197.5" width="191" height="115" class="b"/><polyline points="-156.6 -196.8 -75.8 -112.5 -67.5 -112.5 " class="b"/><rect x="-58.5" y="-127.5" width="14" height="14" class="b"/><rect x="-36.5" y="-146.5" width="14" height="14" class="b"/><rect x="-14.5" y="-168.5" width="14" height="14" class="b"/><rect x="10.5" y="-188.5" width="14" height="14" class="b"/><path d="M298.5-81.5h-193v-118h193V-81.5zM109.5-85.5h185v-110h-185V-85.5z" class="a"/><path d="M158.5-178.5h-13v-21h13V-178.5zM149.5-182.5h5v-13h-5V-182.5z" class="a"/><path d="M190.5-178.5h-13v-21h13V-178.5zM181.5-182.5h5v-13h-5V-182.5z" class="a"/><path d="M221.5-178.5h-13v-21h13V-178.5zM212.5-182.5h5v-13h-5V-182.5z" class="a"/><path d="M253.5-178.5h-13v-21h13V-178.5zM244.5-182.5h5v-13h-5V-182.5z" class="a"/><rect x="136.5" y="-159.5" width="131" height="4" class="a"/><rect x="136.5" y="-139.5" width="131" height="4" class="a"/><rect x="136.5" y="-118.5" width="131" height="4" class="a"/><path d="M457.5-176v4.5h-109v-13h-28v-5h-12v5h-1v17h1v5h12v-5h11v64h37.5l11.1 18H430.5v-18h27v3.1l33 19.1v-118.8L457.5-176zM312.5-185.5h4v1h-4V-185.5zM312.5-180.5h4v9h-4V-180.5zM316.5-166.5h-4v-1h4V-166.5zM320.5-171.5v-9h24v9h-12.4H320.5zM426.5-89.5h-44.2l-8.6-14H426.5V-89.5zM431.9-107.5h-65.4H335.5v-60h14.2H457.5v60H431.9zM486.5-88.3l-25-14.4v-1.8 -68.2 -1.2l25-18.2V-88.3z" class="c"/><rect x="346.5" y="-114.5" width="52" height="4" class="c"/><rect x="340.5" y="-124.5" width="32" height="4" class="c"/><rect x="478.5" y="-178.5" width="4" height="82" class="c"/><path d="M-305.2 209.3h11.6v37.6c0 0 0 5.2 5.2 5.2 4.6 0 5.2-3.6 5.2-5.2s0-38.9 0-38.9h10.9v103.8h-75.2V208h31.8l-0.1 15.7v12.6c0 0 0 5.2 5.3 5.2 4.6 0 5.2-3.6 5.2-5.2s0-13.9 0-13.9V209.3z" class="d"/><line x1="-272.2" y1="210.9" x2="-279.7" y2="210.9" class="d"/><line x1="-345.8" y1="300.6" x2="-272.5" y2="300.6" class="d"/><path d="M-271.6 209.6c0 0 5.2-2.3 5.2-11.2s-9.2-9.2-9.2-9.2c-2-3.1-4.4-7.6-9.3-7.6 -9.7 0-11 6.7-11 6.7 0-7.1-2.7-15.2-14-15.2 -9.6 0-13.3 12.1-13.3 12.1 -3.2-20.6-29.2-11.2-22.7 3.1 0 0-11.3-1.5-13.6 8.4 -3.5 14.7 7.7 17.7 13.7 12.9" class="d"/><line x1="-332.9" y1="229.9" x2="-332.9" y2="296.6" class="d"/><line x1="-305.2" y1="262.4" x2="-305.2" y2="296" class="d"/><line x1="-281.7" y1="274" x2="-281.7" y2="296" class="d"/><polygon points=" -421.4 297.1 -454 277.8 -454 193 -421.4 168.7 " class="d"/><rect x="-600.2" y="197.9" width="146.2" height="74.1" class="d"/><polygon points=" -489.7 292.5 -545.9 292.5 -558.7 272 -489.7 272 " class="d"/><rect x="-627" y="182.7" width="42.5" height="15.2" class="d"/><rect x="-628.5" y="176.6" width="9" height="26.2" class="d"/><line x1="-580.6" y1="259" x2="-520.6" y2="259" class="d"/><line x1="-587.7" y1="247.3" x2="-550.6" y2="247.3" class="d"/><line x1="-434.4" y1="195.4" x2="-434.4" y2="269.4" class="d"/><rect x="-193.8" y="143.2" width="117.4" height="195.4" class="d"/><line x1="-193.8" y1="321.1" x2="-76.5" y2="321.1" class="d"/><circle cx="-135.1" cy="330.3" r="2.1" style="fill:#EBB44A;stroke:#D0A94F"/><polyline points=" -170.9 154.1 -88.1 154.1 -88.1 310.6 " class="d"/><polyline points=" -180.5 230.4 -180.5 309.6 -146.2 309.6 " class="d"/><line x1="-152.9" y1="209.6" x2="-127.9" y2="184.5" class="d"/><line x1="-160.9" y1="247.7" x2="-109.3" y2="196.1" class="d"/><line x1="-146" y1="269.3" x2="-109.7" y2="232.9" class="d"/><path d="M87.5 78.8V10c0-3.4-2.7-6.1-6.1-6.1 -3.4 0-6.1 2.7-6.1 6.1v67.8H65.8v-67.8c0-3.4-2.7-6.1-6.1-6.1 -3.4 0-6.1 2.7-6.1 6.1v67.8h-9.5v-67.8c0-3.4-2.7-6.1-6.1-6.1 -3.4 0-6.1 2.7-6.1 6.1v67.8h-9.5v-67.8c0-3.4-2.7-6.1-6.1-6.1 -3.3 0-6.1 2.7-6.1 6.1v69c-3.3 1.7-5.6 5-5.6 8.8v57.4c0 5.5 4.7 9.9 10.6 9.9h20v161.8c0 7.4 6 13.4 13.4 13.4 7.4 0 13.4-6 13.4-13.4V155.1h20.8c5.9 0 10.6-4.4 10.6-9.9V87.8C93.6 83.8 91.1 80.4 87.5 78.8z" class="d"/><path d="M211.2 80.6c0-42.3-21.8-76.6-48.7-76.6S113.8 38.3 113.8 80.6c0 34.8 14.7 64.1 34.9 73.5v162.4c0 7.6 6.2 13.8 13.8 13.8s13.8-6.2 13.8-13.8V154.1C196.4 144.8 211.2 115.4 211.2 80.6z" class="d"/></svg>