<?xml version="1.0" encoding="utf-8"?>
<!-- Generator: Adobe Illustrator 16.0.0, SVG Export Plug-In . SVG Version: 6.00 Build 0)  -->
<!DOCTYPE svg PUBLIC "-//W3C//DTD SVG 1.1//EN" "http://www.w3.org/Graphics/SVG/1.1/DTD/svg11.dtd">
<svg version="1.1" id="Calque_1" xmlns="http://www.w3.org/2000/svg" xmlns:xlink="http://www.w3.org/1999/xlink" x="0px" y="0px"
	 width="216.5px" height="335px" viewBox="0 0 216.5 335" enable-background="new 0 0 216.5 335" xml:space="preserve">
<path fill="#D0A94F" d="M-678.502-243.167c-55.227,0-99.998,44.772-99.998,99.996c0,55.234,44.771,100,99.998,100
	c55.229,0,100.002-44.766,100.002-100C-578.5-198.395-623.273-243.167-678.502-243.167z M-656.421-160.1l-1.152,14.957h-15.337
	v51.974h-19.377v-51.974h-10.338V-160.1h10.338v-10.05c0-4.424,0.111-11.258,3.33-15.498c3.391-4.477,8.044-7.522,16.047-7.522
	c13.044,0,18.536,1.864,18.536,1.864l-2.584,15.311c0,0-4.31-1.245-8.329-1.245c-4.022,0-7.623,1.442-7.623,5.461v11.678H-656.421z"
	/>
<g>
	<path fill="#D0A94F" d="M-414.573-155.864c-0.1-3.791-0.245-7.59-0.63-11.362c-0.856-8.453-5.887-14.28-14.22-15.858
		c-4.445-0.84-9.062-0.957-13.609-1.041c-8.322-0.156-16.653-0.136-24.978-0.007c-4.299,0.065-8.637,0.218-12.87,0.877
		c-7.229,1.122-12.169,5.268-14.166,12.438c-0.638,2.297-1.015,4.732-1.07,7.118c-0.215,9.051-0.348,18.106-0.316,27.162
		c0.02,5.759,0.151,11.538,0.653,17.274c0.739,8.483,5.814,14.293,14.143,15.893c4.48,0.86,9.136,0.969,13.72,1.057
		c8.288,0.157,16.582,0.107,24.87,0.018c3.864-0.043,7.737-0.255,11.581-0.637c3.563-0.347,6.896-1.516,9.761-3.79
		c4.645-3.693,6.437-8.783,6.709-14.429c0.37-7.616,0.446-15.25,0.648-22.875c-0.067-0.002-0.136-0.004-0.204-0.004
		C-414.552-147.976-414.47-151.92-414.573-155.864z M-455.578-117.542c-14.26-0.004-25.604-11.468-25.597-25.865
		c0.004-14.185,11.538-25.501,25.97-25.486c14.089,0.016,25.396,11.584,25.378,25.972
		C-429.844-128.912-441.384-117.54-455.578-117.542z M-428.863-163.859c-3.34-0.06-6.059-2.841-5.994-6.125
		c0.063-3.347,2.766-5.95,6.152-5.918c3.372,0.027,5.93,2.688,5.889,6.125C-422.853-166.501-425.611-163.804-428.863-163.859z"/>
	<path fill="#D0A94F" d="M-455.523-159.875c-9.153,0.027-16.65,7.543-16.635,16.679c0.016,9.14,7.552,16.657,16.679,16.638
		c9.143-0.02,16.653-7.55,16.636-16.682C-438.861-152.382-446.403-159.905-455.523-159.875z"/>
	<path fill="#D0A94F" d="M-455.5-243.167c-55.229,0-100,44.77-100,99.996c0,55.231,44.771,100,100,100c55.227,0,100-44.769,100-100
		C-355.5-198.397-400.273-243.167-455.5-243.167z M-405.6-127.463c-0.059,5.253-0.232,10.521-1.982,15.566
		c-3.352,9.676-10.16,15.551-20.11,17.463c-4.516,0.866-9.206,0.958-13.826,1.143c-4.666,0.183-9.346,0.038-14.021,0.038
		c0,0.048,0,0.095,0,0.141c-6.754-0.119-13.509-0.181-20.258-0.374c-5.828-0.167-11.479-1.222-16.535-4.328
		c-6.631-4.07-10.677-10.05-11.969-17.648c-0.771-4.542-1.043-9.21-1.116-13.828c-0.15-9.892-0.09-19.792,0.018-29.686
		c0.057-5.248,0.23-10.52,1.982-15.566c3.35-9.675,10.16-15.547,20.108-17.46c4.517-0.867,9.208-1.06,13.824-1.13
		c9.931-0.152,19.865-0.094,29.796,0.016c5.214,0.055,10.446,0.231,15.459,1.961c9.719,3.357,15.621,10.18,17.521,20.181
		c0.855,4.521,1.053,9.208,1.123,13.827C-405.435-147.255-405.493-137.355-405.6-127.463z"/>
</g>
<path fill="#D0A94F" d="M-213.76-51.416h-119.203v-195.167h119.203V-51.416z M-327.963-56.416h109.203v-185.167h-109.203V-56.416z"
	/>
<rect x="-330.463" y="-73.557" fill="#D0A94F" width="114.203" height="5"/>
<path fill="#D0A94F" d="M-273.361-54.474c-4.406,0-7.991-3.585-7.991-7.991s3.585-7.99,7.991-7.99s7.991,3.584,7.991,7.99
	S-268.955-54.474-273.361-54.474z M-273.361-65.455c-1.649,0-2.991,1.342-2.991,2.99c0,1.649,1.342,2.991,2.991,2.991
	s2.991-1.342,2.991-2.991C-270.37-64.113-271.712-65.455-273.361-65.455z"/>
<polygon fill="#D0A94F" points="-220.585,-84.103 -225.585,-84.103 -225.585,-233.917 -303.699,-233.917 -303.699,-238.917 
	-220.585,-238.917 "/>
<polygon fill="#D0A94F" points="-290.521,-74.627 -326.353,-74.627 -326.353,-154.253 -321.353,-154.253 -321.353,-79.627 
	-290.521,-79.627 "/>
<rect x="-285.658" y="-220.324" transform="matrix(0.7071 0.7071 -0.7071 0.7071 -221.8685 142.675)" fill="#D0A94F" width="4.999" height="47.686"/>
<rect x="-279.024" y="-213.691" transform="matrix(0.7071 0.7071 -0.7071 0.7071 -201.4311 145.6448)" fill="#D0A94F" width="4.999" height="86.729"/>
<rect x="-268.799" y="-158.033" transform="matrix(0.7071 0.7071 -0.7071 0.7071 -168.1363 150.9648)" fill="#D0A94F" width="4.999" height="61.113"/>
<rect x="-158.5" y="-197.5" fill="none" stroke="#D0A94F" stroke-width="4" stroke-miterlimit="10" width="191" height="115"/>
<polyline fill="none" stroke="#D0A94F" stroke-width="4" stroke-miterlimit="10" points="-156.583,-196.814 -75.833,-112.5 
	-67.5,-112.5 "/>
<rect x="-58.5" y="-127.5" fill="none" stroke="#D0A94F" stroke-width="4" stroke-miterlimit="10" width="14" height="14"/>
<rect x="-36.5" y="-146.5" fill="none" stroke="#D0A94F" stroke-width="4" stroke-miterlimit="10" width="14" height="14"/>
<rect x="-14.5" y="-168.5" fill="none" stroke="#D0A94F" stroke-width="4" stroke-miterlimit="10" width="14" height="14"/>
<rect x="10.5" y="-188.5" fill="none" stroke="#D0A94F" stroke-width="4" stroke-miterlimit="10" width="14" height="14"/>
<path fill="#D0A94F" d="M298.5-81.5h-193v-118h193V-81.5z M109.5-85.5h185v-110h-185V-85.5z"/>
<path fill="#D0A94F" d="M158.5-178.5h-13v-21h13V-178.5z M149.5-182.5h5v-13h-5V-182.5z"/>
<path fill="#D0A94F" d="M190.5-178.5h-13v-21h13V-178.5z M181.5-182.5h5v-13h-5V-182.5z"/>
<path fill="#D0A94F" d="M221.5-178.5h-13v-21h13V-178.5z M212.5-182.5h5v-13h-5V-182.5z"/>
<path fill="#D0A94F" d="M253.5-178.5h-13v-21h13V-178.5z M244.5-182.5h5v-13h-5V-182.5z"/>
<rect x="136.5" y="-159.5" fill="#D0A94F" width="131" height="4"/>
<rect x="136.5" y="-139.5" fill="#D0A94F" width="131" height="4"/>
<rect x="136.5" y="-118.5" fill="#D0A94F" width="131" height="4"/>
<g>
	<path fill="#D0A94E" d="M457.5-176.011v4.511h-109v-13h-28v-5h-12v5h-1v17h1v5h12v-5h11v64h37.49l11.075,18H430.5v-18h27v3.1
		l33,19.079v-118.826L457.5-176.011z M312.5-185.5h4v1h-4V-185.5z M312.5-180.5h4v9h-4V-180.5z M316.5-166.5h-4v-1h4V-166.5z
		 M320.5-171.5v-9h24v9h-12.396H320.5z M426.5-89.5h-44.212l-8.586-14H426.5V-89.5z M431.91-107.5h-65.409H335.5v-60h14.172H457.5
		v60H431.91z M486.5-88.327l-25-14.356v-1.846v-68.242v-1.235l25-18.161V-88.327z"/>
	<rect x="346.5" y="-114.5" fill="#D0A94E" width="52" height="4"/>
	<rect x="340.5" y="-124.5" fill="#D0A94E" width="32" height="4"/>
	<rect x="478.5" y="-178.5" fill="#D0A94E" width="4" height="82"/>
</g>
<g>
	<path fill="none" stroke="#D0A94F" stroke-width="8" stroke-linecap="round" stroke-linejoin="round" stroke-miterlimit="10" d="
		M-305.164,209.319h11.578v37.588c0,0,0,5.249,5.249,5.249c4.571,0,5.249-3.556,5.249-5.249s0-38.942,0-38.942h10.884v103.801
		h-75.177V207.965h31.83l-0.111,15.698v12.588c0,0,0,5.249,5.25,5.249c4.57,0,5.248-3.556,5.248-5.249s0-13.942,0-13.942V209.319z"
		/>
	
		<line fill="none" stroke="#D0A94F" stroke-width="8" stroke-linecap="round" stroke-linejoin="round" stroke-miterlimit="10" x1="-272.204" y1="210.899" x2="-279.654" y2="210.899"/>
	
		<line fill="none" stroke="#D0A94F" stroke-width="8" stroke-linecap="round" stroke-linejoin="round" stroke-miterlimit="10" x1="-345.8" y1="300.631" x2="-272.458" y2="300.631"/>
	<path fill="none" stroke="#D0A94F" stroke-width="8" stroke-linecap="round" stroke-linejoin="round" stroke-miterlimit="10" d="
		M-343.543,306.396"/>
	<path fill="none" stroke="#D0A94F" stroke-width="8" stroke-linecap="round" stroke-linejoin="round" stroke-miterlimit="10" d="
		M-275.591,306.396"/>
	<path fill="none" stroke="#D0A94F" stroke-width="8" stroke-linecap="round" stroke-linejoin="round" stroke-miterlimit="10" d="
		M-347.138,207.965"/>
	<path fill="none" stroke="#D0A94F" stroke-width="8" stroke-linecap="round" stroke-linejoin="round" stroke-miterlimit="10" d="
		M-347.381,207.965"/>
	<path fill="none" stroke="#D0A94F" stroke-width="8" stroke-linecap="round" stroke-linejoin="round" stroke-miterlimit="10" d="
		M-347.381,207.965"/>
	<path fill="none" stroke="#D0A94F" stroke-width="8" stroke-linecap="round" stroke-linejoin="round" stroke-miterlimit="10" d="
		M-324.354,189.509"/>
	<path fill="none" stroke="#D0A94F" stroke-width="8" stroke-linecap="round" stroke-linejoin="round" stroke-miterlimit="10" d="
		M-295.908,187.676"/>
	<path fill="none" stroke="#D0A94F" stroke-width="8" stroke-linecap="round" stroke-linejoin="round" stroke-miterlimit="10" d="
		M-272.458,208.309"/>
	<path fill="none" stroke="#D0A94F" stroke-width="8" stroke-linecap="round" stroke-linejoin="round" stroke-miterlimit="10" d="
		M-271.551,209.619c0,0,5.221-2.319,5.221-11.206s-9.184-9.184-9.184-9.184c-2.002-3.113-4.392-7.597-9.287-7.597
		c-9.666,0-11,6.721-11,6.721c0-7.138-2.709-15.229-13.992-15.221c-9.626,0.007-13.336,12.115-13.336,12.115
		c-3.172-20.615-29.172-11.201-22.671,3.105c0,0-11.251-1.471-13.585,8.396c-3.469,14.668,7.668,17.689,13.668,12.87"/>
	
		<line fill="none" stroke="#D0A94F" stroke-width="8" stroke-linecap="round" stroke-linejoin="round" stroke-miterlimit="10" x1="-332.933" y1="229.896" x2="-332.933" y2="296.631"/>
	
		<line fill="none" stroke="#D0A94F" stroke-width="8" stroke-linecap="round" stroke-linejoin="round" stroke-miterlimit="10" x1="-305.164" y1="262.401" x2="-305.164" y2="295.954"/>
	
		<line fill="none" stroke="#D0A94F" stroke-width="8" stroke-linecap="round" stroke-linejoin="round" stroke-miterlimit="10" x1="-281.686" y1="273.971" x2="-281.686" y2="295.954"/>
</g>
<polygon fill="none" stroke="#D0A94F" stroke-width="8" stroke-linecap="round" stroke-linejoin="round" stroke-miterlimit="10" points="
	-421.373,297.056 -454.03,277.774 -454.03,193.042 -421.373,168.65 "/>
<rect x="-600.215" y="197.93" fill="none" stroke="#D0A94F" stroke-width="8" stroke-linecap="round" stroke-linejoin="round" stroke-miterlimit="10" width="146.185" height="74.092"/>
<polygon fill="none" stroke="#D0A94F" stroke-width="8" stroke-linecap="round" stroke-linejoin="round" stroke-miterlimit="10" points="
	-489.717,292.549 -545.924,292.549 -558.697,272.021 -489.717,272.021 "/>
<rect x="-627.041" y="182.689" fill="none" stroke="#D0A94F" stroke-width="8" stroke-linecap="round" stroke-linejoin="round" stroke-miterlimit="10" width="42.475" height="15.24"/>
<rect x="-628.504" y="176.58" fill="none" stroke="#D0A94F" stroke-width="8" stroke-linecap="round" stroke-linejoin="round" stroke-miterlimit="10" width="8.979" height="26.187"/>
<line fill="none" stroke="#D0A94F" stroke-width="8" stroke-linecap="round" stroke-linejoin="round" stroke-miterlimit="10" x1="-580.566" y1="258.95" x2="-520.551" y2="258.95"/>
<line fill="none" stroke="#D0A94F" stroke-width="8" stroke-linecap="round" stroke-linejoin="round" stroke-miterlimit="10" x1="-587.718" y1="247.316" x2="-550.559" y2="247.316"/>
<line fill="none" stroke="#D0A94F" stroke-width="8" stroke-linecap="round" stroke-linejoin="round" stroke-miterlimit="10" x1="-434.385" y1="195.354" x2="-434.385" y2="269.401"/>
<rect x="-193.808" y="143.24" fill="none" stroke="#D0A94F" stroke-width="8" stroke-linecap="round" stroke-linejoin="round" stroke-miterlimit="10" width="117.354" height="195.413"/>
<line fill="none" stroke="#D0A94F" stroke-width="8" stroke-linecap="round" stroke-linejoin="round" stroke-miterlimit="10" x1="-193.808" y1="321.127" x2="-76.453" y2="321.127"/>
<circle fill="#EBB44A" stroke="#D0A94F" stroke-miterlimit="10" cx="-135.13" cy="330.288" r="2.116"/>
<polyline fill="none" stroke="#D0A94F" stroke-width="8" stroke-linecap="round" stroke-linejoin="round" stroke-miterlimit="10" points="
	-170.906,154.064 -88.068,154.064 -88.068,310.581 "/>
<polyline fill="none" stroke="#D0A94F" stroke-width="8" stroke-linecap="round" stroke-linejoin="round" stroke-miterlimit="10" points="
	-180.475,230.379 -180.475,309.633 -146.225,309.633 "/>
<line fill="none" stroke="#D0A94F" stroke-width="8" stroke-linecap="round" stroke-linejoin="round" stroke-miterlimit="10" x1="-152.935" y1="209.565" x2="-127.872" y2="184.504"/>
<line fill="none" stroke="#D0A94F" stroke-width="8" stroke-linecap="round" stroke-linejoin="round" stroke-miterlimit="10" x1="-160.921" y1="247.69" x2="-109.339" y2="196.107"/>
<line fill="none" stroke="#D0A94F" stroke-width="8" stroke-linecap="round" stroke-linejoin="round" stroke-miterlimit="10" x1="-146.046" y1="269.278" x2="-109.699" y2="232.931"/>
<path fill="none" stroke="#D0A94F" stroke-width="8" stroke-linecap="round" stroke-linejoin="round" stroke-miterlimit="10" d="
	M-257.426,196.749"/>
<path fill="none" stroke="#D0A94F" stroke-width="8" stroke-linecap="round" stroke-linejoin="round" stroke-miterlimit="10" d="
	M-343.543,189.509"/>
<path fill="none" stroke="#D0A94F" stroke-width="8" stroke-linecap="round" stroke-linejoin="round" stroke-miterlimit="10" d="
	M87.476,78.816V10.044c0-3.353-2.715-6.069-6.064-6.069c-3.351,0-6.067,2.717-6.067,6.069v67.84H65.83v-67.84
	c0-3.353-2.715-6.069-6.068-6.069c-3.351,0-6.065,2.717-6.065,6.069v67.84h-9.515v-67.84c0-3.353-2.719-6.069-6.066-6.069
	c-3.352,0-6.068,2.717-6.068,6.069v67.84h-9.512v-67.84c0-3.353-2.717-6.069-6.068-6.069c-3.35,0-6.068,2.717-6.068,6.069v69.021
	c-3.322,1.676-5.583,4.963-5.583,8.75v57.363c0,5.483,4.742,9.93,10.594,9.93h20.03v161.798c0,7.392,5.991,13.383,13.383,13.383
	c7.391,0,13.38-5.991,13.38-13.383V155.107h20.82c5.852,0,10.593-4.446,10.593-9.93V87.814
	C93.615,83.826,91.102,80.393,87.476,78.816z"/>
<path fill="none" stroke="#D0A94F" stroke-width="8" stroke-linecap="round" stroke-linejoin="round" stroke-miterlimit="10" d="
	M211.156,80.618c0-42.329-21.786-76.644-48.663-76.644S113.83,38.289,113.83,80.618c0,34.785,14.717,64.14,34.875,73.505v162.376
	c0,7.616,6.174,13.789,13.789,13.789s13.788-6.173,13.788-13.789V154.123C196.439,144.756,211.156,115.403,211.156,80.618z"/>
</svg>
