<?xml version="1.0" encoding="utf-8"?>
<!-- Generator: Adobe Illustrator 16.0.0, SVG Export Plug-In . SVG Version: 6.00 Build 0)  -->
<!DOCTYPE svg PUBLIC "-//W3C//DTD SVG 1.1//EN" "http://www.w3.org/Graphics/SVG/1.1/DTD/svg11.dtd">
<svg version="1.1" id="Calque_1" xmlns="http://www.w3.org/2000/svg" xmlns:xlink="http://www.w3.org/1999/xlink" x="0px" y="0px"
	 width="100px" height="100px" viewBox="0 0 100 100" enable-background="new 0 0 100 100" xml:space="preserve">
<path fill="#FFFFFF" d="M-30.398,45.87c-0.094,0.021-0.361,0.08-0.773,0.18c0.307-1.536,0.537-3.167,0.652-4.922l0.818-12.515
	l-3.467,0.745c-0.105,0.021-1.143,0.247-2.77,0.719c0.24-1.26,0.422-2.59,0.514-4.017l0.734-11.259l-3.465,0.744
	c-0.277,0.059-2.395,0.531-5.312,1.551c-0.037-0.542-0.09-1.094-0.166-1.666l-1.266-9.228l-3.248,1.426
	c-0.324,0.141-4.164,1.859-8.041,4.945c-7.676-8.85-12.07-11.804-12.268-11.935l-0.059,0.092l-0.021-0.034
	c-0.188,0.135-4.406,3.205-12.346,12.51c-4.469-3.597-9.325-5.488-9.693-5.628l-3.311-1.263l-0.816,9.28
	c-0.026,0.323-0.041,0.635-0.059,0.949c-2.033-0.64-3.432-0.952-3.652-0.999l-3.462-0.744l0.734,11.259
	c0.092,1.424,0.272,2.752,0.511,4.009c-1.612-0.467-2.639-0.691-2.742-0.712l-3.465-0.745l0.814,12.515
	c0.118,1.8,0.357,3.472,0.675,5.04c-0.683-0.174-1.12-0.271-1.246-0.298l-3.464-0.737l0.867,13.266
	c0.766,11.721,5.903,18.768,10.08,22.619c4.449,4.1,8.79,5.538,9.195,5.668l12.727,4.088c4.629,4.771,7.664,7.788,9.693,8.962
	l0.417-0.72L-67,99.079c0.035-0.042,2.592-3.26,7.324-8.346l12.604-4.048c0.426-0.137,4.752-1.58,9.195-5.668
	c4.176-3.852,9.312-10.898,10.076-22.619l0.867-13.266L-30.398,45.87z M-35.525,35.55l-0.342,5.229
	c-0.164,2.53-0.586,4.882-1.25,7.057c-2.342,0.823-5.088,1.929-7.9,3.363c-1.053-2.408-2.496-4.729-4.334-6.932
	c-0.371-0.446-0.736-0.881-1.094-1.309c2.025-1.587,4.203-2.883,6.205-3.9C-40.998,37.409-37.824,36.268-35.525,35.55z
	 M-49.205,14.246l0.268,1.914c0.148,1.11,0.201,2.144,0.18,3.111c-0.713,0.338-1.43,0.705-2.152,1.098
	c-0.5-1.242-1.141-2.454-1.926-3.626C-51.574,15.745-50.301,14.904-49.205,14.246z M-40.508,21.763l-0.26,3.952
	c-0.16,2.453-0.6,4.587-1.215,6.45c-1.453,0.585-3.002,1.271-4.576,2.065c-2.777,1.402-5.221,2.956-7.336,4.632
	c-1.502-1.771-2.852-3.347-4.059-4.743C-54.752,27.233-45.584,23.405-40.508,21.763z M-78.156,18.282
	c4.367-5.235,7.654-8.616,9.797-10.649c2.223,2.019,5.615,5.396,9.994,10.649c1.338,1.604,2.277,3.288,2.826,5.039
	c-2.389,1.794-4.559,3.95-6.164,6.516c-3.326-3.741-4.779-5.202-4.885-5.306l-1.895-1.902l-1.895,1.902
	c-0.104,0.101-1.487,1.493-4.646,5.04c-1.582-2.441-3.681-4.499-5.974-6.226C-80.444,21.585-79.5,19.894-78.156,18.282z
	 M-89.361,16.059l0.166-1.924c1.15,0.617,2.49,1.41,3.824,2.371c0.442,0.319,0.848,0.635,1.235,0.949
	c-0.587,0.955-1.082,1.934-1.485,2.933c-1.289-0.703-2.574-1.322-3.805-1.856C-89.454,17.752-89.439,16.931-89.361,16.059z
	 M-89.215,24.552c3.771,1.906,8.289,4.952,10.455,9.279c-1.225,1.414-2.604,3.021-4.141,4.834c-2.059-1.602-4.414-3.088-7.08-4.435
	c-1.585-0.8-3.141-1.489-4.604-2.076c-0.613-1.86-1.052-3.99-1.213-6.439l-0.258-3.959C-94.174,22.363-91.726,23.279-89.215,24.552z
	 M-92.395,39.007c2.402,1.216,4.395,2.477,6.049,3.747c-0.412,0.493-0.832,0.996-1.266,1.513c-1.841,2.208-3.289,4.532-4.336,6.943
	c-2.623-1.338-5.188-2.392-7.423-3.195c-0.695-2.226-1.133-4.638-1.302-7.236l-0.342-5.231
	C-98.746,36.256-95.618,37.381-92.395,39.007z M-88.282,81.584l-0.021-0.008c-0.035-0.01-3.66-1.188-7.357-4.67
	c-4.917-4.622-7.668-10.967-8.186-18.859l-0.392-5.989c2.722,0.838,6.698,2.261,10.677,4.374c-0.74,3.845-0.56,7.85,0.585,11.927
	c1.814,6.458,5.585,11.548,7.943,14.27L-88.282,81.584z M-68.218,92.209c-1.866-1.799-4.145-4.148-6.378-6.459
	c-1.646-1.703-3.35-3.461-5.043-5.165c-1.418-1.427-6.201-6.628-8.18-13.674c-1.956-6.964-0.506-13.427,4.32-19.215
	c7.893-9.466,12.641-14.784,15.016-17.371c2.375,2.587,7.121,7.905,15.018,17.371c12.83,15.386-2.107,31.133-3.855,32.883
	C-62.227,85.485-65.891,89.531-68.218,92.209z M-33.141,58.047c-0.518,7.893-3.271,14.237-8.186,18.859
	c-3.699,3.481-7.322,4.66-7.346,4.67l-3.242,1.04c2.361-2.718,6.113-7.786,7.93-14.251c1.146-4.084,1.324-8.096,0.582-11.946
	c3.969-2.108,7.936-3.525,10.652-4.361L-33.141,58.047z"/>
<g>
	<path fill="#D0A94F" d="M85.406,99.49c-3.628,0-7.04-1.412-9.605-3.978L55.42,75.132c-4.812,2.07-10.048,3.156-15.313,3.156
		c-10.322,0-20.026-4.021-27.324-11.319C5.482,59.67,1.461,49.964,1.461,39.643c0-10.324,4.021-20.028,11.321-27.328
		C20.081,5.016,29.784,0.996,40.108,0.996c10.321,0,20.025,4.02,27.326,11.319c11.623,11.623,14.528,29.29,7.532,43.938
		l20.047,20.049c2.565,2.563,3.978,5.977,3.978,9.603c0,3.629-1.412,7.043-3.978,9.607C92.448,98.078,89.035,99.49,85.406,99.49z
		 M56.997,65.354L81.48,89.834c2.098,2.1,5.757,2.1,7.854,0c1.05-1.049,1.626-2.443,1.626-3.929c0-1.482-0.576-2.877-1.626-3.926
		L65.014,57.655l1.551-2.67c6.962-11.988,4.984-27.2-4.807-36.992c-5.784-5.782-13.473-8.967-21.649-8.967
		c-8.178,0-15.867,3.185-21.647,8.967c-5.784,5.783-8.97,13.471-8.97,21.65c0,8.177,3.186,15.864,8.97,21.647
		c5.78,5.782,13.468,8.968,21.646,8.968c4.971,0,9.905-1.217,14.273-3.521L56.997,65.354z"/>
	<path fill="#D0A94F" d="M51.03,29.364c-2.788-2.787-6.493-4.322-10.438-4.322c-3.942,0-7.647,1.535-10.435,4.322l-4.259-4.258
		c3.925-3.925,9.145-6.086,14.693-6.086c5.553,0,10.771,2.161,14.696,6.086L51.03,29.364z"/>
</g>
</svg>
