<svg xmlns="http://www.w3.org/2000/svg" width="100" height="100" viewBox="0 0 100 100"><style>.a{fill:#D0A94F;}</style><path d="M-30.4 45.9c-0.1 0-0.4 0.1-0.8 0.2 0.3-1.5 0.5-3.2 0.7-4.9l0.8-12.5 -3.5 0.7c-0.1 0-1.1 0.2-2.8 0.7 0.2-1.3 0.4-2.6 0.5-4l0.7-11.3 -3.5 0.7c-0.3 0.1-2.4 0.5-5.3 1.6 0-0.5-0.1-1.1-0.2-1.7l-1.3-9.2 -3.2 1.4c-0.3 0.1-4.2 1.9-8 4.9 -7.7-8.8-12.1-11.8-12.3-11.9l-0.1 0.1 0 0c-0.2 0.1-4.4 3.2-12.3 12.5 -4.5-3.6-9.3-5.5-9.7-5.6l-3.3-1.3 -0.8 9.3c0 0.3 0 0.6-0.1 0.9 -2-0.6-3.4-1-3.7-1l-3.5-0.7 0.7 11.3c0.1 1.4 0.3 2.8 0.5 4 -1.6-0.5-2.6-0.7-2.7-0.7l-3.5-0.7 0.8 12.5c0.1 1.8 0.4 3.5 0.7 5 -0.7-0.2-1.1-0.3-1.2-0.3l-3.5-0.7 0.9 13.3c0.8 11.7 5.9 18.8 10.1 22.6 4.4 4.1 8.8 5.5 9.2 5.7l12.7 4.1c4.6 4.8 7.7 7.8 9.7 9l0.4-0.7L-67 99.1c0 0 2.6-3.3 7.3-8.3l12.6-4c0.4-0.1 4.8-1.6 9.2-5.7 4.2-3.9 9.3-10.9 10.1-22.6l0.9-13.3L-30.4 45.9zM-35.5 35.6l-0.3 5.2c-0.2 2.5-0.6 4.9-1.2 7.1 -2.3 0.8-5.1 1.9-7.9 3.4 -1.1-2.4-2.5-4.7-4.3-6.9 -0.4-0.4-0.7-0.9-1.1-1.3 2-1.6 4.2-2.9 6.2-3.9C-41 37.4-37.8 36.3-35.5 35.6zM-49.2 14.2l0.3 1.9c0.1 1.1 0.2 2.1 0.2 3.1 -0.7 0.3-1.4 0.7-2.2 1.1 -0.5-1.2-1.1-2.5-1.9-3.6C-51.6 15.7-50.3 14.9-49.2 14.2zM-40.5 21.8l-0.3 4c-0.2 2.5-0.6 4.6-1.2 6.5 -1.5 0.6-3 1.3-4.6 2.1 -2.8 1.4-5.2 3-7.3 4.6 -1.5-1.8-2.9-3.3-4.1-4.7C-54.8 27.2-45.6 23.4-40.5 21.8zM-78.2 18.3c4.4-5.2 7.7-8.6 9.8-10.6 2.2 2 5.6 5.4 10 10.6 1.3 1.6 2.3 3.3 2.8 5 -2.4 1.8-4.6 4-6.2 6.5 -3.3-3.7-4.8-5.2-4.9-5.3l-1.9-1.9 -1.9 1.9c-0.1 0.1-1.5 1.5-4.6 5 -1.6-2.4-3.7-4.5-6-6.2C-80.4 21.6-79.5 19.9-78.2 18.3zM-89.4 16.1l0.2-1.9c1.2 0.6 2.5 1.4 3.8 2.4 0.4 0.3 0.8 0.6 1.2 0.9 -0.6 1-1.1 1.9-1.5 2.9 -1.3-0.7-2.6-1.3-3.8-1.9C-89.5 17.8-89.4 16.9-89.4 16.1zM-89.2 24.6c3.8 1.9 8.3 5 10.5 9.3 -1.2 1.4-2.6 3-4.1 4.8 -2.1-1.6-4.4-3.1-7.1-4.4 -1.6-0.8-3.1-1.5-4.6-2.1 -0.6-1.9-1.1-4-1.2-6.4l-0.3-4C-94.2 22.4-91.7 23.3-89.2 24.6zM-92.4 39c2.4 1.2 4.4 2.5 6 3.7 -0.4 0.5-0.8 1-1.3 1.5 -1.8 2.2-3.3 4.5-4.3 6.9 -2.6-1.3-5.2-2.4-7.4-3.2 -0.7-2.2-1.1-4.6-1.3-7.2l-0.3-5.2C-98.7 36.3-95.6 37.4-92.4 39zM-88.3 81.6l0 0c0 0-3.7-1.2-7.4-4.7 -4.9-4.6-7.7-11-8.2-18.9l-0.4-6c2.7 0.8 6.7 2.3 10.7 4.4 -0.7 3.8-0.6 7.9 0.6 11.9 1.8 6.5 5.6 11.5 7.9 14.3L-88.3 81.6zM-68.2 92.2c-1.9-1.8-4.1-4.1-6.4-6.5 -1.6-1.7-3.3-3.5-5-5.2 -1.4-1.4-6.2-6.6-8.2-13.7 -2-7-0.5-13.4 4.3-19.2 7.9-9.5 12.6-14.8 15-17.4 2.4 2.6 7.1 7.9 15 17.4 12.8 15.4-2.1 31.1-3.9 32.9C-62.2 85.5-65.9 89.5-68.2 92.2zM-33.1 58c-0.5 7.9-3.3 14.2-8.2 18.9 -3.7 3.5-7.3 4.7-7.3 4.7l-3.2 1c2.4-2.7 6.1-7.8 7.9-14.3 1.1-4.1 1.3-8.1 0.6-11.9 4-2.1 7.9-3.5 10.7-4.4L-33.1 58z" fill="#FFF"/><path d="M85.4 99.5c-3.6 0-7-1.4-9.6-4L55.4 75.1c-4.8 2.1-10 3.2-15.3 3.2 -10.3 0-20-4-27.3-11.3C5.5 59.7 1.5 50 1.5 39.6c0-10.3 4-20 11.3-27.3C20.1 5 29.8 1 40.1 1c10.3 0 20 4 27.3 11.3 11.6 11.6 14.5 29.3 7.5 43.9l20 20c2.6 2.6 4 6 4 9.6 0 3.6-1.4 7-4 9.6C92.4 98.1 89 99.5 85.4 99.5zM57 65.4L81.5 89.8c2.1 2.1 5.8 2.1 7.9 0 1.1-1 1.6-2.4 1.6-3.9 0-1.5-0.6-2.9-1.6-3.9L65 57.7l1.6-2.7c7-12 5-27.2-4.8-37 -5.8-5.8-13.5-9-21.6-9 -8.2 0-15.9 3.2-21.6 9 -5.8 5.8-9 13.5-9 21.7 0 8.2 3.2 15.9 9 21.6 5.8 5.8 13.5 9 21.6 9 5 0 9.9-1.2 14.3-3.5L57 65.4z" class="a"/><path d="M51 29.4c-2.8-2.8-6.5-4.3-10.4-4.3 -3.9 0-7.6 1.5-10.4 4.3l-4.3-4.3c3.9-3.9 9.1-6.1 14.7-6.1 5.6 0 10.8 2.2 14.7 6.1L51 29.4z" class="a"/></svg>